<svg xmlns:xlink="http://www.w3.org/1999/xlink" version="1.1" class="highcharts-root" style="font: 16.625px &quot;Statis Sans&quot;, sans-serif; fill: rgb(31, 31, 31);" xmlns="http://www.w3.org/2000/svg" width="768" height="480" viewBox="0 0 768 480" aria-label="Interactive chart" aria-hidden="false"><desc aria-hidden="true">Created with Highcharts 12.5.0</desc><defs aria-hidden="true"><filter id="highcharts-drop-shadow-3"><feDropShadow dx="1" dy="1" flood-color="#000000" flood-opacity="0.75" stdDeviation="2.5"></feDropShadow></filter></defs><rect fill="white" class="highcharts-background" filter="none" x="0" y="0" width="768" height="480" rx="0" ry="0" aria-hidden="true"></rect><rect fill="none" class="highcharts-plot-background" x="36" y="96" width="696" height="233" filter="none" aria-hidden="true"></rect><g transform="translate(36,460)" class="js-destatis-copyright" aria-hidden="true"><g transform="translate(12,0)"><rect x="1" y="1" rx="0" ry="0" width="2" height="6" fill="#1D1D1B"></rect><rect x="5" y="3" rx="0" ry="0" width="2" height="4" fill="#CD1531"></rect><rect x="9" y="0" rx="0" ry="0" width="2" height="7" fill="#FCC200"></rect><rect x="1" y="8" rx="0" ry="0" width="10" height="2" fill="#B1B1B1"></rect></g><text x="0" y="11" fill="#1f1f1f" font-size="13.3px" font-family="&quot;Statis Sans&quot;">©</text><text x="27" y="9" fill="#1f1f1f" font-size="13.3px" font-family="&quot;Statis Sans&quot;">Statistisches Bundesamt (Destatis), 2026</text></g><g class="highcharts-pane-group" data-z-index="0" aria-hidden="true"></g><rect fill="none" class="highcharts-plot-border" data-z-index="1" stroke="#cccccc" stroke-width="0" x="36" y="96" width="696" height="233" aria-hidden="true"></rect><g class="highcharts-series-group" data-z-index="3" filter="none" aria-hidden="false"><g class="highcharts-series highcharts-series-1 highcharts-pie-series highcharts-color-0" data-z-index="0.1" opacity="1" transform="translate(36,96) scale(1 1)" filter="none" clip-path="none" aria-hidden="false" role="region" tabindex="-1" aria-label="Anteil, pie 2 of 2 with 6 slices." style="outline: none;"><path fill="#76b4ff" d="M 347.9738992789465 -11.649997341991252 A 128.15 128.15 0 0 1 475.64279685398105 127.89029899929396 L 429.6913899865479 123.78979135954813 A 82.016 82.016 0 0 0 347.98329553852574 34.48400170112561 Z" transform="translate(0,0)" stroke="#ffffff" stroke-width="1" opacity="1" stroke-linejoin="round" class="highcharts-point highcharts-color-0" tabindex="-1" role="img" aria-label="Windkraft, 26 %. Anteil." style="outline: none;"></path><path fill="#76b4ff" d="M 475.64279685398105 127.89029899929396 A 128.15 128.15 0 0 1 389.74382523883804 237.66053629144 L 374.7160481528564 194.0427432265216 A 82.016 82.016 0 0 0 429.6913899865479 123.78979135954813 Z" transform="translate(0,0)" stroke="#ffffff" stroke-width="1" opacity="1" stroke-linejoin="round" class="highcharts-point highcharts-color-0" tabindex="-1" role="img" aria-label="Photovoltaik, 18 %. Anteil." style="outline: none;"></path><path fill="#76b4ff" d="M 389.74382523883804 237.66053629144 A 128.15 128.15 0 0 1 325.1577679685176 242.597799091895 L 333.3809714998513 197.2025914188128 A 82.016 82.016 0 0 0 374.7160481528564 194.0427432265216 Z" transform="translate(0,0)" stroke="#ffffff" stroke-width="1" opacity="1" stroke-linejoin="round" class="highcharts-point highcharts-color-0" tabindex="-1" role="img" aria-label="Biomasse, 8 %. Anteil." style="outline: none;"></path><path fill="#76b4ff" d="M 325.1577679685176 242.597799091895 A 128.15 128.15 0 0 1 301.63464893888886 235.9683084377607 L 318.32617532088886 192.95971740016682 A 82.016 82.016 0 0 0 333.3809714998513 197.2025914188128 Z" transform="translate(0,0)" stroke="#ffffff" stroke-width="1" opacity="1" stroke-linejoin="round" class="highcharts-point highcharts-color-0" tabindex="-1" role="img" aria-label="Wasserkraft, 3 %. Anteil." style="outline: none;"></path><path fill="#76b4ff" d="M 301.63464893888886 235.9683084377607 A 128.15 128.15 0 0 1 294.0888196117018 232.75836369543646 L 313.4968445514892 190.90535276507933 A 82.016 82.016 0 0 0 318.32617532088886 192.95971740016682 Z" transform="translate(0,0)" stroke="#ffffff" stroke-width="1" opacity="1" stroke-linejoin="round" class="highcharts-point highcharts-color-0" tabindex="-1" role="img" aria-label="Hausmüll, 1 %. Anteil." style="outline: none;"></path><path fill="rgba(255, 255, 255, 0.0)" d="M 294.0888196117018 232.75836369543646 A 128.15 128.15 0 0 1 347.950152164959 -11.649990305084856 L 347.96809738557374 34.48400620474568 A 82.016 82.016 0 0 0 313.4968445514892 190.90535276507933 Z" transform="translate(0,0)" stroke="#ffffff" stroke-width="1" opacity="1" stroke-linejoin="round" visibility="hidden" class="highcharts-point highcharts-color-0" tabindex="-1" role="img" aria-label="x, 5, 42,4 %. Anteil." style="outline: none;"></path></g><g class="highcharts-markers highcharts-series-1 highcharts-pie-series highcharts-color-0" data-z-index="0.1" opacity="1" transform="translate(36,96) scale(1 1)" clip-path="none" aria-hidden="true"></g><g class="highcharts-series highcharts-series-0 highcharts-pie-series" data-z-index="10" opacity="1" transform="translate(36,96) scale(1 1)" filter="none" clip-path="none" aria-hidden="false" role="region" tabindex="-1" aria-label="2025, pie 1 of 2 with 5 slices." style="outline: none;"><path fill="#266ec3" d="M 347.97627207176953 0.000002416371600588718 A 116.5 116.5 0 1 1 298.35658546650774 221.89345991785189 L 316.22821469856495 183.9518143474252 A 74.56 74.56 0 1 0 347.9848141259325 41.94000154647783 Z" transform="translate(0,0)" stroke="#ffffff" stroke-width="1" opacity="1" stroke-linejoin="round" class="highcharts-point highcharts-color-0" tabindex="-1" role="img" aria-label="Erneuerbare Energien, 57 %. 2025." style="outline: none;"></path><path fill="#c0304c" d="M 298.35658546650774 221.89345991785189 A 116.5 116.5 0 0 1 231.72813969734085 123.78728356515036 L 273.5860094062981 121.16386148169623 A 74.56 74.56 0 0 0 316.22821469856495 183.9518143474252 Z" transform="translate(0,0)" stroke="#ffffff" stroke-width="1" opacity="1" stroke-linejoin="round" class="highcharts-point highcharts-color-1" tabindex="-1" role="img" aria-label="Erdgas, 17 %. 2025." style="outline: none;"></path><path fill="#e75e70" d="M 231.72813969734085 123.78728356515036 A 116.5 116.5 0 0 1 273.71868973432373 26.752927929573445 L 300.45996142996717 59.061873874927 A 74.56 74.56 0 0 0 273.5860094062981 121.16386148169623 Z" transform="translate(0,0)" stroke="#ffffff" stroke-width="1" opacity="1" stroke-linejoin="round" class="highcharts-point highcharts-color-2" tabindex="-1" role="img" aria-label="Braunkohle, 15 %. 2025." style="outline: none;"></path><path fill="#ff8290" d="M 273.71868973432373 26.752927929573445 A 116.5 116.5 0 0 1 311.97406912064815 5.7101886260466586 L 324.9434042372148 45.59452072066986 A 74.56 74.56 0 0 0 300.45996142996717 59.061873874927 Z" transform="translate(0,0)" stroke="#ffffff" stroke-width="1" opacity="1" stroke-linejoin="round" class="highcharts-point highcharts-color-3" tabindex="-1" role="img" aria-label="Steinkohle, 6 %. 2025." style="outline: none;"></path><path fill="#cacaca" d="M 311.97406912064815 5.7101886260466586 A 116.5 116.5 0 0 1 347.95468378632637 0.00000881355921933391 L 347.9709976232489 41.940005640677896 A 74.56 74.56 0 0 0 324.9434042372148 45.59452072066986 Z" transform="translate(0,0)" stroke="#ffffff" stroke-width="1" opacity="1" stroke-linejoin="round" class="highcharts-point highcharts-color-4" tabindex="-1" role="img" aria-label="Sonstige, 5 %. 2025." style="outline: none;"></path></g><g class="highcharts-markers highcharts-series-0 highcharts-pie-series" data-z-index="10" opacity="1" transform="translate(36,96) scale(1 1)" clip-path="none" aria-hidden="true"></g></g><text x="36" text-anchor="start" class="highcharts-title" data-z-index="4" style="font-size: 15px; font-weight: bold; font-family: &quot;Statis Sans&quot;, sans-serif; fill: rgb(31, 31, 31);" text-align="left" y="47" transform-origin="36 18" transform="translate(0,0) scale(1 1)" aria-hidden="true">Bruttostromerzeugung nach Energieträgern 2025<tspan class="highcharts-br" dy="19" x="36">​</tspan><tspan style="font-size: 16.7px;"></tspan><tspan style="font-size: 13.3px; font-weight: 400;">in %</tspan></text><text x="384" text-anchor="middle" class="highcharts-subtitle" data-z-index="4" style="font-size: 13.3px; font-family: &quot;Statis Sans&quot;, sans-serif; fill: rgb(31, 31, 31);" text-align="center" y="196" transform-origin="76.5234375 16" transform="translate(0,0) scale(1 1)" aria-hidden="true">508 Mrd. kWh<tspan class="highcharts-br" dy="16" x="384">​</tspan>insgesamt</text><text x="36" text-anchor="start" class="highcharts-caption" data-z-index="4" style="font-size: 11.7px; font-family: &quot;Statis Sans&quot;, sans-serif; fill: rgb(31, 31, 31);" text-align="left" y="441" transform-origin="36 14" transform="translate(0,0) scale(1 1)" aria-hidden="true">Rundungsbedingte Abweichung möglich. Vorläufige Angaben. Quelle: AGEE-Stat und AGEB</text><g class="highcharts-data-labels highcharts-series-0 highcharts-pie-series" data-z-index="6" opacity="1" transform="translate(36,96) scale(1 1)" aria-hidden="true"><g class="highcharts-label highcharts-data-label highcharts-data-label-color-0" data-z-index="1" filter="none" style="overflow: visible;" transform="translate(432,124)"><text x="5" data-z-index="1" y="18" style="font-family: &quot;Statis Sans&quot;, sans-serif; font-size: 13.3px; text-align: left; fill: rgb(255, 255, 255);" text-anchor="start"><tspan style="font-weight: bold;">57</tspan></text></g><g class="highcharts-label highcharts-data-label highcharts-data-label-color-1" data-z-index="1" filter="none" style="overflow: visible;" transform="translate(254,158)"><text x="5" data-z-index="1" y="18" style="font-family: &quot;Statis Sans&quot;, sans-serif; font-size: 13.3px; text-align: left; fill: rgb(255, 255, 255);" text-anchor="start"><tspan style="font-weight: bold;">17</tspan></text></g><g class="highcharts-label highcharts-data-label highcharts-data-label-color-2" data-z-index="1" filter="none" style="overflow: visible;" transform="translate(245,64)"><text x="5" data-z-index="1" y="18" style="font-family: &quot;Statis Sans&quot;, sans-serif; font-size: 13.3px; text-align: left; fill: rgb(0, 0, 0);" text-anchor="start"><tspan style="font-weight: bold;">15</tspan></text></g><g class="highcharts-label highcharts-data-label highcharts-data-label-color-3" data-z-index="1" filter="none" style="overflow: visible;" transform="translate(292,17)"><text x="5" data-z-index="1" y="18" style="font-family: &quot;Statis Sans&quot;, sans-serif; font-size: 13.3px; text-align: left; fill: rgb(0, 0, 0);" text-anchor="start"><tspan style="font-weight: bold;">6</tspan></text></g><g class="highcharts-label highcharts-data-label highcharts-data-label-color-4" data-z-index="1" filter="none" style="overflow: visible;" transform="translate(324,6)"><text x="5" data-z-index="1" y="18" style="font-family: &quot;Statis Sans&quot;, sans-serif; font-size: 13.3px; text-align: left; fill: rgb(0, 0, 0);" text-anchor="start"><tspan style="font-weight: bold;">5</tspan></text></g></g><g class="highcharts-data-labels highcharts-series-1 highcharts-pie-series highcharts-color-0" data-z-index="6" opacity="1" transform="translate(36,96) scale(1 1)" aria-hidden="true"><g class="highcharts-label highcharts-data-label highcharts-data-label-color-0" data-z-index="1" filter="none" style="overflow: visible;" transform="translate(471,32)"><text x="5" data-z-index="1" y="18" style="font-family: &quot;Statis Sans&quot;, sans-serif; font-size: 13.3px; text-align: left; fill: rgb(31, 31, 31);" text-anchor="start"><tspan style="font-weight: bold;">26 % </tspan> <tspan class="highcharts-br" dy="16" x="5">​</tspan>Windkraft</text></g><g class="highcharts-label highcharts-data-label highcharts-data-label-color-0" data-z-index="1" filter="none" style="overflow: visible;" transform="translate(460,182)"><text x="5" data-z-index="1" y="18" style="font-family: &quot;Statis Sans&quot;, sans-serif; font-size: 13.3px; text-align: left; fill: rgb(31, 31, 31);" text-anchor="start"><tspan style="font-weight: bold;">18 % </tspan> <tspan class="highcharts-br" dy="16" x="5">​</tspan>Photovoltaik</text></g><g class="highcharts-label highcharts-data-label highcharts-data-label-color-0" data-z-index="1" filter="none" style="overflow: visible;" transform="translate(370,244)"><text x="5" data-z-index="1" y="18" style="font-family: &quot;Statis Sans&quot;, sans-serif; font-size: 13.3px; text-align: left; fill: rgb(31, 31, 31);" text-anchor="start"><tspan style="font-weight: bold;">8 % </tspan>Biomasse</text></g><g class="highcharts-label highcharts-data-label highcharts-data-label-color-0" data-z-index="1" filter="none" style="overflow: visible;" transform="translate(297,256)"><text x="5" data-z-index="1" y="18" style="font-family: &quot;Statis Sans&quot;, sans-serif; font-size: 13.3px; text-align: left; fill: rgb(31, 31, 31);" text-anchor="start"><tspan style="font-weight: bold;">3 % </tspan>Wasserkraft</text></g><g class="highcharts-label highcharts-data-label highcharts-data-label-color-0" data-z-index="1" filter="none" style="overflow: visible;" transform="translate(279,271)"><text x="5" data-z-index="1" y="18" style="font-family: &quot;Statis Sans&quot;, sans-serif; font-size: 13.3px; text-align: left; fill: rgb(31, 31, 31);" text-anchor="start"><tspan style="font-weight: bold;">1 % </tspan>Hausmüll</text></g></g><g class="highcharts-legend highcharts-no-tooltip" data-z-index="7" text-align="left" transform="translate(21,385)" aria-hidden="true"><rect fill="none" class="highcharts-legend-box" rx="0" ry="0" stroke="#999999" stroke-width="0" filter="none" x="0" y="0" width="569" height="45"></rect><g data-z-index="1"><g><g class="highcharts-legend-item highcharts-pie-series highcharts-color-0" data-z-index="1" transform="translate(15,10)"><text x="21" text-anchor="start" data-z-index="2" style="cursor: pointer; font-size: 13.3px; text-decoration: none; font-family: &quot;Statis Sans&quot;, sans-serif; fill: rgb(31, 31, 31);" y="18">Erneuerbare Energien</text><rect x="1.5" y="6" rx="1" ry="1" width="13" height="13" fill="#266ec3" class="highcharts-point" data-z-index="3"></rect></g><g class="highcharts-legend-item highcharts-pie-series highcharts-color-1" data-z-index="1" transform="translate(185.84375,10)"><text x="21" y="18" text-anchor="start" data-z-index="2" style="cursor: pointer; font-size: 13.3px; text-decoration: none; font-family: &quot;Statis Sans&quot;, sans-serif; fill: rgb(31, 31, 31);">Erdgas</text><rect x="1.5" y="6" rx="1" ry="1" width="13" height="13" fill="#c0304c" class="highcharts-point" data-z-index="3"></rect></g><g class="highcharts-legend-item highcharts-pie-series highcharts-color-2" data-z-index="1" transform="translate(266.859375,10)"><text x="21" y="18" text-anchor="start" data-z-index="2" style="cursor: pointer; font-size: 13.3px; text-decoration: none; font-family: &quot;Statis Sans&quot;, sans-serif; fill: rgb(31, 31, 31);">Braunkohle</text><rect x="1.5" y="6" rx="1" ry="1" width="13" height="13" fill="#e75e70" class="highcharts-point" data-z-index="3"></rect></g><g class="highcharts-legend-item highcharts-pie-series highcharts-color-3" data-z-index="1" transform="translate(376.59375,10)"><text x="21" y="18" text-anchor="start" data-z-index="2" style="cursor: pointer; font-size: 13.3px; text-decoration: none; font-family: &quot;Statis Sans&quot;, sans-serif; fill: rgb(31, 31, 31);">Steinkohle</text><rect x="1.5" y="6" rx="1" ry="1" width="13" height="13" fill="#ff8290" class="highcharts-point" data-z-index="3"></rect></g><g class="highcharts-legend-item highcharts-pie-series highcharts-color-4" data-z-index="1" transform="translate(481.296875,10)"><text x="21" y="18" text-anchor="start" data-z-index="2" style="cursor: pointer; font-size: 13.3px; text-decoration: none; font-family: &quot;Statis Sans&quot;, sans-serif; fill: rgb(31, 31, 31);">Sonstige</text><rect x="1.5" y="6" rx="1" ry="1" width="13" height="13" fill="#cacaca" class="highcharts-point" data-z-index="3"></rect></g></g></g></g></svg>