<?xml version="1.0" encoding="UTF-8" standalone="no"?>
<!-- Created with Inkscape (http://www.inkscape.org/) -->

<svg
   id="svg2"
   sodipodi:docname="backup_productive.svg"
   viewBox="0 0 755.37 516.19"
   version="1.1"
   inkscape:version="1.1.1 (3bf5ae0d25, 2021-09-20)"
   xmlns:inkscape="http://www.inkscape.org/namespaces/inkscape"
   xmlns:sodipodi="http://sodipodi.sourceforge.net/DTD/sodipodi-0.dtd"
   xmlns="http://www.w3.org/2000/svg"
   xmlns:svg="http://www.w3.org/2000/svg"
   xmlns:rdf="http://www.w3.org/1999/02/22-rdf-syntax-ns#">
  <defs
     id="defs4">
    <linearGradient
       id="linearGradient3889"
       y2="810.94"
       gradientUnits="userSpaceOnUse"
       x2="514.17"
       gradientTransform="matrix(1.052 0 0 1.172 -26.724 -93.488)"
       y1="267.47"
       x1="541.44"
       inkscape:collect="always">
      <stop
         id="stop3885"
         style="stop-color:#9ab4ca"
         offset="0" />
      <stop
         id="stop3891"
         style="stop-color:#91b1bc"
         offset=".5" />
      <stop
         id="stop3887"
         style="stop-color:#9ab4cb"
         offset="1" />
    </linearGradient>
  </defs>
  <sodipodi:namedview
     id="base"
     bordercolor="#666666"
     inkscape:pageshadow="2"
     inkscape:guide-bbox="true"
     pagecolor="#ffffff"
     inkscape:window-height="997"
     inkscape:window-maximized="1"
     inkscape:zoom="0.98994949"
     inkscape:window-x="0"
     showgrid="false"
     borderopacity="1.0"
     inkscape:current-layer="layer1"
     inkscape:cx="256.57875"
     inkscape:cy="162.12948"
     showguides="true"
     inkscape:window-y="28"
     inkscape:window-width="1920"
     inkscape:pageopacity="0.0"
     inkscape:document-units="px"
     inkscape:pagecheckerboard="0">
    <sodipodi:guide
       id="guide3097"
       position="-24.004691,-1.8920396"
       orientation="1,0" />
  </sodipodi:namedview>
  <g
     id="layer1"
     inkscape:label="Layer 1"
     inkscape:groupmode="layer"
     transform="translate(-3.2904 -220)">
    <rect
       id="rect3093"
       style="fill:url(#linearGradient3889)"
       height="516.19"
       width="756.6"
       y="220"
       x="3.0305" />
    <rect
       id="rect3881"
       style="stroke-width:1.9;fill:#dbe2e3"
       height="517.2"
       width="2.0203"
       y="218.99"
       x="155.06" />
    <rect
       id="rect3893"
       style="stroke-width:1.9;fill:#dbe2e3"
       height="516.19"
       width="2.0203"
       y="220"
       x="227.28" />
    <rect
       id="rect3895"
       style="stroke-width:1.9;fill:#dbe2e3"
       height="515.18"
       width="2.0203"
       y="221.01"
       x="299.51" />
    <rect
       id="rect3897"
       style="stroke-width:1.9;fill:#dbe2e3"
       height="515.18"
       width="2.0203"
       y="220"
       x="371.74" />
    <rect
       id="rect3903"
       style="stroke-width:1.9;fill:#dbe2e3"
       height="517.2"
       width="2.0203"
       y="220"
       x="443.96" />
    <rect
       id="rect3905"
       style="stroke-width:1.9;fill:#dbe2e3"
       height="515.18"
       width="2.0203"
       y="220"
       x="516.19" />
    <rect
       id="rect3907"
       style="stroke-width:1.9;fill:#dbe2e3"
       height="519.22"
       width="2.0203"
       y="218.99"
       x="588.41" />
    <rect
       id="rect3913"
       style="stroke-width:1.9;fill:#dbe2e3"
       height="515.18"
       width="2.0203"
       y="223.03"
       x="660.64" />
    <rect
       id="rect3915"
       style="stroke-width:1.9;fill:#dbe2e3"
       transform="rotate(90)"
       height="750.55"
       width="2.0203"
       y="-755.09"
       x="328.59" />
    <rect
       id="rect3917"
       style="stroke-width:1.9;fill:#dbe2e3"
       height="515.18"
       width="3.0305"
       y="221.01"
       x="82.833" />
    <rect
       id="rect3919"
       style="stroke-width:1.9;fill:#dbe2e3"
       transform="rotate(90)"
       height="748.53"
       width="2.0203"
       y="-759.67"
       x="409.84" />
    <rect
       id="rect3921"
       style="stroke-width:1.9;fill:#dbe2e3"
       transform="rotate(90)"
       height="750.55"
       width="2.0203"
       y="-760.26"
       x="491.09" />
    <rect
       id="rect3923"
       style="stroke-width:1.9;fill:#dbe2e3"
       transform="rotate(90)"
       height="751.56"
       width="2.0203"
       y="-757.7"
       x="572.34" />
    <rect
       id="rect3925"
       style="stroke-width:1.9;fill:#dbe2e3"
       transform="rotate(90)"
       height="755.6"
       width="2.0203"
       y="-758.89"
       x="653.59" />
    <path
       id="path3089"
       style="fill:#2b4159"
       d="m96.633 347.25c0.0644-0.0257 0.0966-0.0499 0.0966-0.0677 0-0.11272-0.0451-0.0499-0.0966 0.0677zm163.24 190.62s-3.0755-0.64087-3.2092-1.0257c-0.1272-0.38322-5.3878-5.0014-5.5086-4.8726-0.13686 0.12558-2.1883-2.0611-2.4459-1.4122-0.25121 0.64087-4.2317 0.64087-4.2317 0.64087l-4.2333-1.0338s-1.7906 1.2914-1.409 0.77131c0.38486-0.51206 0.12722-3.5892 0-3.0723-0.12719 0.50723-6.4168-2.6971-6.4168-2.6971l-2.1851 1.9242v-2.4379l-3.3267-2.0498 0.38807-2.6955-1.5507-1.2834s-0.24959 0.38325-0.3784 0.12883c-0.12721-0.25442-1.0273-5.3862-1.0273-5.3862l-4.879-3.9789-5.8951-0.25763-5.3911-2.958-1.1545-2.6891s-3.0804-1.4057-3.0804-1.7922c0-0.38324-0.88885-0.12559-1.1529-0.25924-0.24959-0.124-0.12076-1.4041-0.12076-1.4041l-1.4218-1.1626-0.50722-0.34458-1.2544-0.38001-0.76807-1.0724s2.7905-1.2463 2.5023-1.1465c-0.2818 0.0902-6.2493 0.95487-6.2493 0.95487l-0.57646 1.1513-2.7921-1.4396-4.7132-0.29144s-3.3734-1.343-3.2768-1.7262c0.10141-0.38645-1.0563-1.8292-1.0563-1.8292s-0.7697 1.8292-0.96292 2.0208c-0.19002 0.19161-2.5925 2.2124-2.5925 2.2124l0.18517 3.0836-1.6328-1.7391 1.1578-1.636v-2.3058c0-0.29469 1.4428-0.96292 1.4428-0.96292l-0.57807-1.2463s-1.7278 0.47985-1.7278 0.76969c0 0.28662-2.3091 1.6328-2.3091 1.6328l-2.7938 1.0563h-1.2495s-1.2479 2.016-1.5458 2.1174c-0.28501 0.0982-0.18196 1.929-0.18196 1.929s-3.0868 3.4556-3.28 3.0723c-0.19163-0.38323-3.4556-3.0723-3.4556-3.0723l-3.8565 0.47342-2.2092 1.1594-2.6955-1.8292-2.1142-3.2704 0.19805-3.8468 1.1513-4.2398 0.47985-2.7841-2.8872-2.1223s-5.8677 0.48147-5.8677 0.19323c0-0.2834-3.1802 0.10141-3.0804-0.19323 0.0919-0.285 1.1545-2.1126 1.1545-2.4057 0-0.28985 0.77291-2.4991 0.77291-2.4991l1.2512-2.4991 1.6344-4.8017 0.95809-1.644-4.8065-0.28663-2.8888 1.1529-1.6344 4.8146-8.18 2.2108-2.0192-1.5378s-0.19323 0.8663-0.0902 0.38486c0.0902-0.47987-2.5039-3.8533-2.5039-3.8533l-1.2528-4.7083s3.2752-9.7242 3.1722-9.5261c-0.095 0.1884 0.10306-3.5667 0.10306-3.5667l10.293-6.7308 3.9402 0.57646 0.9613 0.96131 2.4105-0.39129 2.4041-2.4009 3.0739 0.38646 2.979-0.57485 1.8324 2.0225 2.6875-1.0563 1.4444 1.5426 0.87276 0.95487v1.6408l-0.67308 1.5362 0.67308 3.4652 1.9226 2.6971 1.2495 0.47824 1.5394-4.2317-0.29145-3.9451-0.67147-3.1834v-2.3075l3.9483-4.8001 5.0932-3.6617 4.0417-2.3091 3.5602-3.8468-0.19163-3.6568 1.5474-0.28502 1.5249-3.2688 1.541 0.18035 2.9886-3.7486 4.9966-1.7262 3.0852-0.57486 0.96292-1.0579-1.1545-0.9613 2.4025-3.5667 7.6035-2.9821 4.6214-1.3462-3.7583 2.4073 0.7697 1.8244 2.7905-0.76808 2.0224-1.2479 5.2896-1.4412s1.2576-2.1207 1.0595-1.6392c-0.18517 0.47984 2.6971-0.48146 2.6971-0.48146l-0.57484-1.1578 0.19161-1.5378-1.5362 0.57808-2.3203 2.5007-3.747-0.18357-1.7278-2.6037 1.6344-2.2125s1.6328-3.272 1.5378-3.0739c-0.0982 0.18679-2.5941-0.7729-2.5941-0.7729l-3.7551 1.3413c-0.38323 0-3.9435 2.1191-3.8501 1.8324 0.0982-0.28824-1.8292 1.0579-1.8292 1.0579l4.9048-3.9386 2.0241-0.29306 2.3107-2.1207h11.064l3.7534-0.7713 4.9998-2.6907 0.3913 0.48308-2.1191 2.016-2.5989 2.6955-2.5071 2.6891-1.2479 1.6392 3.9451 0.19162s3.0755 0.0773 3.3686 0c0.38484-0.0967 0.47986 1.3445 0.47986 1.3445l1.6328-1.1529 0.87114 2.2125 2.8888-2.2125-0.87114-2.5023 0.77452-2.3139-3.3686 0.10306v-1.2528s-1.2479-1.4428-1.3462-1.2528c-0.0999 0.19485 1.9226-1.6312 1.8244-1.4395-0.095 0.19322-0.86952-0.9597-0.86952-0.9597l2.3171-2.8952-1.1529-3.2656-0.39129-1.6312-2.9838-1.4444-1.0563-1.446-1.351-1.0563 1.0628-2.5039-0.48306-1.826s-0.86147-5.9675-0.95809-5.7775c-0.10141 0.19483-4.0481 3.2752-4.0481 3.2752l-4.0336 2.0241-2.1239-1.8292 0.19967-2.4121 1.8276-1.7294-2.9886-0.96129-0.19162-0.7697s-2.6923-2.6939-2.8823-2.5039c-0.19323 0.19968-0.8663 0.87276-0.8663 0.87276l-6.3524-0.58613-2.2109 3.8517-0.47984 2.0192s-3.4797 3.4813-3.9048 3.7502c0.25442-0.074 1.8824 1.5458 1.8824 1.5458l-1.4476 3.4572-5.4828 3.1754-2.6891 0.38968s-1.6392 5.9691-1.5426 6.3508c0.095 0.38807-2.2108 1.4396-2.2108 1.4396l-1.636 1.1561-0.67629-2.1126s-0.73749-1.6167-1.0306-2.0257c0.42995 0.17713 1.9919 0.38485 1.9919 0.38485l0.29307-1.351-1.5426 0.0999 0.6763-2.2141 1.4428-2.4009-5.0062-0.38645-1.1433-1.3494-2.5087-0.38646-0.19807-1.0611-1.731-1.0547-2.1191-0.96132-2.3042 0.28823-0.0982-2.016 0.57485-1.9242-2.3042-0.38323s4.0417-4.1415 3.9451-3.9483c-0.10305 0.19163 11.347-5.6825 11.347-5.6825l1.351-1.4363 2.2092-0.19805 4.8098-2.2076 3.6568-2.5007 0.38484 0.19322-2.7841 2.5957-0.76968 0.95648-2.2141 1.0611 2.0224 0.28662-0.29466 1.1594 2.2173-0.38646 2.2092-1.8292 1.739 0.5829 0.7713 0.85824 2.4008-0.0966-0.0965-1.826-3.747-2.6907-0.87597-0.8647-0.38-0.96453 1.6296 0.19967 1.3574 1.1529 1.4395-1.4492 2.8856-0.37841 2.8855-2.0289-0.18679-1.2479 2.2092-2.1142-1.4476-1.5362 3.8517-0.0967 3.3606 0.0967s1.6408-0.76809 1.9307-0.28824c0.28984 0.47985 2.7889 2.3042 2.7889 2.3042l-0.96131 0.86631-3.9499 0.48629-0.96131 1.9178 2.8936 0.38968 2.2076-2.3075 2.4025-0.19484 0.38646 2.3042s-2.6907 1.5426-3.0739 1.6376c-0.38484 0.10306-2.0241 0.8647-2.0241 0.8647l-0.0966 1.7374-2.5973 0.28502-2.6923-0.47663-1.2479 0.0933-2.0241 1.6328 1.636 1.4428s2.4073-0.96131 2.7905-1.2479c0.38323-0.28663 1.6344-0.86793 1.921-0.38325 0.28823 0.47985 1.9194 1.826 1.9194 1.826l1.3574 2.6054 1.2495 0.38162 3.8436 1.2495s2.6971 0.67468 2.6971 0.86308c0 0.19323-0.28179-1.6328-0.28179-1.6328l-2.0337-2.4073s-0.0885-0.67308 0.57646-0.48628c0.68113 0.19161 2.3188 1.6312 2.3188 1.6312 0.28339 0.0966 2.2108 1.2608 2.2108 1.2608l0.76808-2.1191 1.7294-1.0595-0.66824-1.2512-0.96454-1.0547-1.0563-1.2512 0.0933-1.4412s0.28985-0.19967 0.57807-0.38483c0.28663-0.19002 1.1529-0.86472 1.3478-0.48631 0.18838 0.38485 2.1207 2.8888 2.1207 2.8888l1.8196 0.38164 0.87114-1.4396s2.4009-0.29144 2.4009-0.19321c0 0.0967 0.19323-1.1529 0.19323-1.1529l2.2157-0.57484-3.1754-2.7986-1.7294-0.8679-1.3526 0.38645-1.2415-1.4428 1.343-1.2463 0.58129-1.7358-1.541-1.5378-2.4057-0.47986-0.5829-1.256s-2.016-0.28663-2.3059-0.0982c-0.29145 0.19968-1.7326-1.7278-1.7326-1.7278l-1.2511-1.6328c-0.19486-0.0982-0.86632-0.77612-1.2495-0.67469-0.3913 0.0967-4.4266 0.19163-4.4266 0.19163l-0.9613 0.28985-1.2479-0.96615-5.0078 1.2544-2.5941 2.0208s-0.19001-1.1562 0-1.4428c0.18678-0.28823 2.016-1.3462 2.3058-1.5378 0.28823-0.19162-2.2108-0.29307-2.2108-0.29307s-4.6214 1.5426-4.813 1.8308c-0.19161 0.28662-3.7534 3.0756-3.7534 3.0756l0.10306 2.3107 3.2672 0.48467 1.2495 0.28179-0.86631 0.77453-0.67146 1.4412-2.1142 1.1545-2.6037 1.921-2.2125 0.86468-0.38162-1.5362 1.9226-1.1545s-0.38484-2.4009-0.57807-2.2109c-0.19162 0.19324-2.2092-0.095-2.3075 0.19324-0.0934 0.28983 0.0982-1.8244 0.0982-1.8244l-0.0982-2.0241-0.47985-1.5442s1.6376-1.3446 1.921-1.4396c0.28985-0.0967 3.3686-0.28985 3.3686-0.28985l4.908-2.7889-4.0433-0.18841s-3.747 0.0919-3.9435 0.48146c-0.19323 0.38484-2.6891 2.9789-2.6891 2.9789l-1.541 1.1546-5.0996 3.1802-0.19484 2.2092-2.1142-0.38323-1.5362-0.28985-3.8436 1.5378v2.1159l-7.0351 0.38968s-3.3622-0.48629-3.3622-0.9613c0-0.48631-1.2495-1.446-1.6328-1.446-0.39127 0-4.7196 1.3462-4.7196 1.3462l-0.19162 1.3446-5.003-0.2834s-4.1351 0.76325-4.0385 0.38322c0.0965-0.38322-2.2157-0.19484-2.2157-0.19484l3.4636-1.5394-2.4009-1.1546-4.3364-0.67145-3.0756-0.96131-3.4572 0.48145-0.38485-1.4412-3.0852 1.2463-0.8663-2.0208-2.1142 0.96454s-7.8885 1.6344-8.275 1.7294c-0.38163 0.0982-2.3042-0.76968-2.3042-0.76968l-2.4137 1.1529-4.6117 0.28823-1.8324-1.3445-3.7502-0.76808-4.1383 0.19161-7.7017-1.2544s-4.4217-0.67307-4.1335-0.77452c0.28823-0.0967-2.4009-0.76969-2.4009-0.76969s0.10791-0.32044 0.19162-0.50721c-0.94359 0.39933-8.4666 1.6601-8.4666 1.6601l-10.099 3.2768-6.6406 1.3446s0.19162 1.731 0.285 2.0176c0.0982 0.29467 0.67468 2.2141 0.67468 2.2141l-1.826 0.38485h-1.9322l0.97096-1.3446-9.824 2.6923 0.20128 1.0579-0.6779 1.2511 3.0788 0.28823 2.6005 0.28824s1.4428-0.86308 1.4428-0.57486c0 0.28823-0.7697 2.4959-0.7697 2.4959l-2.9805 0.19324c-0.19162-0.28824-1.7342 0.10141-1.7342 0.10141s-2.0241 1.2415-2.1191 0.96129c-0.09661-0.28822-4.0352 0.67309-4.0352 0.67309l-4.528 2.5989-1.7278 2.5957-0.19161 1.921 3.367-0.57162-1.9275 2.6005 2.2141-0.10141s2.6005 0 2.7921 0.3913c0.19484 0.38484 1.3445 0.19322 1.3445 0.38484 0 0.19484-22.898 9.0431-23.092 8.7564-0.19323-0.29467-3.557 1.5362-3.557 1.5362s4.4201-0.76807 4.7148-0.76807c0.28662 0 6.8258-1.5426 6.8258-1.5426l3.0804-0.86631s6.6406-1.9226 6.7292-2.2125c0.09822-0.29145 4.7196-2.6955 5.0078-2.6955 0.28984 0 1.8276-0.67147 1.9274-0.28501 0.09187 0.38324 6.6374-1.7278 6.6374-1.7278s2.3058-1.6408 2.1191-1.9291c-0.19968-0.28824-1.5426-1.0579-1.1578-1.1513 0.38323-0.0982 3.842-0.58292 3.842-0.58292s5.1994-2.1126 5.1044-1.8276c-0.09661 0.29144-5.2912 3.7583-5.2912 3.7583l7.4103-1.446 2.9854-1.2544s2.4991-1.1529 2.3075-0.86308c-0.19323 0.28822 2.8871 1.1513 2.8871 1.4395 0 0.28824 6.4426 1.2544 6.4426 1.2544l1.9258 2.8871-0.38967 3.7486-0.19 4.7196 3.462-0.38647-0.86147 3.0772 0.19806 5.1028s0.18518 1.826 0.18518 2.1142c0 0.28823-2.6939-0.57486-2.6939-0.57486s-0.38645 2.2108-0.0982 2.4975c0.2995 0.28823 3.4701 3.4636 3.4701 3.4636l-1.0595 1.3494-2.4105 5.9643-5.6761 6.5392-0.9581 3.5683-2.7921 3.074 0.48145 2.214s-0.76968 1.5426-0.57001 1.7326c0.18517 0.19 1.3429 10.679 1.3429 10.679l4.0433 2.4991 1.0547 1.9258 0.57806 7.8885 1.7278 3.5586-1.921 1.3478 2.2108 3.0723 0.86791 0.1014 1.7374 2.016-0.6779 2.6972 1.8244 1.4411 1.7358 2.6956 0.28983 1.3445 1.6376-1.6328-1.6376-3.367s-1.1545-2.5071-1.0579-3.0772c0.0965-0.57969-1.5362-4.9096-1.5362-4.9096s-1.5474-3.2736-1.3494-3.5602c0.18679-0.29145-1.161-2.2092-1.161-2.2092l0.6779-3.9435 2.7905 0.57647s0.48146 3.6488 0.48146 4.0401c0 0.38324 0.67468 2.6939 0.67468 2.6939l3.6536 5.0916-0.57324 2.6022 7.019 8.3684-0.0965 3.3702-1.0595 1.6312 0.57646 2.3139 5.8725 4.3283 0.95969-0.19 1.7294 1.7326 6.3475 3.177 3.177 0.7713 3.7583-1.1578 2.4025 1.1578 3.6568 4.2317 3.7518 0.9581 3.8436 1.3526h1.8373l0.48145 2.2076s1.731 2.2157 2.1158 2.5039c0.38164 0.28823 0.0966 2.7921 0.0966 2.7921l1.6328 0.85986 1.9258 2.0241 1.2495 1.1594 1.351 1.5362 0.86308-0.57646 1.7326 0.47823 2.4959 2.3139 1.636-0.96775-0.4702-1.8244 1.5265-1.5378h1.351l1.446 1.1513-0.0982 1.3478 1.731 2.7889 0.0982 7.7935-1.5394 2.5055-2.1207 1.4428-0.0902 2.3026-2.2173 0.86469-0.86469 3.0804-1.3494 2.6956 0.28822 2.3058 1.9275 1.7326-1.7358 1.8373-1.2463 1.8228 1.1449 3.6488s0.57485 1.8324 0.57485 1.6376c0-0.19162 1.8373 1.2576 1.8373 1.2576l3.3654 6.726 3.2656 4.7228s4.7518 9.576 4.8484 9.6517c1.4347 1.0547 11.904 8.5954 11.904 8.5954l1.7858 9.3635 0.52172 19.753 1.5362 5.6519-0.64731 11.418-0.50722 2.3058s2.0498 3.5908 2.0498 4.1093c0 0.51206 0.38324 4.9966 0.38324 4.9966l1.409 4.8758 1.6666-0.1256-1.0257-2.8211 1.2866 0.12883 0.89046 4.4861 0.12721 1.7922-1.0177-0.8969-0.90173 0.8969-0.64248 0.7729 1.2834 1.1594-0.63926 1.7841-0.25442 2.3155 1.7954 0.25763 1.2817 1.0241-1.2817 2.1802s7.9481 13.983 14.621 15.647c6.6728 1.6746 8.5954 2.1835 8.5954 2.1835l2.8276-1.541 0.88723-1.1513-5.8951-2.0515-4.4893-4.8822-0.90174-2.5603 1.4106-1.0225-0.25283-1.9291s0-1.409 0.50562-1.7922c0.51851-0.38324 1.5426-2.3091 1.5426-2.3091l-1.5426-0.7713-2.5619-2.5619 0.25603-2.958 1.5426-0.89047s0.12399-1.673-0.12883-2.0563c-0.26246-0.38001 0.38486-2.3107 0.7697-2.4363 0.38806-0.13204 1.4041-1.673 1.4041-1.673h-1.7874l-1.0241-0.38002-1.2882-2.0466v-1.5458l2.1803 0.64087 2.0595-0.38646 1.1529-1.6666s-0.38485-1.0241-0.51206-1.4074c-0.12882-0.38322 0.25603-2.0546 0.63928-2.1835 0.38322-0.12076 2.6907 0.12883 2.6907 0.12883l4.3637-1.1513s1.6698-2.9548 1.5426-3.4668c-0.12882-0.51205-0.12882-2.1803-0.12882-2.1803s0-1.1513-1.0241-1.2882c-1.0322-0.12398-1.0322-0.50239-1.2882-1.541-0.26086-1.0225-1.0322-2.177-1.0322-2.177l-1.2785 0.25763 1.1578-1.1513 2.5651 1.9178 3.8452 0.64893 2.9532-2.9548 2.0547-5.0046 0.8953-3.7212h1.921l2.0498-3.7196 0.77453-3.462-0.64088-4.2381 0.8969-1.5313 6.668-4.4909 5.0078-1.6698 1.6746-1.2882s2.557-3.4588 2.557-3.8436c0-0.38485 1.029-5.3911 1.029-5.3911s1.1513-5.8934 1.0193-6.2767c-0.12399-0.39129 0.26086-5.5199 0-5.6487-0.25764-0.12561 0.13203-1.5426 0.13203-1.5426l4.8758-6.924 2.3091-5.2655s1.6746-2.6907 1.4154-3.2028c-0.26085-0.51366-1.6682-4.8742-1.6682-4.8742zm50.732-187.8s0.77451-3.8533 0.19805-4.2381c-0.5845-0.38324 2.3091-2.6923 2.3091-2.6923s4.2268-1.9258 4.4201-2.4975c0.19162-0.58131-1.1529-0.39612-1.1529-0.39612l0.38164-2.8823 2.6987-0.96131s-1.5362-2.3123-1.9274-3.4684c-0.38001-1.1433 4.6214-1.7262 4.6214-1.7262l8.8514-4.0401-10.579 1.1529-0.39129-1.3429-11.164-2.5039-22.313 0.77451-2.4975 1.3462h-7.7082l-10.771 0.96293s-10.198 1.3429-10.776 1.7262c-0.57325 0.38807 1.1562 0.96453 1.1562 0.96453l-0.19161 1.3478-12.513 1.5426-0.76486 1.3462s1.3445 1.3446 1.5362 1.5378c0.1884 0.19162 5.3878 1.3445 5.3878 1.3445l6.1591 0.7697s3.4652 1.541 4.0352 2.1126c0.5829 0.57645 0.39613 2.3171 0.19967 3.2784-0.19967 0.96293-0.76969 1.1529-1.5378 2.3075-0.77292 1.1578 1.5378 0.57646 1.5378 0.57646l2.6955 1.3446s-0.76969 0-1.929 0.19968c-1.1594 0.19162-2.6955 0.57002-2.6955 0.57002l-0.19162 2.1239 3.8549-0.7681-0.39612 1.343-2.6891 0.57647-2.6891 3.2672-0.19484 6.1575 0.57485 5.1946 1.5394 4.2349 2.5039 0.38484 2.8872 1.7326 3.8533-0.19644 3.842-5.193 4.0385-3.8485 1.1561-2.1158 1.9291-1.1529 4.2268-0.95969 5.3911-1.1594s4.9966-3.272 5.5811-3.6568c0.57163-0.38324 14.426-4.6101 14.426-4.6101l3.0804 0.19001zm3.8549 14.041 5.3878-1.7294 1.148-2.1142-2.1093-1.7294-9.8192 1.1529-2.8855-1.7358-3.4588 1.9274s1.7294 0.76971 2.3058 1.1529c0.57647 0.38485 1.731-0.38322 1.731-0.38322v1.731s3.0788 1.7294 2.6891 2.3107c-0.38162 0.57486 5.011-0.5829 5.011-0.5829zm9.4891 26.231-1.0901 0.71171-0.32206 1.2222 0.96298 0.57484 1.541 0.32045 1.5973-0.38485 1.3558-0.76968 0.38009-0.38325 2.2462-0.13848 0.25599-0.95164 0.51848-0.96613v-2.7583l1.2174-0.70689-0.39131-1.7906-1.9194-0.44765-1.5377-0.25763-1.0242 0.31882-0.58773 0.83249s-0.94998 1.0273-0.7616 0.82927c0.19808-0.18517 0.70368-0.18517 0.5829 0.13365-0.13367 0.31882-0.65215 0.63926-0.65215 0.63926h-0.75675l-0.65545-0.38484-0.95648 0.12721-0.32359 0.57806 0.39285 0.89852-0.64895 0.64409 0.76973 0.64247 0.76644 0.1852-0.11913 0.90172-0.84055 0.38003zm7.6294-7.5633c0.45075 0.18678 0.63925 0.44926 0.57638 0.63765-0.0561 0.19968 0.96298 0.32526 0.96298 0.32526l0.83723-0.18999-0.5764 0.89689s0.12563 0.57808 0.31557 0.83571c0.19807 0.25603 0.84052 0 0.84052 0s1.541-0.25763 1.7342-0.19321c0.18685 0.0612-0.0693 0.64087-0.0693 0.64087l0.58289 0.89528s0.31402 1.285 0.37844 1.6666c0.0693 0.3913-0.51364 0.25442-0.51364 0.25442s-1.2077 0.19163-1.4766 0.13526c-0.25599-0.0644-0.76324 0.44282-1.2109 0.95326-0.45241 0.52333 0.0639 0.32527 0.0639 0.32527h0.95328s0.0759 0.63765 0.13521 0.90335c0.0583 0.25602-0.77128 0.50722-1.0224 0.44281-0.2561-0.0612-1.4138 0.51689-1.4138 0.51689l0.0594 0.96292 1.4154 0.12719 1.4138 0.19324 0.25599 0.44763s-0.90813 0.19324-1.1594 0c-0.25599-0.19161-1.0256 1.0257-1.0256 1.0257l-0.70368 0.7697-1.4814 1.1529 0.83249 0.38646 0.51528-0.64408 1.2898 0.0644 1.4008-0.19162s0.84218-1.0257 1.0354-1.0257c0.18684 0 2.1786-0.0612 2.1786-0.0612s1.6038-0.32205 1.7955-0.19323c0.19158 0.12882 1.4765 0.38807 1.6762 0.44925 0.18839 0.0628 2.6891-0.70528 2.6891-0.70528s0.51044-0.83249 0.63762-1.0885c0.13367-0.25604-0.70037-0.51206-0.89206-0.7053-0.19158-0.19321 0.63772-0.44763 1.0257-0.63926 0.38163-0.19161 0.51044-0.90011 0.70532-1.2173 0.1852-0.31722-0.25929-0.96775-0.32369-1.1545-0.0617-0.19807-0.96133-0.13849-1.2157-0.19807-0.2561-0.066-1.3461 0.0595-1.3461 0.0595l0.0583-1.2818s-3.0144-4.1029-2.95-4.2945c0.0639-0.18679-0.70523-1.4106-1.0257-1.4701-0.3204-0.0644-0.70687-0.3301-1.0917-0.84216-0.38162-0.50884 0.51364-1.1545 0.51364-1.1545s1.0869-1.1529 1.2173-1.4073c0.12883-0.25764-0.13201-1.0257-0.3204-1.0901-0.19488-0.0628-2.4331 0.0644-2.4331 0.0644s-0.63927-0.51205-0.57969-0.70367c0.066-0.20127 0.70696-0.26086 0.90175-0.26086 0.182 0 1.3446-2.2398 1.6006-2.3042 0.25445-0.0692-0.19489-0.64086-0.19489-0.64086l-0.8936 0.37357-0.83415 1.227s-0.77612 0.19161-1.0901 0c-0.31721-0.19323-0.96451 0-1.2205-0.0644-0.25599-0.0725-0.84219 0.7697-0.84219 0.7697s-0.88887 0.9613-1.1481 1.0241c-0.25599 0.0644-1.1545 1.0901-1.0901 1.1529 0.0693 0.0644 0.12717 0.90172 0.12717 0.90172s-0.19158 0.31561-0.51198 0.38003c-0.31887 0.0628 0.25434 1.1529 0.25434 1.1529l0.77612 0.3897s-0.45562 0.44441-0.71006 0.38483c-0.26085-0.0708-0.83735 0.64409-0.38966 0.83249zm301.71-13.916c0-0.0532-0.0287-0.0532-0.0837-0.021 0.0561 0.0418 0.0837 0.0564 0.0837 0.021zm-78.75 113.21c0.12882-0.19163 1.921-1.0901 1.9838-1.5442 0.0671-0.43959 1.3478 4.1769 1.3478 4.1769l0.90494 3.2044s0.69883 2.3059 0.95647 2.7567c0.25765 0.45248 0.63607 3.4008 0.63607 3.6584 0 0.25442 0.84373 1.9806 0.45573 2.177-0.39296 0.19162-1.0257 0.0628-0.90341 0.32206 0.13532 0.25279 0.44603 1.6666 0.44603 1.9323 0 0.25281-0.18838 1.979-0.31071 2.301-0.13532 0.32205-0.19169 1.1562-0.19169 1.5346 0 0.38807 0.24475 1.0998 0.24475 1.285 0 0.19644 0.19809 0.51528 0.19809 0.51528s0.26084 0.13203 0.38327-0.19323c0.13201-0.32205 1.0917-0.44765 1.2254-0.32205 0.12398 0.13205 1.5974 1.8566 1.7294 2.3767 0.12562 0.50883 1.7294 3.016 1.9178 3.2704 0.19478 0.25765 1.0321 1.0934 0.5088 1.7954-0.5088 0.7053-0.5088 0.8325-0.43954 1.2157 0.0628 0.38323 0.25764 1.7922 0.8936 2.5715 0.64895 0.76486 1.987 2.2398 1.987 2.2398s1.673 1.1626 1.9307 1.483c0.25115 0.31722 2.1127 0.50883 2.3106 1.2769 0.18366 0.76808 0.70048 1.5442 0.70048 1.5442s1.4718 0.44442 1.4718 0.64247c0-0.15941-0.0165-2.3992-0.18674-2.7052-0.1885-0.31238-1.7262-3.4588-1.926-3.6488-0.18673-0.19483-0.50714-0.64087-0.31555-1.4669 0.19158-0.84376-0.13047-3.0256-0.13047-3.0256l-3.0143-3.594s-2.631-2.5667-2.6939-2.4347c-0.0628 0.1256-2.0562-0.77129-1.979-1.541 0.0518-0.76808-0.20765-2.6891-0.7825-3.14-0.57001-0.44604-1.0836-1.1578-1.533-1.4122-0.44603-0.26247-0.12552-2.6971 0-3.0176 0.12397-0.32043 1.1514-3.1383 1.0918-3.3268-0.0705-0.19162 0.25435-2.8211 0.25435-2.8211s0.83095-1.1014 1.0225-0.71334c0.19807 0.38323 1.0918 0 0.83414 1.1545-0.25444 1.1626-0.12243 1.8679-0.12243 1.8679l2.3026-0.45407 1.6086 1.6714 1.1578 1.5345 1.4733 0.90013s0.38327 1.7342 0.57485 1.855c0.19644 0.13364 1.1562-0.38324 1.1562-0.38324l1.475 1.0338s-0.83733 1.5346-0.63772 1.9258c0.18839 0.38322 0.37524 1.7262 0.37524 1.7262l1.417-1.1562 1.8002-1.3462 0.89692-1.2834 0.32039-0.9597 2.5603-1.0966 2.4396-2.243-0.0594-4.7486-0.7714-2.9467-2.1802-3.0804-4.2381-4.2301-1.6602-2.0514s-1.1578-1.475-1.0982-1.8566c0.066-0.39129 0.31557-2.4379 0.31557-2.4379l1.1626-1.0933 2.2479-2.2447s1.5378-1.0257 1.7954-0.77131c0.25446 0.25765 2.3059 0.19324 2.372 0.38325 0.0594 0.19321 0.32844 0.13203 0.18839 0.51205-0.12882 0.38324 0.0628 2.1191 0.25434 2.3123 0.19808 0.19323 0.64896 0.38002 0.84053 0.44765 0.18035 0.0612 0.83096-0.19483 0.89692-0.57807 0.066-0.38162-0.066-1.731 0-2.053 0.066-0.31883 0.19169-0.31883 0.38646-0.38324 0.19169-0.0644 1.1482 0 1.1482 0l1.0321-1.0257 1.7922 0.64087 1.9243-1.6714s1.0289-0.18679 1.1577-0.0612c0.12553 0.13366 1.8002-1.2801 1.8002-1.2801l1.7294-0.38647 1.5345-0.64247s0.64091-1.4766 0.64091-1.2866c0 0.19484 3.7245-3.7148 3.7245-3.7148l1.2173-3.016 1.4718-4.2961 0.89691-5.3299 0.0671-1.5362s-1.4139 1.1513-1.6022 1.2205c-0.19488 0.0595-1.3461-0.25442-1.3461-0.25442l0.8936-1.607s0.51529-1.1529 0.25765-1.2174c-0.25765-0.066-1.5409-0.44764-1.5409-0.44764s0.55228-1.2624 0.63441-1.3445c-0.11758 0-2.2318-2.1835-2.2318-2.1835s-2.8259-4.0401-2.9548-3.7228c-0.12882 0.32205-2.3059-1.5362-2.5055-1.5362-0.18355 0-0.31567 0.0628-0.44119-0.31883-0.12882-0.38646 1.9242-3.0804 1.987-3.28 0.0628-0.18518 1.8549-2.1786 2.1835-2.1126 0.31236 0.0644 1.4057 0.12721 1.4057 0.12721s-0.26249-1.2801-0.45088-1.3445c-0.18673-0.0628-4.5473-0.44765-4.5473-0.44765s-1.7294 1.0257-1.7954 1.2818c-0.0738 0.25602-1.4718 0.13044-1.4718 0.13044l-0.19654-1.4766-1.7406-0.83251-1.9822-0.70527 0.0671-1.3478s1.2126-0.44603 1.4073-0.58451c0.19159-0.12882 1.7294-0.89046 1.855-1.5378 0.12882-0.64248 1.1577-1.6666 1.2898-1.8598 0.12562-0.19162 0.95647-0.89691 1.1449-0.76808 0.19807 0.1272 1.4234 1.0257 1.2866 1.0901-0.12078 0.0628-0.95482 1.4138-0.77127 1.7922 0.19962 0.39129 1.0965 1.5474 0.971 1.7358-0.12563 0.19646-0.51528 0.90174-0.51528 0.90174l0.96286-0.12882s1.2174-0.96132 1.1514-1.0885c-0.0628-0.13848 0.96286-1.2206 1.1546-1.2206 0.19158 0 2.3138-0.45568 2.3687-0.26406 0.0694 0.19484 2.1867 0.70528 2.1867 0.70528l0.38647 3.8549s5.1317 1.2174 5.1317 1.5394c0 0.31882-0.57957 0.82926-0.57957 0.82926s-0.0639 1.0273 0.19322 1.1594c0.25435 0.12239 1.0868 0.82928 1.2833 1.0901 0.19973 0.25603 0.5797 1.9918 0.5797 1.9918s-0.70202 1.5362-0.5797 1.7294c0.12563 0.19484 1.4106 1.3462 1.4106 1.3462l3.6584-1.4106s1.9838-1.5378 1.9838-1.7294c0-0.19646-2.1126-5.3266-2.1126-5.3266l-4.8791-3.3428-2.1094-1.7294 2.9467-2.8823-0.25765-2.4991s0.64092-2.4459 0.76974-2.4459c0.13521 0 1.9258-1.2785 1.9258-1.2785l2.0498 1.4186 3.0804-1.9291 1.7326-6.2155 0.0628-8.0882-2.7583-4.937s-1.2802-3.0144-1.4798-3.0144c-0.19158 0-2.0466-2.892-2.0466-2.892l-4.2977-1.9194-1.8647-0.0644-1.1497 1.921-1.214-1.4734-1.6683-2.9467 0.18839 1.7938s0.25765 1.1529 0.18035 1.409c-0.0485 0.25603-1.2752-1.6038-1.2752-1.6038s-2.0515-0.38163-2.1786-0.38163c-0.12398 0-1.1546-0.5829-1.1546-0.5829s3.0256-3.5184 2.7632-3.3928c-0.25445 0.12561 0.51199-4.4893 0.51199-4.4893s1.0886-2.1851 1.1514-2.0563c0.066 0.13043 4.2269-0.44764 4.2269-0.44764s7.6341-0.12398 7.5713 0c-0.0628 0.13365 3.7244-0.2512 3.7244-0.2512s0.12243 1.0901 0.45406 1.219c0.31248 0.1256 3.3896-0.0692 3.3896-0.0692l2.2464-0.51045 1.0853-0.13204s-1.343-1.3445-1.5378-1.3445c-0.19158 0-1.4718-0.5813-1.5974-0.64571-0.13356-0.0644 0.95978-2.4959 0.89371-2.8823-0.0594-0.38645-0.18839-1.731 0.32041-1.6022 0.51209 0.13041 3.9838 0.13041 3.9838 0.13041s1.404 1.3413 1.404 1.7278c0 0.38323 2.2464 1.7294 2.2464 1.7294s1.2222-1.3462 1.3461-1.6006c0.1079-0.2045 0.75685-0.9275 1.0048-1.0466-0.30917-0.2528-1.3172-1.5812-1.3172-1.5812s1.0853-1.2222 1.6602-0.5813c0.58453 0.64249 1.8614 3.3992 1.8614 3.3992s-1.1578 2.8839-1.1578 3.1448c0 0.25121-0.44603 2.8888-0.44603 3.0836 0 0.19-1.285 1.3429-1.285 1.3429s-0.63441 0-0.63441 0.32043c0 0.31883 0.88887 2.0482 0.88887 2.0482s0.33175 1.9918 0.5121 2.1126c0.19642 0.14008 6.6132 5.7115 6.6132 5.7115l4.1657 4.1126 2.7003 2.2398 0.76489-0.19s0.64576-3.14 0.38811-3.0192c-0.25928 0.13366-1.2866-0.95647-1.153-1.1449 0.12409-0.2045 0.38008-1.103 0.6973-1.037 0.32689 0.0692 1.2866 0.2544 1.2866 0.2544l-1.9242-2.4347 0.63762-1.3429 1.4814 0.44764-1.9904-2.1142-1.0256-2.0563s1.09 0.25442 1.1626 0.44443c0.0561 0.20449 1.2157-0.82284 0.82919-0.89207-0.38801-0.0708-2.6955-0.90173-2.6955-1.095 0-0.19002-1.3429-0.51045-1.417-0.76968-0.0583-0.25442 0.2593-1.2801 0.0738-1.2801-0.19159 0-2.1803-0.8969-2.1803-0.8969l-1.2914 0.18517-0.70522-1.4025 0.38316-1.0901s-1.2285-1.7455-1.3396-1.8566c0.098 0.0885 2.7406-0.92105 2.9917-1.0289-0.0165 0.0419 1.2496-0.10471 1.3607 0.37679 0.13367 0.5169 0.70532 1.0306 0.70532 1.0306l1.3542-1.2818s0.95967-0.83733 1.3445-0.64732c0.38492 0.19162 2.2447 0.58453 2.5072 0.83571 0.22868 0.2351 1.3961 0.56681 1.5764 0.77774-0.0176-0.2689 0.0232-1.1014 0.0232-1.1014l0.055-0.70366 1.8083-2.4347s0.69719-1.0241 1.3461-1.1594c0.64092-0.12236 1.9838-1.2769 2.2398-1.0821 0.25764 0.1884 2.3848 0.12882 2.6407 0.70529 0.25126 0.57485 1.4058-0.19324 1.4058-0.19324s-1.0966-1.3445-1.1546-1.2205c-0.0594 0.1272-3.5957-1.4154-3.7857-1.3446-0.19478 0.058-2.5602-1.4138-2.5602-1.4138s-1.2254-0.44926-1.2834-0.44926c-0.0628 0 0.95494-0.51367 1.3381-0.64249 0.38812-0.1256 1.2882-1.3445 1.2882-1.3445s-0.44603-0.83249-0.70687-1.0901c-0.25929-0.25441 1.4122-0.0628 1.987 0.19324 0.57485 0.25602 3.47 0.38322 3.4008 0.57646-0.0705 0.19001 1.9242 0.19001 1.8582 0.70528-0.066 0.51366 0.70522 0.63765 0.96287 0.8969 0.25764 0.25763 2.6939 0.64087 2.8259 0.70529 0.11758 0.0628 2.5555-0.19161 2.5555 0.19 0 0.38645 0.77294-0.0612 0.77294-0.0612s-0.38328-1.8582-0.8325-1.731c-0.45418 0.1272-1.2914-0.51368-0.70852-0.63928 0.57969-0.1272 1.6698-0.76968 1.351-0.89849-0.32524-0.12561-0.83568-0.7697-1.6054-1.0934-0.76643-0.32044-3.8468-1.0193-4.1672-0.89851-0.31722 0.13365-5.1335-1.0289-5.4442-1.0289-0.32855 0-1.9951-0.44282-1.9951-0.44282l-16.42-4.4265s-10.198-1.0885-10.138-1.2866c0.0694-0.18678-5.8983-0.70366-5.8983-0.70366l3.5328 2.9516-3.5328-0.51045s-4.3573-0.70528-4.4861-0.89851c-0.13213-0.19001-12.193-0.25603-12.193-0.25603l-1.7922-1.9323s-5.776-0.95326-5.9675-1.0177c-0.1917-0.0708-7.3781 0-7.3781 0l-6.0175-0.89851s-4.0464-1.7358-4.945-1.541c-0.89692 0.19321-9.7483-0.57646-10.264-0.83571-0.5089-0.25764-4.032 0.25763-4.032 0.25763l2.871 2.1819-4.7372-0.13204-4.747-0.066-1.8002-0.89528 0.0738 2.6311s-1.351 0.2496-1.351-0.0692c0-0.32045-4.1721-1.7922-4.1721-1.7922s-3.4685-3.0755-3.5264-2.8823c-0.066 0.19-5.6326-1.0917-5.6326-1.0917l-3.4749-0.63765s-1.0257 0.44602-0.9001 0.70366c0.12871 0.25604 1.475 1.1529 1.2833 1.3446-0.19157 0.19001-2.3026-0.19162-2.3026-0.19162l-5.4538-0.19162-0.96948-1.0257-7.1832 0.0644s-2.6923-2.1191-2.76-1.9967c-0.0583 0.12882-2.0498 0.46052-2.0498 0.46052l-1.541 1.6634-4.3573 0.32205 4.689-2.5039 1.6666-1.2157c0.12067-0.32849-1.1659-2.2479-1.4138-1.9935-0.2528 0.25925-3.9177-0.89689-4.1093-0.89689-0.19158 0-5.7082-0.12882-5.7082-0.12882-0.38966-0.0628-2.1159 0-2.1159 0s-0.64091-1.7922-0.96286-1.7294c-0.3172 0.0644-4.4926-0.0644-4.4926-0.0644s-3.7164 0.76969-3.8565 1.1529c-0.1143 0.38805 0.7149 0.76968 0.7149 0.76968s-1.987 1.475-2.1818 1.3462c-0.18839-0.12882-5.9676-0.12882-5.9676-0.12882s-8.0157 1.7294-8.0157 1.5362c0-0.16424-2.3993 0.85987-2.9581 1.1062 0.4718 0.41382 2.1545 1.3719 1.9323 1.5973-0.25444 0.25442-5.6471 0.51205-5.8387 0.12559-0.17232-0.35262-2.3043 0.46053-2.6424 0.51207 0.38801 0.16101 2.9129 2.1352 3.0884 2.4363 0.19158 0.31883 0.65534 0.76969 1.2834 0.51207 0.64081-0.25604 1.2173-0.51207 1.3493-0.25604 0.12881 0.25604 0 0.83249 0 0.83249s-1.607 0.32205-1.7922 0.32205c-0.18355 0-2.1191-1.0917-2.3123-1.1545-0.18839-0.0644-2.7552-0.64086-3.0787-0.64086-0.32857 0-1.7374 0.19161-1.7374 0.19161s-1.0886 0.96291-0.83415 1.0917c0.26568 0.1272 0.90494 1.3446 1.0998 1.2206 0.18839-0.13366 1.3461-0.64571 1.4057-0.066 0.066 0.57003-1.3429 1.0273-1.3429 1.0273s-1.9323-0.77615-1.9951-0.96294c-0.0628-0.19967-0.96285-1.285-0.96285-1.863 0-0.57806-1.1514-2.6279-1.4718-2.3091-0.31721 0.32204-1.4718 0.44926-1.4718 0.44926l1.4122 1.2818s1.2141 1.0225 0.8936 1.0901c-0.3172 0.0644-1.2173 0.57486-1.2769 0.76969-0.066 0.19163-0.77128 1.2785 0.0594 1.2785 0.83405 0 2.1818 1.2882 2.1818 1.2882s0.0628 1.7342 0.1884 1.9902c0.12882 0.25603 2.1127 1.6006 2.1127 1.6006s1.2285-0.7697 1.4089-0.9597c0.20293-0.19323 1.8711-0.51206 2.2544-0.12882 0.38483 0.38323-0.77293 1.3445-1.0901 1.1545-0.3237-0.19483-1.0257-0.38646-1.3461-0.25925l-0.3269 0.12722s-0.44603 0.96291 0 1.1545c0.45242 0.19484 1.037 0.83572 0.96936 1.1545-0.0693 0.31883-1.2834 2.5023-1.2834 2.5023l-1.8002 0.38324c-0.64092-0.12721-1.6634-0.57646-1.6634-0.57646l1.9225-1.4718 0.25765-1.9919s0.066-0.12722-0.44604-0.57645c-0.52333-0.44605-2.3138-2.0482-2.3138-2.0482s-1.0886-1.7986-1.0886-1.9902c0-0.20128-0.51198-1.1594-0.51198-1.1594s-1.2206-0.8325-1.4783-0.89047c-0.25116-0.066-0.25116-0.77451-0.0561-1.1578 0.1885-0.38645-0.19478-2.1142-0.26084-1.8598-0.0738 0.25763-2.2494-0.0628-2.5087-0.12721-0.25765-0.0628-0.83086-0.76969-0.83086-0.76969s-0.3172-1.0853-0.83899-0.63925c-0.50714 0.44763-1.404 0.63925-1.404 0.63925l-0.8969 2.3703 0.25433 0.96291-1.7954 1.2222s1.5152 1.3027 1.6553 1.4025c-0.10901-0.0532 0.0804 1.293 0.14005 1.6118 0.0583 0.32044 2.7551 1.0273 2.7551 1.0273s1.4122 0.57484 1.5378 1.1513c0.13202 0.57645-0.38646 1.2834-0.38646 1.2834l-2.752-1.2834-6.0996-1.921s-5.8934-0.38324-5.7694-0.57486c0.13366-0.19162-2.2479-1.5426-2.2479-1.5426l-1.3478 0.70368s1.2802 0.90334 1.4798 0.95969c0.1917 0.0708 2.1159 0.77613 2.1159 0.77613s0.57969 0.32043 0.70532 0.83411c0.13366 0.51044-1.0886 1.1513-1.0886 1.1513s-0.83084-0.8969-0.83084-1.0869c0-0.19324-0.19809-0.96293-0.45243-0.83572-0.25764 0.12881-2.6295 1.3478-2.6295 1.3478s-2.6939 0.0628-3.0176 0.31883c-0.3204 0.25603-2.0515 1.4782-2.1803 1.1545-0.13201-0.32044 0.25445-1.6666 0.19653-1.9226-0.0671-0.25602-2.6972 0.45088-2.6972 0.45088s-3.3943 1.0869-3.528 1.4057c-0.12563 0.32528-1.6635 0.64249-1.9275 0.70689-0.25445 0.0644-0.57167 0.0644-0.57167 0.0644s-1.3429 0.83732-1.0917 1.2801c0.25765 0.45085-1.8599 0.70367-1.8599 0.70367s-1.3429-0.83088-1.4057-1.0177c-0.0617-0.17551 1.4572-1.1964 1.6022-1.2833-0.19654 0.12721-1.6022-1.6682-1.7971-1.7326-0.169-0.0515-3.6551 0.0387-4.2768 0.0129 0.40585 0.14814 1.6473 1.3494 1.6473 1.5265 0 0.19324 0.19487 2.0546 0.19487 2.0546s1.0177 0.64571 1.2141 0.57002c0.19159-0.058-0.19642 1.095-0.19642 1.095l-1.7214-0.19161s-0.71491-1.0322-1.2914-0.44926c-0.57804 0.5829-2.4975 2.0562-2.623 1.8646-0.13212-0.19321-1.2206 0.19161-1.1562 0.57647 0.066 0.38645 0.89856 1.2157 0.89856 1.2157s-1.2158 1.0257-1.0966 0.6441c0.13367-0.38968-3.3283-1.2834-3.5875-1.219-0.26569 0.0644-1.7374 0.51367-1.7374 0.51367l0.63761 1.0885s1.929 0.12722 2.1818 0.51206c0.26569 0.38324-0.44118 1.1529-0.644 1.1529-0.18035 0-4.6729-2.1158-4.6729-2.1158s-1.4783-1.5362-1.0338-1.9838c0.46046-0.44925 0.84054-1.1529 0-1.1529-0.82931 0-1.7262-0.64569-1.7841-0.90172-0.0671-0.25603 5.0578 0.51849 5.0578 0.51849l2.958 0.3156s-0.38329 0.38968 0.77127 0c1.1497-0.38484 3.0755-1.351 3.3332-1.4057 0.25764-0.0757 0.57165-1.2914 0.57165-1.2914l-0.38326-1.0885-11.025-2.6279s-3.6617-1.0901-3.7245-1.2817c-0.0628-0.19161-3.272-0.51688-3.272-0.51688l-1.5427 0.19805 1.2914-1.607s-5.0111-1.4798-5.1334-1.2882c-0.13532 0.19162-2.1835 1.1658-2.1835 1.1658l-3.8468-0.64571-4.9435 1.1529-5.0046 1.2222-7.2429 3.0756 2.6939 0.25603-1.161 1.9854-3.2077 2.3815-1.789 2.9451-0.25765 1.6038-1.7293 1.8566s-1.2174-0.63926-1.4734-0.89207c-0.25445-0.26247-4.4941 1.2109-4.4941 1.2109l-2.5619 2.4395s-0.64091 1.2222-0.76973 1.5426c-0.13356 0.32366 0.19168 3.7229 0.19168 3.7229s1.5394 0 1.0885 0.44763c-0.45086 0.44605-0.38646 2.5039-0.38646 2.5039l1.7987 1.2109s2.3702 0.77612 2.7003 0.7085c0.30763-0.0628 1.4702-0.8325 1.6666-0.96132 0.1787-0.12558 1.5989-1.5362 2.0466-1.4782 0.44758 0.0708 1.6006-1.2206 1.7342-0.76325 0.12563 0.44926 0.38492 2.0514 0.63772 2.4363 0.25599 0.38485 1.1529 1.0901 1.5362 1.9838 0.38162 0.90014 0.90813 1.8019 0.77282 1.9854-0.13356 0.19966-1.0289 1.0901-1.0289 1.0901s-1.9178 0.25604-2.1786 0.52172c-0.25434 0.25281-0.57486 0.38002-0.76808 0.25281-0.19808-0.12882 0.63926-1.0306 0.83249-1.2769 0.19488-0.26247-0.44757-1.2898-0.70522-1.227-0.26094 0.0677-0.51045-0.57646-0.26094-0.76807 0.26094-0.19323 0.19653-1.4106 0.19653-1.4106s-0.38492-0.19485-0.57485-0.12722c-0.19324 0.0644-2.4379 0.9597-2.4379 0.9597s-1.2173 1.2834-1.2817 1.5378c-0.0693 0.26408-0.58289 1.607-0.25445 2.5651 0.31886 0.96775 1.0869 2.5071 1.0869 2.5071s0.82601 0.57324 0.51199 0.83251c-0.31557 0.25442-0.96605 1.2173-0.96605 1.2173l-1.5313 0.0628s-2.7583 0.32689-3.0193 0.44926c-0.2528 0.13203-2.9434 0.95971-2.8227 1.2206 0.13531 0.25602-0.5797 3.0176-0.5797 3.0176-0.12397 0.0644-2.8194 1.987-3.1383 1.987-0.32039 0-2.3075 0.51044-2.3075 0.51044s-0.89855 2.3735-0.95966 2.243c-0.0639-0.13041-3.0225 1.4106-3.0225 1.4106s-2.2414-0.64249-2.3058-0.90173c-0.0639-0.25442-0.83568-0.83088-0.8969-0.63765-0.0671 0.19484 0.76643 2.1899 0.76643 2.5748 0 0.37519 0.13047 1.1465-0.12717 0.89529-0.25765-0.26247-1.5394-0.63927-1.7938-0.76968-0.26249-0.12561-2.4395-0.0677-2.4395-0.0677h-0.89856s-1.0933 0.96614-1.1578 0.7713c-0.0594-0.19483-0.12398 0.83732-0.12398 0.83732l0.63761 0.63766 2.3156 0.96131 2.1786 1.3478 0.83405 2.0498 0.95977 1.9242s-0.64257 3.9757-0.7617 4.1737c-0.14171 0.1884-1.483 1.0917-1.483 1.0917l-4.1722-0.0708s-2.053-0.44604-2.2446-0.51044c-0.19169-0.0677-3.0804 0.38322-3.1368 0.1272-0.0639-0.25925-0.96617-0.19484-0.96617-0.19484l-0.45408-0.51044h-1.1529l-0.96133 1.0869-1.4105 0.0708v1.1481s0.57638 2.636 0.51198 2.4443c-0.0639-0.19807-0.25434 3.0739-0.25434 3.0739s-1.3864 2.7873-1.5266 2.9999c0.0309 0.0836-0.0759 1.8759-0.0759 1.8759l0.8358 1.3494 0.12717 1.599s-0.64246 1.4734-0.38482 1.3462c0.25919-0.13042 2.3138 0.0628 2.3702-0.19162 0.0639-0.25441 1.2866-0.83249 1.4734-0.38645 0.18994 0.44765 0.90164 0 1.1014 0.77614 0.1787 0.76806 0.89041 1.8566 0.95966 2.0466 0.0628 0.19966 0.57485 0.38484 0.57485 0.38484l0.1917 0.5185-0.38977 0.32204-1.5941 3.586-3.5361 2.5039-2.1126 1.3429-0.57809 1.6086-0.89529 1.0257-0.25764 1.987s0.25764 2.4975 0.124 2.6295c-0.124 0.12722-4.8082 4.5538-4.8082 4.5538l-2.5651 0.57645-1.417 2.4395s-1.9226 1.7906-2.0466 2.1191c-0.13365 0.3156-1.0933 1.5394-1.0933 1.5394s0.0644 2.5603 0 2.1786c-0.066-0.38485-2.7551 2.1126-2.7551 2.1126s-0.51205 2.9516-0.63926 3.0836c-0.12721 0.12236-1.409 2.3702-1.607 2.3058-0.19163-0.066-0.38324 1.5378-0.38324 1.7954 0 0.25442 0.63766 1.0225 0.63766 1.0225s0.90494 1.739 0.96613 1.5458c0.0612-0.19806 0.0612 0.57967 0.0612 0.57967l-0.89367 0.89207s0.96291 1.4798 0.96291 1.6714v3.9708l-1.0305 2.1851-0.51207 2.8243-1.5442 1.2157 0.0644 0.7713 1.3494 1.0869 0.19805 1.2157-0.39129 1.351v1.3526l0.96775 2.2447s0.96131 0.76808 1.1529 0.57486c0.19163-0.19323 2.1094 1.2173 2.3703 1.6634 0.25764 0.44926 2.6263 3.272 2.6263 3.404 0 0.12559 0.38645 0.76807 0.38645 0.76807l1.1529 3.9129s5.5811 4.6149 5.7099 4.4249c0.12883-0.18679 5.9659 4.1657 5.9659 4.1657s4.689-2.3026 4.6262-2.1078c-0.0694 0.1884 3.9691-0.19483 3.9691-0.19483l2.4411 0.38323 1.789 0.83411 6.5488-3.0095 1.2834-0.97259 5.0626-0.18516 2.4411 0.95165s1.6022 2.3815 1.6022 2.7664c0 0.38484 0.96286 2.1126 1.0933 1.855 0.12398-0.24959 5.7082-0.50722 5.9047-0.44603 0.18519 0.0628 2.6246 2.4427 2.6246 2.4427l-0.12717 2.2479-0.38812 3.9708-0.77127 1.9258-0.76159 1.7342-0.19159 1.219s5.763 8.4666 5.763 8.5294 1.4766 3.5232 1.4766 3.5232l1.739 4.4314 1.0274 2.4958-1.0274 1.4106 1.6683 4.3058-0.5797 4.2269-2.5023 5.4571-1.0885 4.0385 0.32039 5.3878 3.0048 6.2219 3.148 7.1205 0.3204 7.829 2.5072 4.6761 1.8002 3.7808 1.7294 4.1109 0.8936 1.219s0.13367 2.053-0.0693 2.053c-0.1884 0-1.1464 0.0692-0.88877 0.44602 0.25434 0.38324 1.7261 2.9516 1.7261 2.9516l0.0628 1.1578 2.0498 1.1481 1.8084-0.83088s1.7922-0.3172 1.987-0.25441c0.1884 0.0628 2.6859-0.83732 2.6859-0.83732l3.85 0.57807 2.6956-1.409 2.9516-0.19162s5.0658-4.9418 5.0658-4.813c0 0.12881 4.6728-6.0255 4.6728-6.0255l2.3847-2.0579 1.3414-4.0385-0.19004-2.6231s0.45088-1.3574 0.89526-1.6118c0.45417-0.25442 4.8098-2.8195 4.8098-2.8195l0.9066-4.2365-0.84054-4.1721s-0.64411-1.5957-0.64411-1.855c0-0.25281 0.44923-1.4154 0.44923-1.4154l4.2381-3.7824s0.95967-1.219 1.409-1.6666c0.45088-0.44764 4.42-2.177 4.42-2.177l2.7004-2.6247 0.44924-9.6904s-0.96287-3.6005-1.0257-3.9145c-0.0628-0.32847-1.9226-6.4136-1.9226-6.6744 0-0.2528-0.64081-3.9773-0.71326-4.3026-0.0517-0.30915 1.4718-4.6101 1.4718-4.6101l2.1239-4.1753 8.663-9.94 4.879-3.9064 7.3732-12.065 2.3751-5.5827 0.50725-5.6374-1.5345-0.25763s-0.77293 0.8969-0.96462 1.0225c-0.19313 0.13203-4.6181 0.38968-4.6181 0.38968l-5.3895 1.5974-2.6295 0.96292-2.5651-2.6891 0.38328-1.9226-3.4588-4.1109-4.8774-4.8661s-2.4458-1.8646-2.3138-2.0514c0.13202-0.19805-1.351-4.6874-1.351-4.5586 0 0.12883-2.4347-2.2414-2.4347-2.2414l-0.0628-4.3025-2.6295-4.2913-2.8807-5.2654s-2.4428-6.0319-2.7004-6.3524c-0.25115-0.31883-1.2141-1.9194-0.89691-1.8566 0.32052 0.066 2.6295-0.25603 2.6295-0.25603s4.2945 5.0706 4.2945 5.3266c0 0.25603 2.5716 4.5489 2.5716 4.5489s1.921 2.6972 1.921 2.4991c0-0.18196 0.44922 2.5023 0.38326 2.7004-0.0628 0.19322 1.1546 3.1448 1.1546 3.1448l3.6584 3.2736 0.7681 2.3687 3.3347 3.6552 0.64576 2.3123-2.2495-2.0595s-0.70522 1.1578-0.44922 1.3558c0.25444 0.18678 2.5007 2.5619 2.5007 2.5619l1.0997 3.2672 0.83415 3.0836 1.2141 1.0257 3.5957-0.70366 0.63607-1.417h3.5296l1.5377-1.1513 1.9178-0.25764s1.4783-1.4766 1.6054-1.541c0.13202-0.0644 5.8403-2.5603 5.8403-2.5603s0.12409-1.8679 0.38328-1.8679c0.25764 0 5.9707-1.7954 5.9707-1.7954l0.57486-2.1786 2.0466-0.12882 0.57804-1.4718 1.9887-1.2173 0.24961-3.2092 1.4798 0.44442 0.45242-1.0917-0.51198-0.69723 2.2462-3.2704 0.0628-1.161-2.1818-1.987-1.0225-1.0885s-3.4668-0.38967-3.5989-0.6457c-0.12563-0.25765-1.4718-3.338-1.4718-3.338 0-0.95648 0.0628-2.6939-0.13202-2.5619-0.18518 0.12721-1.277 1.3445-1.277 1.3445l-3.9692 3.6585-3.4717 0.8969s-1.1497-0.32043-1.2173-0.51045c-0.0628-0.19322-0.1917-3.1464-0.1917-3.1464s-1.4813-1.731-1.5394-1.9854c-0.0628-0.25763-1.1578 2.2479-1.1578 2.2479s-1.6682-2.2479-1.4798-2.3187c0.1917-0.0595-0.76808-2.2414-0.76808-2.2414l-3.3299-3.8436-0.1917-1.9919s1.6038-1.7358 1.8582-1.8002c0.25444-0.0628 2.5634-0.38162 2.8227 0.4557 0.25764 0.82604 2.1818 3.6584 2.1818 4.0417 0 0.38323 2.9452 2.9467 3.2704 2.8823 0.31557-0.0628 1.4669 0.57646 1.8582 0.83408 0.38316 0.25603 1.148 0.70529 1.4718 1.0306 0.3204 0.31399 1.1546 0.1272 1.1546 0.1272l2.1174-0.32365s1.7294-1.6682 1.7987-1.3462c0.0561 0.32687 2.0466 0.45408 1.7922 0.89689-0.25765 0.45088 0.0705 1.7374 0.25445 2.1207 0.19962 0.38807 8.8514 1.7342 8.8514 1.7342l3.9837 0.51205s4.2237-0.38807 4.4813-0.38807c0.25446 0 2.958 0.26247 3.2124 0.1884 0.25114-0.0564 4.1013 4.1721 4.1013 4.1721l3.5924 1.8035 0.82931-0.0677-2.0418 0.90012s0.69564 1.6038 0.69564 1.7938c0 0.19322 3.5957 2.7599 3.5957 2.7599s1.2801-0.83893 1.4718-0.83893c0.19642 0 1.0933-0.31883 1.1593-0.76807 0.0628-0.44765-0.19642-1.7278 0.12563-1.8566 0.3269-0.12882 0.76644-0.51689 0.84219 0.0644 0.0561 0.57325 0.83889 6.0899 0.70523 6.1495-0.14007 0.0757 1.0886 4.1737 1.0886 4.3654 0 0.19322 1.6038 5.1994 1.6633 5.3911 0.066 0.19 2.6923 5.8339 2.884 6.0271 0.18838 0.19322 2.7599 6.8596 2.7599 6.8596s1.4783 2.7599 1.4122 3.2124c-0.0628 0.44926 0.5153 2.6279 0.90176 2.8856 0.38317 0.25603 2.111 0.89851 2.111 0.89851s0.95967-0.83893 1.0305-1.0901c0.0583-0.25442 0.76809-1.409 1.0177-1.7922 0.25929-0.39129 1.4251-0.51205 1.483-0.25924 0.0594 0.25924 1.4138 0.8985 1.4138 0.8985l-0.14005 3.14s0.26403 2.0466 0.45242 2.8292c0.20292 0.76808 1.8002 1.409 1.8002 1.409l1.9243-1.731 0.83085-2.958-1.9178-2.8807s-1.4718-1.6022-1.6665-1.8002c-0.19488-0.18519-1.4234-0.3768-1.4234-0.3768s0.14005 0.64249 0.26403 0.89368c0.13366 0.25765-0.26403 0.32527-0.26403 0.32527l-1.4718-0.57486 0.25765-1.6827s1.1029-0.1884 1.2914-0.1884c0.18674 0-0.077-2.5635-0.077-2.5635s0.39769-4.5489 0.52651-4.6777c0.12882-0.13364-0.19488-4.6181-0.70852-4.8082-0.50725-0.1932 0-1.6666 0.2593-1.7326 0.25434-0.0677 2.755-0.96132 2.755-0.96132l1.4058-2.7583s2.5087-1.7358 2.7003-1.8646c0.1884-0.12882 3.0724-3.2012 3.0724-3.5924 0-0.37841 0.32843-1.3413 1.0933-1.4782 0.77129-0.12077 2.1867-1.1481 2.1867-1.1481v-2.1191s0.25444-1.0257 0.83095-1.2801c0.57156-0.25763 2.0498-0.45247 2.0498-0.45247s0.32525 0.83571 0.12882 0.96132c-0.19488 0.13203 3.2688-0.96132 3.2688-0.96132s1.5377 0 1.7954-0.0612c0.2625-0.0677 1.0306-1.2157 1.0306-1.2157s-0.32855-1.0322 0.11758-0.77774c0.45727 0.26568 1.549 1.417 1.4234 1.6102-0.13686 0.18356 0.63596 1.4702 0.44922 1.9822-0.19807 0.51206 2.9484 3.9837 2.9484 3.9837s1.5329-0.71011 1.4089-0.19645c-0.13367 0.51206-0.44604 2.1207-0.44604 2.1207s0.96298 0.63765 1.343 0.70368c0.38646 0.0628 1.4766 2.1786 1.4766 2.1786s-0.25764 1.9194-0.25764 2.177c0 0.25763 0.13851 2.1207 0.0628 2.4427-0.0628 0.31884 2.6295 0.90496 2.6295 0.90496s2.1288-1.7455 2.2576-1.9419zm-190.18-95.311 2.1207-1.797 0.45242-1.7342s1.9839 0.32367 2.0434 0.5797c0.0628 0.2528 0.52014-0.5797 1.0241-0.12721 0.51849 0.44764 1.161 0.37839 1.227 0.76646 0.0561 0.38646 0.44603 0.83572 0.5089 0.57807 0.0628-0.25763 0.0628-1.0901 0.0628-1.0901s-0.57166-0.31882-0.8969-0.51849c-0.32371-0.19001-0.2561-0.76807 0.066-0.95326 0.31556-0.19161 1.2141-0.71493 1.4733-0.51849 0.25764 0.18679 1.4138-0.25602 1.4138-0.25602s0.19158-0.3913 0.31722-0.57486c0.13355-0.19968 0.77447-1.9274 0.77447-1.9274s-0.45727-0.19161-0.5829-0.77131c-0.12882-0.57323 0.70853-2.243 0.90495-2.3042 0.18355-0.066 2.6956-1.5442 2.6956-1.5442s0.95967-1.0289 0.57486-1.3445c-0.38812-0.32528-3.2721-1.7342-3.2721-2.0547 0-0.32043-0.3204-1.9886-0.13356-2.6263 0.19478-0.63926 1.3525-1.863 1.5426-2.1207 0.19476-0.24958 1.6054-1.9838 1.8631-1.9258 0.25764 0.0692 1.2173-0.12882 1.4684-0.25118 0.2625-0.13366 2.5007-1.1578 2.1175-1.2206-0.38328-0.0644 0.13036-1.2173-0.066-1.1545-0.1917 0.0628 0.19642-1.4734 0.64565-1.6006 0.44603-0.12719 1.2141-0.70527 1.4154-0.70527 0.18035 0 1.731 0.0644 2.1142 0.12721 0.38326 0.0644 1.7294-0.57485 1.921 0 0.1917 0.57647 0.70049 0.70528 0.25765 0.89691-0.44923 0.19322-1.475 1.0917-2.1174 1.665-0.63761 0.57486-2.5667 1.8663-2.8244 1.9242-0.25114 0.0677-0.3912 0.19164-0.9001 0.51689-0.51198 0.31399-0.51198-0.44764-0.63442 0.76648-0.13367 1.2206-0.3204 2.5651-0.0693 3.0192 0.25763 0.44765 0.44603 1.1529 0.19157 1.475-0.25434 0.32205-0.066 0.51366 0 1.0901 0.066 0.57646 0.84869 0.83088 0.90341 1.0885 0.0594 0.25602 1.0853 0.76809 1.0853 0.76809 0.51198-0.058 1.103-0.12399 1.2205 0.13364 0.13366 0.25603 0.39131 0.12883 0.39131 0.12883l1.0804-0.26247s1.0966-0.64088 1.4831-0.57647c0.38316 0.0644 0.89361-0.12721 1.3428 0 0.44933 0.12882 2.3703-0.51206 2.6344-0.44925 0.25445 0.0708 2.0451-0.70368 2.1786-0.44604 0.12882 0.25603 1.0918 0.19162 1.0918 0.19162l0.77128 0.57646c0 0.38324-0.77128 1.2801-0.95966 1.4138-0.19489 0.1256-0.83415 0.64571-1.219 0.51206-0.38327-0.12398-0.64729 0.0644-1.1594-0.12398-0.51363-0.19646-1.4765-0.45731-1.7358-0.45731-0.25599 0-3.2639 0.71494-3.2639 0.71494l-1.5345 0.44442-0.26568 0.90174 0.19477 0.19161 1.5394 0.9597c0 0.32366 0.64576 0.12882 0.51209 0.89851-0.12563 0.76808-0.19158 1.0885-0.38327 1.4718-0.19642 0.38646-0.96286 1.0917-1.1546 0.64088-0.19159-0.44766-1.1497-1.2818-1.4089-1.4734-0.25126-0.19162-1.0209-0.0644-1.4815-0.0644-0.44602 0-1.3461 0.64249-1.3461 1.3478 0 0.70367-0.44604 1.6102-0.25766 2.3042 0.19489 0.71495 1.0321 1.6135 0.64897 2.0595-0.39131 0.45086-1.2834 0.7713-1.6667 0.9613-0.38315 0.19324-1.2881 0.83411-1.6054 0.96131-0.32041 0.12721-1.2833 0.51205-1.4782 0.0644-0.18839-0.45088-0.57485-1.1546-0.57485-1.1546s-0.3204-0.63764-0.45407-0.44602c-0.11429 0.18517-0.83084 0.25762-0.83084 0.25762l-1.6602 0.63928s-0.90495 0.63925-1.0933 0.76808c-0.19808 0.1272-1.1579 0.1272-1.5427 0.31883-0.38327 0.19483-1.5394 1.1561-1.8566 0.70688-0.32524-0.44604-0.51044 0.32044-0.90659-0.38483-0.37513-0.70368-0.25281-1.475-0.70523-1.343-0.44283 0.12883-1.4766 0.38325-1.5974 0.63927-0.13367 0.25601-0.26084 0.25601-0.50879 0.51205-0.25765 0.25441-2.1207 0.44764-2.1207 0.44764v-0.12721zm53.144 47.495c-0.47984 1.2528-0.47984 2.8855-1.1577 4.1383-0.67626 1.2447-0.96451 1.9178-1.4427 2.6971-0.48314 0.76003-0.48314 1.8228-1.2496 2.3026-0.76808 0.48468-1.921 1.1561-2.5957 0.67629-0.66823-0.48308-3.3653-0.38485-3.6616-0.28824-0.28506 0.0965-3.5522-0.0967-3.9403 0.57165-0.38326 0.67629-2.8758 0.19644-3.2736 0-0.38316-0.19001-5.0947-2.1175-5.478-2.2092-0.38316-0.095-2.7985-1.1513-3.1866-1.4396-0.38327-0.29146-2.7841-0.58453-2.8775-0.87114-0.098-0.28985 0.19157-0.67309-0.19973-0.57647-0.37678 0.0885-3.1721 0.96131-3.5554 1.2431-0.39131 0.2995-1.2447 1.0676-1.2447 1.0676s-1.1641 1.1529-1.0676 2.0176c0.1035 0.86631 1.1577 1.5394 0.77458 2.0192-0.38327 0.47986-1.7294 1.0563-1.7294 1.0563s-1.4525-1.3446-1.9258-1.5362c-0.48149-0.19323-4.9982-0.86471-4.9982-0.86471l-1.8293-2.1158s-2.8855-1.9258-3.1753-2.0225c-0.29145-0.095-3.4653 0-3.9515-0.38324-0.48314-0.39128-2.0208-2.4073-2.7873-2.3091-0.77139 0.095-0.47995-1.1546-0.19169-1.3462 0.2866-0.19162 1.1529-1.8276 1.058-2.1158-0.10019-0.29146 0.47984-1.921-0.47994-2.4008-0.9612-0.49274-0.29144-2.1271-0.29144-2.1271s0.96462-0.1916 0.5797-0.1916c-0.38481 0-1.8276 0.0967-2.2156-0.38323-0.37843-0.48147-0.48633-0.67148-0.85991-0.48147-0.39286 0.19484-2.7985 0.57807-3.0836 0.48147-0.29145-0.095-2.5957 0.19161-2.9805 0.19161-0.38327 0 0.0969 0.0982-0.38327 0-0.48786-0.0967-2.4137 0.77452-2.5071 1.1529-0.0881 0.38485-2.0145-0.0885-2.3059 0-0.29299 0.0967-3.0804 0.0967-3.0804 0.0967l-4.6213 0.7697s-3.0772 1.549-3.1722 2.0289c-0.0969 0.48147-1.0595 1.2512-1.3461 1.4379-0.28506 0.19485-2.016 0-2.1223-0.28662-0.0903-0.28823-3.1739 0.0999-3.1739 0.0999s-1.2479-0.6779-1.6327-0.38645c-0.38327 0.28822-0.38327-1.2544-0.38327-1.2544l0.47995-1.1449 1.7293-1.1578 4.1432-0.77613 2.0209-1.3413 1.2446-0.48145 0.76654-2.0176s1.4444-0.28822 1.3478-0.58129c-0.0947-0.28823-0.47345-1.636-0.47345-1.636l2.7841-4.3267 3.9435-1.9258 0.67461-1.3478s-0.37831-1.7294-0.0947-2.0224c0.28659-0.28984 2.8856-0.86792 2.8856-0.86792l3.2735 1.0595s1.7294-1.1513 2.1127-1.3446c0.38327-0.19484 2.2156-1.2495 2.2156-1.2495s0.18685-0.86471 0.57331-0.76969c0.38482 0.095 2.0208-0.28823 2.2173 0.48145 0.19157 0.76969 1.6344 3.177 1.6344 3.177l2.2109 2.3107 2.1206 1.636 2.5989 0.9581s1.5362 1.3478 1.8228 1.4444c0.28826 0.0934 1.7294 1.7342 1.7294 1.7342l0.76809 1.3413s-0.47819 1.0628-0.86311 1.5458c-0.38317 0.47502-1.5377 1.731-1.8276 1.628-0.2898-0.0885-2.5071-0.47341-2.5071-0.47341l-2.4025 0.28663s-0.37842 0.57807 0.2931 1.0579c0.67307 0.47984 1.4412 0.38645 2.111 0.76968 0.6843 0.38324 2.4137 1.1578 2.4137 1.1578s1.1578 0.18678 1.1578 0.47341c0 0.28984 0.37996-0.76969 0.28341-1.4412-0.0947-0.67147-0.19489-1.5346 0.47983-1.7294 0.67791-0.19161 1.7311 0 1.7311-0.29145 0-0.28661 0.29464-0.67629 0.29464-0.67629l0.86465-1.0499-0.0969-0.67146 0.87114-0.68435s-0.47983-0.56519-0.87114-1.0531c-0.37997-0.48307-0.7681-0.7713-0.48953-1.2528 0.29474-0.47824 1.2528-1.1545 1.744-0.76807 0.47817 0.38324 1.9178 0.57485 1.8211 1.0595-0.0914 0.47663 0 1.1481 0.19654 0.76969 0.18508-0.38807 0.0969-1.9274 0.0969-1.9274s-0.77139-1.0547-1.446-1.1513c-0.66668-0.0999-2.4122-0.96294-2.8888-1.1545-0.47819-0.19322-1.3413-0.67147-1.3413-0.67147s0.37997-1.0579-0.18838-0.96131c-0.58289 0.095-2.3123-0.19805-2.3123-0.48146 0-0.29466-1.7342-1.644-1.8228-1.9258-0.0969-0.29468-1.6409-2.4089-1.6409-2.4089s-0.87115-0.86471-0.96286-1.1529c-0.1002-0.28984-0.1917-0.77129-0.38493-1.5378-0.19796-0.7697 1.9211-2.6939 1.8261-2.4073-0.098 0.2834 0.48303 0.67308 0.87269 1.5378 0.37842 0.86953 1.9194 2.3107 2.1127 2.8872 0.18994 0.57486 2.3123 2.2157 2.7856 2.4025 0.48952 0.19 0.76808 0.7729 1.7342 1.1561 0.96616 0.38645 0.8728 0.57164 2.1207 1.1529 1.2447 0.57809 1.4412 0.77614 1.6263 1.0579 0.19963 0.29306 0.96287 0.19806 1.2575 0.67791 0.28671 0.47824 0.67153 0.57647 0.67153 1.0563 0 0.47823 0.39131 0.47823 0.18839 1.4412-0.18839 0.96131-0.47499 1.2496-0.37678 1.4412 0.0969 0.19646 1.8292 3.7583 2.5039 3.7583 0.67153 0 2.6891 0.76969 2.4008 1.9194-0.28659 1.1529 1.248 2.6939 1.248 2.6939s1.2866 0.0822 2.1753 0.23026c0.0375-0.67148-0.10459-1.7487 0.62485-2.1561 0.85661-0.48145 2.1094-0.96613 1.9145-1.4412-0.19644-0.47985-0.38801-1.3494-1.1545-1.9226-0.76004-0.57486-1.5395-0.87436-1.731-1.826-0.18839-0.96452-0.48149-2.2205 0.38326-1.8324 0.86465 0.38163 1.6359 2.2189 2.0289 0.9597 0.37842-1.2479 1.3381-2.1158 2.0095-1.826 0.68122 0.28822 1.9323 0.76807 1.8357 1.1529-0.098 0.38484 0.86476 3.4684 0.86476 3.4684s0.38316 0.29145 0.57485 1.731c0.19158 1.4395 1.4412 1.826 1.2528 2.3075-0.19489 0.47662-0.77458 0.76486 0.77128 0.9613 1.5313 0.19324 2.9822 0.47824 2.9822 0.86308 0 0.38646 1.2495 0.58614 1.4427 0.86953 0.1885 0.28984 1.343 0.86471 1.5378 0.28984 0.19158-0.57163 0.57804-1.7358 0.86631-1.5426 0.28824 0.19967 2.6923 0.19967 2.8871 0.97257 0.19962 0.75843 1.8308 0.75843 1.8308 0.96294 0 0.18517 1.4428-0.48147 1.4428-0.48147s2.0177-1.5426 2.5957-1.2544c0.57485 0.28822 2.2059-1.0644 2.0144 0.18679-0.18838 1.2512 1.066 2.4089 0.58289 3.6568zm9.6179-16.933c-0.28342 0.29145-2.1174 2.1158-2.1174 2.1158l-3.6569-0.48307h-2.499l-2.1159-0.76646s-1.446-0.47986-1.7326-0.77131c-0.29309-0.28824-2.1142-0.96454-2.1142-0.96454l-3.8517 0.86792-2.9854 0.86793-1.0515 0.95807-3.5619-0.86309-2.1142-1.0563-1.1609-1.2544h1.0595l-0.37677-1.5378 0.18507-1.0563 0.95813-0.58129 0.67792-2.7873 1.1578-0.48146 0.28504-1.4395s0.96453-0.87114 1.256-1.1594c0.28826-0.28501 1.2496-1.6376 1.2496-1.6376l2.3026 0.96453s2.4057 0.29146 2.0224 0.38967c-0.39121 0.0934-1.5426 1.4444-1.5426 1.4444s0.8663 0.47342 1.264 0.76809c0.37524 0.28824 1.2464 0.76486 1.0515 1.3461-0.19478 0.57487 1.4428 0.47986 1.4428 0.47986l0.57804-0.96131 2.6891-0.67147 0.96297-0.48629-1.541-0.47341s-1.3461-0.48628-1.1514-0.77612c0.1949-0.29146 1.4428-2.2141 1.4428-2.2141s3.177-0.9581 3.462-0.9581c0.28175 0 2.2189-0.38483 2.2189-0.38483s-1.5394 1.5378-1.7374 1.8292c-0.19973 0.29147 0.1002 1.2463-0.38327 1.636-0.47664 0.38323-1.1594 0.77291-1.4428 0.87114-0.29464 0.0885-0.10129 1.0547 0.1885 1.1529 0.29618 0.0982 1.2543 0.47986 1.2543 0.47986l4.2349 2.2092 2.5957 2.5957 2.0272 1.644c0-0.007 0.85826 0.85826 0.57001 1.1449zm24.443 12.695-2.4154 0.28823s-2.1126-0.86632-2.2028-1.2479c-0.1046-0.38324-0.5829-1.2495-0.8728-1.0579-0.28661 0.19484-1.2479 0.28985-1.5345 0.19484-0.2866-0.0982-1.3542-0.96291-1.3542-1.3478 0-0.38163-0.29311-1.2463 0.19158-1.636 0.48633-0.38324 1.4475-1.0531 1.2528-1.3494-0.18519-0.28501-0.29144-1.5265-0.29144-1.7294 0-0.19322 0-0.38163 0.58288-0.47985 0.57486-0.0982 0.57486-0.0982 0.57486-0.0982s0.19158-0.57323-0.098-0.86309c-0.2866-0.28983-2.024-1.541-2.2157-1.8276-0.18035-0.28662-2.309-2.3058-2.5956-2.6037-0.28506-0.2818-1.5378-1.1465-1.5378-1.1465l-0.67307-1.4476 0.57486-1.826-1.7262-0.38483-0.38315-1.2463v-0.29146l1.8211-2.1126s1.256-0.67146 1.541-0.48789c0.28826 0.19966 0.95813-0.57486 1.0692-0.86309 0.0847-0.29466 1.9113-1.5442 2.3026-1.7358 0.38163-0.19001 1.053-1.0563 1.4428-0.57486 0.37997 0.47823 2.7841 1.2528 2.7841 1.2528s0.87268 0.19 0.76797 0.57002c-0.0935 0.39129-0.86465 2.8936-0.86465 2.8936s-1.7262-0.48147-1.9178-0.38485c-0.18673 0.0919-1.5345 0.57807-1.2479 1.3462 0.28661 0.76968-1.0563 0.28823-0.96298 0.67308 0.0914 0.38162 0.28672 0.95969 0.57816 1.1529 0.2898 0.19161 1.9178 1.0563 2.1126 1.6344 0.1884 0.58131 2.8808 2.3123 2.8808 2.3123s0.29144 0.19 0.19477 0.58129c-0.0903 0.38323-0.28825 2.4025 0 2.4025 0.28826 0 0.95812-0.0982 0.95812-0.0982s0.87434-1.8244 1.1642-1.6312c0.2866 0.19002 1.4427 1.0547 1.731 1.7278 0.28175 0.67308 0.86465 1.3429 0.57485 1.5362-0.29464 0.19001-1.6376 0.0965-2.0208 0.0965-0.37843 0-1.0595-0.48145-1.2511-0.28984-0.19809 0.19324-0.57486 0.67309-0.28991 1.2479 0.28991 0.5829 0.87114 1.446 1.1626 1.644 0.28341 0.18839 0.56847 0.087 1.4412 0.86631 0.86477 0.76969 1.1514 1.1497 0.86477 2.0176-0.28991 0.86468-0.098 1.636 0 1.921 0.0947 0.28823 0.2866 0.9613 0.48302 1.2496 0.18684 0.28983 0.18684 0.67146 0.18684 0.67146l-2.7826 0.48145zm-34.71-76.93c-0.0341-0.0129-0.0705-0.0129-0.0836-0.0129-0.0309 0.0129 0 0.0129 0.0836 0.0129zm233.77 19.938c0-0.0145 0-0.0403-0.0232-0.0596 0.0165 0.066 0.0165 0.0982 0.0232 0.0596zm-173.49-32.46s0.0408-0.01 0.11748-0.0467c-0.066-0.0596-0.11109-0.1047-0.11748-0.13364-0.0628-0.26246 0 0.18036 0 0.18036zm-27.26 214.87s-2.0578 2.3155-2.1802 2.7052c-0.13531 0.37841-1.7955 2.4314-2.0612 3.0707-0.25764 0.64086-2.3026 2.0498-2.3026 2.0498l-3.7213 1.541s-1.2801 0.12881-0.89845 0.64891c0 0-0.25764 1.0193-1.1497 2.177-0.90175 1.1513 0 2.6891 0 2.6891l0.50726 2.5651v2.4411s-0.7714 2.6939-1.1546 2.8195c-0.38007 0.13205-1.0225 0.90012-1.4058 2.1851-0.38966 1.2801-0.25765 2.1786-0.25765 2.1786s0.25765 1.9242-0.13201 2.3123c-0.39131 0.38324 0.64092 2.3042 1.0322 2.9532 0.38316 0.63604 1.4105 1.0193 1.4105 1.0193s0.89207 0.7729 1.2801 1.0257c0.38328 0.25762 2.3059-0.5024 2.3059-0.5024s1.4154-0.64087 1.7954-0.90333c0.38646-0.26247 0.64575-0.38325 1.409-1.6666 0.77447-1.2834 0.26249-0.90012 0.38317-1.2834 0.13696-0.38324 0.8969-2.0563 1.2882-4.2349 0.38327-2.1819 0.51528-2.053 1.0257-3.9757 0.5088-1.9258 1.1514-2.4427 1.2802-3.974 0.12882-1.541 0.25434-2.1867 0.37996-2.7036 0.13203-0.50883 1.4202-2.4314 1.5426-3.718 0.12563-1.2769 0.12563-1.9226-0.12234-2.4314-0.25444-0.52012 1.5394-0.13687 1.7906-0.90495 0.26237-0.7713 0 0 0.13201-0.37841 0.13036-0.39129 0.26249-2.8244 0.26249-4.2333 0-1.4106-1.4122-3.6005-1.5539-3.9773-0.11758-0.38646-0.88567 0.5056-0.88567 0.5056zm128.15-18.597c0.3913-1.0257 0-1.1545-0.25281-1.6666-0.25445-0.51206 0.50715-2.8179 1.5377-3.7196 1.0257-0.90012-0.51198-1.0322-0.51198-1.0322l-1.5395 0.25763-1.4121-2.6939s-2.4379-1.9178-3.2044-2.4347c-0.77139-0.50884 1.1464-1.541 1.1464-1.541s-4.3508-4.1045-4.8661-4.1045c-0.51208 0-3.0836-2.0498-3.4668-2.1835-0.38326-0.124-2.4346-3.5908-2.4346-3.5908l-8.7275-4.3589s-1.1514 1.0305-1.1514 1.5378c0 0.51367 1.541 0.76969 1.541 0.76969s0.50889 0.38324 1.0225 0.64249c0.51198 0.25763 2.0498 1.5378 2.1803 2.4411 0.12398 0.89368 0.38636 1.409 1.2833 2.1738 0.9034 0.77131 2.4347 1.1626 2.4347 1.1626s0.64896 2.177 1.1626 2.4347c0.5088 0.25764 0.89691 1.4073 1.1465 2.053 0.25918 0.64088 2.7003 4.6165 2.5618 6.0271-0.12233 1.4122 1.8067 4.7502 1.8067 4.7502s4.3621 3.4588 4.4909 3.9757c0.12562 0.50885 3.3219 1.4106 3.3219 1.4106s1.5474-1.2866 1.9307-2.3107zm29.763-26.3c0-0.51205-1.4121-1.6634-1.8002-2.1802-0.38328-0.51689-2.6891-2.5683-3.2012-2.9516-0.50879-0.38324 0 0-0.76809 1.417-0.76808 1.409-1.6697 3.0755-2.0578 3.2011-0.38646 0.12882-3.2012 1.9226-3.9756 2.8195-0.76808 0.8969-2.3026 3.2092-2.8147 2.834-0.51209-0.39129-2.7036 1.6553-2.7036 1.6553l-1.1513 2.8227-3.594-0.76487 0.25434 1.1578s-1.1481 1.7874-0.89041 2.1802c0.25764 0.38486 0 1.7986 0.38316 2.5603 0.38008 0.77614 0.76809 1.2866 1.409 1.7986 0.64092 0.51206 0.76809 2.1802 0.38328 3.4636-0.38494 1.2834 0.51683 1.5378 1.0257 2.0579 0.51198 0.50885 1.6649 0.64088 2.1802 0.24959 0.51209-0.38645 1.541-0.50722 2.19-0.12398 0.62792 0.38324 2.3058 0.38324 2.8147 1.0257 0.51199 0.64087 2.5666 0.25442 2.9467 0.64087 0.39131 0.38325 2.4427-0.38645 2.9516-0.90656 0.50714-0.50238 0-1.5265 0-3.2011 0-1.6666 0.25765-1.5378 1.1609-2.1803 0.89692-0.64087 1.5378-1.1545 1.6634-2.0466 0.13367-0.90333 0.38811-2.4411 0.38811-3.2124s2.053-0.63927 2.4331-0.89852c0.39606-0.25764-0.25763-0.76808-0.25763-1.1513 0-0.38967-1.6667-2.1819-2.0466-2.8244-0.38326-0.6457 0.63761-3.8517 1.2752-4.3637 0.6506-0.51368 1.8018-2.5651 1.8018-3.0788zm-17.959 34.507c0.38162 0.12882 1.2785 0.12882 3.1963 0.64087 1.9355 0.51205 3.7309 0.6441 3.9837 1.1546 0.25764 0.50882 1.9178 0 2.6971-0.12562 0.7681-0.13203 2.57-1.8002 3.7213-0.51526 1.1561 1.2834 3.4604 0.38323 3.8468 0.64088 0.38328 0.24958 1.5474-0.64088 2.95-0.50885 1.4137 0.12239 1.5426 0.50885 1.9258 0.50885 0.38316 0 1.6665 0.38645 2.309 0.24958 0.64259-0.124 1.409-0.89208 2.5651-0.76003 1.161 0.12237 4.2301-0.90496 4.2301-0.90496s0 0.13043-0.76006 0.64249c-0.77447 0.51205-3.3412 2.4331-3.3412 2.4331s-0.38647-0.25281-0.51683 0.5201c-0.12398 0.76809-0.89206 2.3107-0.12398 1.6618 0.77293-0.6328 3.4668-2.9451 4.1093-3.4572 0.63443-0.51206 0.89207-0.77292 1.5345-1.1578 0.64091-0.38324 2.0498-0.77131 2.0498-0.77131l0.9034-0.64087s-0.77293-0.50883-1.161-0.38322c-0.37679 0.13363-1.0257-0.50884-1.9178-0.12561-0.90175 0.38323-3.3347 0.76808-3.3347 0.76808s-1.541 0.25925-2.4379-0.12399c-0.89691-0.38323-1.929-1.0273-2.3107-0.51688-0.38326 0.51688-2.5636 1.1545-2.9549 1.1545-0.37832 0-1.7922-0.12882-2.8179-0.38163-1.0273-0.25442-1.2849-0.25442-1.797-0.25442-0.51198 0-0.51198-0.38322-1.9226-0.51688-1.4154-0.12559-1.8066-0.50883-2.177-0.38323-0.3977 0.13365-1.0257 0.25764-1.5378 0.51689-0.51848 0.24959-2.0642 0.24959-2.4378-0.13366-0.39131-0.38323-4.243-1.1513-4.243-1.1513s-0.50891-0.64087 0.64895-1.0257c1.1512-0.38322 0.9001-0.38322 0.76479-0.89367-0.12552-0.52171-2.0547-0.52171-2.5603-0.38323-0.51209 0.11915-1.8034 0.38323-2.3155-0.13848-0.50881-0.50239-2.0498-1.8002-2.5587-1.0273-0.51684 0.7713-0.25766 1.8002-0.77449 1.6746-0.50879-0.1256-3.9805 0.25442-3.9805-0.1256 0-0.38323-0.89691-1.4154-1.2834-1.549-0.38326-0.12398-0.25444-0.50723-0.89371-0.77292-0.64411-0.24315-1.9242 0.13205-1.9242 0.13205l-1.2802 0.13364-1.5426 1.7922s3.5924 0.38968 3.9773 0.90012c0.38316 0.51528 2.309 2.0498 2.309 2.0498s2.5604 0.64087 3.206 0.76809c0.64245 0.13203 3.594 0.25602 3.9773 0.38645zm-4.2284-71.963c-0.39781-0.25441-1.4154-0.25441-1.4154-0.25441l-1.285 0.51044-0.6408-0.25603-1.4154 1.9274s0.38637 2.177 0.77128 2.177h1.7954l1.417-1.0241 0.77294-1.921s0.37512-0.90173 0-1.1594zm20.775-5.1302 0.77127-1.5426s0.38647-1.5394 0.51045-1.9226c0.13036-0.3913 0.6376-1.5426 0.26248-2.1835-0.38646-0.64087-0.13212-1.5362-0.38646-2.0498-0.2593-0.50884-0.38647-1.2818-0.38647-1.2818l-1.2834 0.51045c-0.5121 0.51207-1.2802 2.8211-1.2802 2.8211s-0.51364 2.3171-0.13036 2.8179c0.38315 0.52333 1.4105 1.9291 1.4105 1.9291l0.5121 0.90173zm16.162 38.609c1.1546 0.38806 1.541 0.13687 1.409-0.38967-0.12563-0.51206-0.5121-3.2012-0.76809-4.2236-0.25764-1.0257 1.5377-1.8002-0.38327-3.3348-1.921-1.5458-1.7922-1.409-1.921-1.5458-0.13047-0.12882-0.13047-1.409-0.13047-1.409s0.38327-1.2801 0.13047-1.6634c-0.25445-0.38323-0.51364-1.1545-0.77128-1.5378-0.25765-0.38645-0.25765-0.51204-1.029-0.51204-0.76797 0-0.76797-0.90013-1.2801-0.77614-0.5088 0.12881-1.7955 1.1529-0.9001-0.37678 0.9001-1.549 0.38966-1.8035 0.38966-2.0611 0-0.2544-0.64896-0.63765-1.2866-0.76486-0.63772-0.13203-1.1562-0.90011-2.0515-0.64409-0.89691 0.26408-1.2802-0.38001-1.7954-0.38001-0.5121 0-0.76809-0.6457-0.89372-1.409-0.13202-0.77128 0.12563-2.3123 0.12563-2.6939 0-0.38968 0.76809-1.5426 0.76809-1.5426s0.25765-0.51851 0-1.4122c-0.25445-0.89529-0.76809-2.4363-0.76809-3.0756 0-0.64088-1.417-1.2834-1.417-1.2834l-1.6698 0.64088-0.6376 5.6455s-1.1529 0.38001-1.0209 0.89206c0.12079 0.51689 0.12079 2.9548 0.76643 3.4668 0.63772 0.50722 1.6698 1.1513 1.6698 1.1513 0.25116 0.64409-0.38008 1.921-0.38008 1.921s1.5314 1.8035 1.6683 2.3187c0.12232 0.50883 0.8969 0.24959 0.8969 0.24959s-0.38327-3.462 0.37997-2.8244c0.77129 0.64409 2.8211 0.52332 2.9467 1.2866 0.13367 0.7713 1.5426 1.5378 1.7922 2.3123 0.25765 0.7697 1.9292 1.0273 1.8067 1.6618-0.13201 0.6441-1.161 0.6441-1.8067 0.77129-0.63441 0.12883-2.6891-1.4057-2.6891-1.4057s-0.51209-0.12881-0.63761 0.63604c-0.12563 0.77131 0.25434 2.6923 0.76808 3.3332 0.50879 0.64571 1.0257 0 1.2849 0.38325 0.25764 0.39128 0 1.2882 0.38646 1.8035 0.37843 0.51205 1.4057 0.63764 1.7955 0.38002 0.38317-0.25122 1.6666-0.8969 1.6666-0.8969s-0.13521-1.5378-0.64411-1.8002c-0.51198-0.25442-1.2834-1.0257-0.89372-1.4041 0.38008-0.38808 1.1482-1.1562 1.5378-1.0306 0.37677 0.12882 1.2849 1.797 1.1514 2.1802-0.12398 0.38324 0 0.5169 0.51683 1.9226 0.50725 1.4202 0.76809 1.161 0.12398 1.4202-0.64081 0.24959-1.2801 1.0257-1.6698 1.2801-0.0847 0.0595-0.098 0.0965-0.0847 0.12077-0.0937-0.0306-0.33967-0.0757-0.9371-0.12077-1.6747-0.12882-1.2866-0.89692-1.6747-0.12882-0.37831 0.76807-0.76808 1.409-0.76808 1.409l-0.89207 0.38323s-0.64564 2.0498-0.51682 2.6891l0.12563 0.65215s1.2833-2.4427 1.6714-2.4427c0.37843 0 0.37843 0.64088 0.89691 0.25443 0.51847-0.38323 1.0321-0.12236 1.0321-0.12236s0.76808-0.3897 0.63607 0.63279c-0.11759 1.0257-0.11759 1.1546 0.25446 2.1932 0.39451 1.0193 1.4202 1.5346 1.8034 1.9178 0.38327 0.38325 0.89206 0.64088 1.1514 0.89691 0.25766 0.25441 0.38318-1.1545 0.25766-2.1803-0.13367-1.0257-0.64247-1.8034 0.50879-1.4138zm-8.9755 15.523c1.4202 0.7713 2.3059 1.1594 3.4605 1.5426 1.161 0.38322 2.3058-0.77131 2.5666-0.51045 0.25446 0.2528 1.4139-0.90174 1.4139-0.90174s0.89206-1.2834 0.76808-1.6634c-0.12882-0.39289-0.25929-1.5442-0.51693-1.1578-0.24962 0.38002-2.6923 1.7954-3.2012 1.9194-0.50878 0.12883-1.7953-0.38162-2.9499-0.38162-1.1561 0-3.9773-0.90012-4.3685-0.51527-0.37204 0.38967-1.5346 1.9226-1.409 2.5699 0.13201 0.64088 0 1.0257 0 1.4154 0 0.38324-0.38328 2.177-0.38328 1.6666l-1.7938 4.7373s1.4074 3.5989 1.285 4.2414c-0.13532 0.63766-0.38966 4.2349 0 3.8436 0.38966-0.38967 2.3026-0.64087 2.3026-0.64087s0.64895-2.3091 0.52332-3.3332c-0.13201-1.0257-1.2914-4.2349-0.26568-3.9773 1.0338 0.25764 2.0578 1.5378 2.0578 1.5378s-0.77282 0.77774-0.51529 1.2882c0.25765 0.51045 1.1546 1.1513 1.029 2.3058-0.12883 1.1545 0.38316 1.6698 0.38316 1.2801 0-0.38323 1.285 0.25764 1.4138 0.51528 0.109 0.23026 1.3236-0.84377 1.512-0.8341 0.0165-0.38323 0.20611-1.9564-0.10681-2.3719-0.388-0.51205-0.388-1.2801-1.2769-2.3058-0.90495-1.037 0.25445-1.285-0.64576-2.4492-0.89692-1.1465-1.2801-0.76324-0.89692-1.1465 0.38009-0.38807 1.1562-0.64247 1.7971-1.0273 0.63442-0.38645 1.1512-1.409 1.1512-1.409 0.12883-0.38323 0.38966-0.25443-0.63761-0.51205-1.0257-0.25765-1.929-0.5185-2.5683 0.25762-0.63772 0.76486-1.2802 0.89369-1.2802 0.89369l-0.51209 0.12882c-0.51199 0.12881-0.38647-0.76808-0.77128-0.8969-0.39131-0.12561-0.39131-0.25441-0.64081-1.1513-0.25929-0.90011 0-2.3123 0.38965-2.5748 0.37998-0.25282 1.2737-1.1546 2.6859-0.38324zm3.3316 15.009c0.0165-0.0435 0-0.0596-0.0232-0.0628 0 0.087 0 0.13686 0.0232 0.0628zm50.284 0c-0.12243-0.7713-0.25764-1.6666-0.63123-2.3059-0.39451-0.64088-8.7356-5.0094-9.7613-5.3927-1.0257-0.38324-6.4007-2.0514-6.4007-2.0514s-2.5747 1.0257-2.5747 1.4138c0 0.38323-1.285 1.7954-1.8003 2.3123-0.50714 0.50884-0.38162 1.0225-1.1497 0.8969-0.77292-0.12881-0.89359 0-1.2914-0.38646-0.37193-0.38323-0.76324-1.6746-1.2752-2.053-0.51694-0.38323-1.5395-0.8969-1.2914-1.9226 0.26403-1.0257 0.64082-2.4347-0.12562-2.4347s-1.9178 0.51689-2.1771 0.12238c-0.25754-0.37679-1.7922-0.24797-1.7922-0.24797l-3.2027 0.89689-0.3977 0.12882s1.4169 2.6907 2.3203 2.4315c0.89692-0.25281 2.5602 1.797 2.5602 1.797s-0.50889 1.1578-0.25445 1.541c0.25445 0.38324 1.2834 2.3107 1.2834 2.3107l2.0498-0.12881 2.0515 0.89689 5.5199 1.7954 1.5459 1.789 0.8969 3.8581s-2.3156 1.5346-2.1835 2.177c0.12552 0.64248 2.9516-0.12398 2.9516-0.12398l2.3058 1.1513 2.8147 1.409 3.2156 0.12398 1.9178-2.177s2.8179-2.4347 2.8179-1.921c0 0.51366 2.5716 1.5378 2.9581 2.6939 0.39131 1.1545 2.6955 3.2124 2.6955 3.2124s3.2012 1.0257 3.5893 1.1545c0.37996 0.11916 1.2849 0.25442 2.1867 0.50884 0.89691 0.25602-0.90329-2.3139-0.90329-2.3139s-2.826-1.6666-2.9516-2.3091c-0.12563-0.64248-2.4347-2.5603-2.3059-3.2028 0.12563-0.64087-1.0338-1.409-0.51363-1.409 0.51363 0 2.5619-0.25441 2.3074-0.6473-0.25445-0.37679-1.6665-2.8195-2.3074-2.8195-0.63927-0.004-2.5619-0.004-2.6971-0.7745zm4.3653 43.357s-1.409-0.63604-1.5378-0.38001c-0.12717 0.25763-0.64565-2.4379-0.64565-2.4379l0.25765-1.409s-3.8533-4.8806-3.9708-4.4893c-0.14017 0.38324-1.417-3.9773-1.417-3.9773l-0.38162-4.7454-0.89856-2.8243-2.3058 0.25762-0.51529-4.6214-1.2914-4.3605-0.63441-0.25442-1.2849 2.9467s-0.64092 4.1093-0.90021 5.5199c-0.25765 1.409-0.38317 3.4652-1.1512 4.7486-0.77127 1.2834-2.5684 4.3557-2.5684 4.3557s-2.053 0-2.3123-0.38323c-0.25434-0.38324-2.5602-1.541-2.5602-1.541l-1.4169-2.1786-2.3011-1.7922s-1.5522-1.9291-1.6747-1.8002c-0.12398 0.12722 1.1626-1.7922 1.5346-2.0514 0.39769-0.25441 0.51682-1.5345 0.51682-1.5345l2.0531-1.673s0.38481-0.64248 0-1.0225c-0.38646-0.38806-0.38646-1.0305-0.89691-1.1626-0.51528-0.12559-3.4668 1.2914-3.4668 1.2914l-2.4347-1.1594s-1.8002-0.90013-2.177-1.541c-0.38646-0.63766-1.417-1.0225-1.6714-0.76808-0.25765 0.25764 0 1.5378 0 1.5378s0.52651 1.1304 0.7117 1.483c-0.23518-0.19968-1.0966 0.44604-1.0966 0.44604l-2.4378 0.24958-1.5427 1.4106-1.1545 2.1851-0.76645 1.5394s0.63762 1.0257 0.38328 0.89529c-0.25764-0.12721-3.7228 0.90013-3.7228 0.90013s-0.9034-1.9226-1.2867-2.3075c-0.38315-0.38806-1.5345-1.0273-2.0498-1.0273-0.50879 0-1.7938 1.1561-1.7938 1.1561l-0.50716 2.6907-1.9291-0.51205-1.6714 2.8211-1.6521 0.64571-0.90979 1.921-0.50878-2.0466-1.9243 1.7922-0.64566 2.9435s-2.4379 2.3139-2.6956 2.826c-0.25434 0.50884-5.6502 2.4427-5.6502 2.4427l-3.454 1.1513s-1.7955 0.38324-2.1819 0.38324c-0.38315 0-3.7244 2.4411-3.7244 2.4411l-1.145 1.1513-0.38636-1.0257-1.4122 1.5378v3.2092l-1.4122 1.9194 0.77129 2.9483-1.1546 0.38968-1.0257 0.77452 1.1562 2.3091 0.38326 4.2236s0.63916 1.2882 0.51364 2.0611c-0.12727 0.76164-0.64411 1.5345-0.64411 2.0466 0 0.51205 0.38647 2.4347 0.38647 2.9467 0 0.51528-1.1594 3.8581-1.1594 3.8581l-1.4042 2.3058-1.1512 0.12882s0.24795 2.4395 0.63607 2.4395c0.38316 0 1.5426 0.50723 2.5634 0.90012 1.0306 0.37519 2.6956-0.25764 3.0819-0.39128 0.38327-0.12882 3.2092-1.6666 3.2092-1.6666s1.6666-1.1513 2.1771-1.0257c0.51209 0.12882 2.8291-0.25442 3.206 0 0.38635 0.25765 3.3364 0.12882 3.3364 0.12882l1.7922-1.921 4.879-2.1835 2.4411-0.25763 5.8918-1.665 5.0046 0.51045s4.2381 3.0836 4.2381 2.826c0-0.25443 0.8969 1.6698 0.8969 1.6698l-0.25434 2.4315s1.4074 1.1545 1.5329 0.77129c0.13203-0.38647 1.5459-1.9242 1.9323-2.3091 0.37513-0.38323 1.541-0.89367 2.4395-1.5345 0.89206-0.6441 1.1465-1.0289 1.1465-1.0289s-0.89372 2.5635-1.2834 2.5635c-0.38327 0-1.1594 0.76809-1.5426 1.2834-0.38328 0.50883-1.0177 0.90172-1.0177 1.1594 0 0.24959 0.76808 0.24959 1.1432 0 0.39131-0.25764 1.0338-1.0338 1.5539-1.2914 0.50725-0.25441 0.77128-0.1256 0.63442 0.51528-0.12552 0.64087-0.12552 1.2769-0.63442 1.5346-0.52013 0.25763-1.1626 0.64087-2.0627 1.1594-0.88887 0.51527-1.533 0.12398-1.921 0.51527-0.38648 0.38646 0.25444 0.77452 0.51198 1.0257 0.25764 0.25763 0.90494 1.0306 1.409 0.13203 0.50879-0.90011 1.1658-1.549 1.5426-1.7986 0.38327-0.25119 1.1546-1.0338 1.1546-0.39128 0 0.64249 0.39131 1.2914 0.5121 1.8083 0.13366 0.50721-0.89372 1.5329-0.77129 1.7873 0.13202 0.25765 1.4202 3.0804 1.4202 3.0804s0.76809 1.0193 1.6602 1.0193c0.90011 0 2.8179 0.64731 3.2076 0.78097 0.37678 0.12076 2.1835 0 2.4427-0.51689 0.25764-0.51528 1.7923-1.541 1.6666-1.1578-0.13201 0.38645 0.12563 1.1578 0.5088 1.541 0.38327 0.38325 1.0257 1.417 1.0257 1.417l4.7486-3.7277s3.5893-0.7713 3.7164-0.38325c0.13201 0.38325 2.4346-2.5603 2.4346-2.5603l7.3105-8.9787 2.834-1.9291 2.0483-2.9516 2.8179-5.1382 1.541-5.7582 1.1561-4.3637-2.8227-4.2398-1.1481-3.5956zm-28.482 47.853s-1.7923-1.1545-2.0563-1.5378v-0.38646l-1.2769 3.9725-1.1514 4.2397s2.3026 0.25766 2.5603 0.38325c0.25764 0.124 4.1093-2.1786 4.2413-2.6939 0.12564-0.51528 2.6924-4.747 2.6924-4.747s-4.1013 0.8969-5.0094 0.76969zm69.533-7.4376-1.2849-1.2914s0.13367-1.7922-0.25764-1.7922c-0.37843 0-1.0257 0.12882-1.0257 0.12882l0.64576-4.4958-2.3204-1.4057-0.5056 6.9272-1.6714 3.8565-3.3268 1.2834s1.409 1.4057 1.9211 1.4057c0.50879 0-0.38646 1.5394-0.38646 1.5394l-2.1803 1.9258s-0.76489-0.38805-0.76489-1.4138c0-1.0289-2.0578 1.0257-2.0578 1.0257l-1.409-0.90014-3.8517 3.33-5.2574 2.7004-12.312 7.5729 1.6633 0.89689s1.5394 0.64088 1.6682 0.90012c0.12398 0.2512 3.8469-1.6698 3.8469-1.6698l4.2365-3.0836 2.045-1.7922s3.7277-1.0257 3.5957-0.51205c-0.12232 0.51205 1.1546-2.4363 1.1546-2.4363l3.5924-1.9242 2.1835-2.177 1.7923 0.50401 2.5666-0.8969 4.3621-2.8195 0.76808-2.3139 1.417 0.13687 2.6859-1.9291 1.7954-3.0788-3.3283 1.7986zm-516.97-281.32c1.0257 0.37679 1.665 0.51044 3.8501 0.63926 2.1819 0.12239 2.4395-0.12882 3.4636 0.25281 1.0177 0.38002 1.9194 1.0354 2.3075 0.12399 0.38324-0.89207 0.8969-0.89207 1.2801-1.4074 0.38323-0.51206 0-1.0257 0.63926-1.2818 0.64087-0.25442 1.7986 1.029 1.7986 1.029s-1.4138 0.89849-0.77292 1.0209c0.63926 0.13365 2.4363 0.51528 3.3396 0.63927 0.89851 0.13364 0.12882 0.38483 1.6682 0.52653 1.5362 0.12079 2.1786-0.1417 4.0997-0.1417 1.9258 0 3.0868-0.89045 3.7261-0.63924 0.63927 0.25441 2.8179 0.25441 3.4572 0.13042 0.64088-0.13042 2.1883-1.5362 1.5426-1.5362-0.64569 0-3.0804-0.64571-4.1045-0.77131-1.0241-0.12721-4.2397-0.25601-4.9998 0.12721-0.77612 0.38646-1.673 0.6457-2.1851 0.38646-0.51205-0.25603 2.1851-2.3058 3.9773-2.0514 1.7986 0.25605 4.4893-0.2544 5.3862-0.12719 0.89691 0.12719 3.0852 0.51204 3.0852 0.51204s0.50723-0.25602 0.63444-0.63925c0.13042-0.38485 0.25924-0.76969 0.25924-0.76969l1.285 1.1529s8.4618-3.4604 8.8514-4.1061c0.38484-0.64731 5.7646-2.3107 6.5456-2.177 0.76808 0.12238 6.0223-2.1835 6.9272-1.8002 0.88563 0.38484 5.6374-1.1481 5.6374-1.1481s3.4684-0.77291 4.2381-0.77291c0.77131 0 1.1529-0.89529 0-0.76808-1.1578 0.12721-10.782 0.12721-13.085 0-2.3155-0.12721-7.9562-0.004-8.8531 0.12721-0.89851 0.12881-6.0352 1.5394-8.2122 1.4138-2.1835-0.13043-9.2347 0.89208-9.6179 0.76486-0.38968-0.12882-3.2044-0.25602-2.9467-0.25602 0.24959 0-3.7277 3.2076-4.3686 2.3058-0.63926-0.89689 0-1.5378-0.63926-0.89689-0.63927 0.64087-0.51367 3.594-0.51367 3.594 0.76808 0.51528 2.4363 2.3091 3.594 1.541 1.1481-0.7713 1.7922-0.38485 2.177-0.26086 0.38001 0.13043-1.7922 1.7986-3.0804 1.7986-1.2818 0-5.3894 1.5394-5.3894 1.5394s-1.797-1.6682-2.1819-1.7954c-0.38322-0.12882-2.5603-0.25602-2.9451-0.25602-0.38324 0-0.89852-0.38324-1.0257 0.76969-0.12722 1.1529 0.12719 2.9467-1.1529 2.6907-1.285-0.25763-1.6666 0.25442-2.3107-0.1256-0.64088-0.38645 0.90173-2.3107-0.90335-2.4379-1.7954-0.12721-2.8195-1.409-3.8452 0.63925-1.0273 2.0498-1.6601 2.0498-0.63765 2.4411zm-46.436 7.9465c-0.38968 0.64731 3.3284 0.90173 3.5828 0.39128 0.26891-0.51849 2.5731-0.13365 3.0836-0.89851 0.51205-0.7713 3.0739-2.3123 3.4588-2.0563 0.38484 0.25924-0.76809 1.5394-1.1529 1.6698-0.38485 0.1272 1.2898 0.25281-0.38485 1.5426-1.6634 1.2801-1.2785 2.4379-1.2785 2.4379s-1.4106 0.63927-0.38484 0.8969c1.0257 0.25763 2.9483 1.1529 2.9483 1.1529s0.12721 0.89689 0.12721 1.1545c0 0.25604 0.6457 1.0257 2.0498 0.12883 1.4202-0.89852 4.2381-1.921 4.623-1.5378 0.38323 0.38323 1.285-0.12881 2.5715-0.25764 1.2769-0.12559 2.3075-0.51205 2.3075-0.51205l1.665 0.25764c0.7713 0.38324 1.4154-0.51205 2.7036 0.25441 1.2753 0.7697 3.0675 0.7697 3.0675 0.7697s1.8002-1.409 2.1819-1.5362c0.38645-0.12882 1.1545-0.25603 0.76969-1.1546-0.38324-0.90011-1.7938-2.3091-1.409-2.5731 0.38324-0.25442 1.2802-0.51206 1.1529-2.9467-0.12721-2.4347 0.25603-2.0466-0.38485-1.921-0.63926 0.12883-2.1819 0.89851-2.1819 0.89851l-0.50884-0.12881c-0.25442 0.76807-1.4122 1.2817-1.6762 2.0514-0.25441 0.76807-1.0112 1.1529-1.0112 0.51205 0-0.64087-0.90174-0.77131-1.0386-1.2834-0.11916-0.51367-1.2801-0.38323-1.9194-0.25603-0.64248 0.12721-2.4411-1.1545-3.0836-0.64087-0.63443 0.51367-1.2834-0.25442-1.7954-1.409-0.50723-1.1529-1.1529-2.0563-1.9226-1.9323-0.76969 0.13366-5.515 0-5.515 0l-2.8228 0.25602s-1.5362 0.39129-1.5362 1.1642c0 0.76969-0.25763 1.2834-1.0257 1.5378-0.77452 0.25602-6.4168 2.3074-6.4168 2.3074s1.541 1.0177 1.1561 1.6602zm40.278-3.074-1.4106-0.25763s-0.12722-1.0257-0.51045-1.0257c-0.39772 0-1.5426 1.4106-1.5426 1.4106s1.6714 0.64088 1.9274 1.1545c0.25603 0.51366 0.89528 1.1513 0.89528 1.541 0 0.37841 4.2317-1.285 4.2317-1.285l2.3155-1.1546s0.11917 0.25604 0.25603-0.38324c0.12883-0.64086-0.25603-1.1529 0-1.2834 0.25282-0.12719 1.2801-1.7922 0.25282-1.5362-1.0273 0.2512-3.2108 0-4.2349 0.38324-1.0257 0.38484-2.3042-0.50884-2.177 0.51204 0.124 1.0257-0.003 1.9242-0.003 1.9242zm-20.527-5.9031s0.51205 2.1819 1.5426 1.5426c1.0241-0.64731 3.9708 1.5426 3.9708 1.7922 0 0.26407 1.0241 0.13364 1.0241 0.13364l4.4958-1.5442 2.5088-0.38164s2.367-0.13363 2.7486 0.12883c0.38002 0.25281 2.3139-0.63927 2.3139-0.63927l0.76647-1.2898-1.6698-0.51205 0.38969-1.2818s-0.51688-0.76969-1.6666 0.12721c-1.1626 0.89851-4.3653 2.6907-4.1109 2.3107 0.25763-0.38645-1.2785 0.12559-1.921-0.64571-0.6457-0.76647-1.5394-0.89689-1.5394-0.89689s-1.8035-0.63927-2.4379-0.38324c-0.6441 0.25602 1.1529-1.2818 1.1529-1.2818s0.38485-1.4122-0.39129-1.2817c-0.76163 0.13043-7.0512 1.5394-7.0512 1.5394s-2.6939 1.5378-3.2044 1.1513c-0.51205-0.38324-2.4347 0.25603-2.4347 0.25603l1.2818 0.76968c0.38325-0.38484 4.2317 0.38647 4.2317 0.38647zm28.607-5.2574c0.38324 0.12401 3.4652 1.0225 3.8501 1.1529 0.38325 0.13044 1.5426 0.38486 2.0466 0.25764 0.51205-0.1272 2.5667-1.1513 1.8018-1.5378-0.77129-0.38324-3.2092-0.90656-3.7229-1.1658-0.51205-0.25441-2.4395-0.37519-2.4395-0.37519l-1.1545 0.24959c-0.25282 0.38485-0.76487 1.293-0.38164 1.4186zm-12.317 2.1803c0.52172-0.25441 2.3139-1.0257 2.3139-1.0257l1.5313-1.2801 0.51851-0.64892s-1.1529-1.0193-1.6666-0.64249c-0.51205 0.38485-3.214 1.5426-3.214 1.5426l-0.12721 0.89851-2.1046 0.90173s2.2318 0.51044 2.7486 0.25441zm23.096-0.38324c0.5056 0.12883 2.0466 0.12883 2.1754-0.25763 0.1272-0.38484-0.12722-3.0852-0.12722-3.0852s-0.51849-0.76325-1.1562-0.63604c-0.64086 0.12721-2.6907 1.1481-2.6907 1.1481-0.13044 0.38967 1.2801 2.702 1.7986 2.8308zm-32.4 136.71c-0.0885-0.28501-1.5362-0.7568-2.3042-0.7568-0.76969 0-3.5618-2.702-3.7486-3.2801-0.19967-0.57807-6.4474-2.1126-6.4474-2.1126s-6.8322-0.38646-6.8322-0.57485c0-0.20129-3.2736 2.5957-3.2736 2.5957v0.28662s0.28179 1.3446 0.39128 1.6344c0.0902 0.28661 2.2092-1.5426 2.4009-2.3091 0.19162-0.76648 1.7294-0.96454 2.1126-1.1578 0.39129-0.1868 0.57646 0.77773 0.96292 0.77773 0.38967 0 2.1207 0.57323 2.1207 0.57323l3.4636 1.1546 1.3462 1.2479s0.57485 3.0723 0.57485 3.4636c0 0.38807 2.5989 0.18679 2.5989 0.18679l5.098-0.47019c-0.00091-0.00091 1.6392-0.96936 1.5362-1.2592zm-0.18518 6.449c0.47503 0.19162 1.2431-0.095 1.6328-0.095 0.38967 0 1.6392-0.28822 1.6392-0.28822s0.38324 0.8663 0.38324 1.1561c0 0.2834 2.0176-0.0999 2.0176-0.38967 0-0.28985 0.48146-1.0563 0.48146-1.0563l2.4009-0.47985s3.2768 0.0965 3.5634 0.0965c0.28985 0 0.48307-0.57646-0.0999-1.6344-0.57162-1.0612-2.2141-1.2592-2.5989-2.0305-0.38483-0.76326-2.2092-0.27535-2.6923 0-0.47985 0.29144-3.169-0.66342-3.9435-0.66342-0.76326 0 0 0.86469 0 0.86469l-0.28985 2.7889h-3.1722l-0.0982 0.28662s-0.86792 0.28984-0.86792 0.86792c0.003 0.57646 1.1578 0.38484 1.644 0.57646z" />
    <ellipse
       style="fill:#fffcfc;fill-opacity:1;stroke:#41a041;stroke-width:2.6;stroke-miterlimit:4;stroke-dasharray:none;stroke-opacity:1"
       id="path10634"
       cx="365.43738"
       cy="392.89682"
       rx="25.011372"
       ry="13.218269" />
    <ellipse
       style="fill:#fffcfc;fill-opacity:1;stroke:#983030;stroke-width:2.6;stroke-miterlimit:4;stroke-dasharray:none;stroke-opacity:1"
       id="path10634-5"
       cx="560.88593"
       cy="460.47403"
       rx="25.011372"
       ry="13.218269" />
    <ellipse
       style="fill:#fffcfc;fill-opacity:1;stroke:#800000;stroke-width:2.6;stroke-miterlimit:4;stroke-dasharray:none;stroke-opacity:1"
       id="path10634-3"
       cx="168.59317"
       cy="427.81836"
       rx="25.011372"
       ry="13.218269" />
    <ellipse
       style="fill:#fffcfc;fill-opacity:1;stroke:#a74f4f;stroke-width:2.6;stroke-miterlimit:4;stroke-dasharray:none;stroke-opacity:1"
       id="path10634-56"
       cx="372.86917"
       cy="524.4259"
       rx="25.011372"
       ry="13.218269" />
    <path
       style="fill:none;stroke:#41a041;stroke-width:2.6;stroke-linecap:butt;stroke-linejoin:miter;stroke-miterlimit:4;stroke-dasharray:none;stroke-opacity:1"
       d="M 379.729,285.39794 366.3645,392.88902"
       id="path7806"
       sodipodi:nodetypes="cc" />
    <path
       style="fill:#00ffff;stroke:#00ffff;stroke-width:2.6;stroke-linecap:butt;stroke-linejoin:miter;stroke-miterlimit:4;stroke-dasharray:none;stroke-opacity:1"
       d="m 496.3435,373.26353 20.5913,0.86832 m 0.52325,-0.0836"
       id="path7806-3"
       sodipodi:nodetypes="cc" />
    <path
       style="fill:#00ffff;stroke:#00ffff;stroke-width:2.6;stroke-linecap:butt;stroke-linejoin:miter;stroke-miterlimit:4;stroke-dasharray:none;stroke-opacity:1"
       d="m 521.38002,372.68381 -7.27863,20.76332"
       id="path7806-3-62"
       sodipodi:nodetypes="cc" />
    <path
       style="fill:#00ffff;stroke:#00ffff;stroke-width:2.6;stroke-linecap:butt;stroke-linejoin:miter;stroke-miterlimit:4;stroke-dasharray:none;stroke-opacity:1"
       d="M 521.38002,372.68381 534.0815,403.3898"
       id="path7806-3-61"
       sodipodi:nodetypes="cc" />
    <path
       style="fill:#00ffff;stroke:#00ffff;stroke-width:2.6;stroke-linecap:butt;stroke-linejoin:miter;stroke-miterlimit:4;stroke-dasharray:none;stroke-opacity:1"
       d="m 494.90878,399.41717 18.66936,-5.88644"
       id="path7806-3-6"
       sodipodi:nodetypes="cc" />
    <path
       style="fill:#00ffff;stroke:#00ffff;stroke-width:2.6;stroke-linecap:butt;stroke-linejoin:miter;stroke-miterlimit:4;stroke-dasharray:none;stroke-opacity:1"
       d="m 513.57814,393.53073 20.50336,9.85907"
       id="path7806-3-0"
       sodipodi:nodetypes="cc" />
    <path
       style="fill:none;stroke:#800000;stroke-width:2.6;stroke-linecap:butt;stroke-linejoin:miter;stroke-miterlimit:4;stroke-dasharray:none;stroke-opacity:1"
       d="M 371.74439,524.54949 437.39434,662.4221"
       id="path7806-2"
       sodipodi:nodetypes="cc" />
    <path
       style="fill:none;stroke:#800000;stroke-width:2.6;stroke-linecap:butt;stroke-linejoin:miter;stroke-miterlimit:4;stroke-dasharray:none;stroke-opacity:1"
       d="M 559.75747,463.819 437.39434,662.4221"
       id="path7806-2-9"
       sodipodi:nodetypes="cc" />
    <path
       style="fill:none;stroke:#800000;stroke-width:2.6;stroke-linecap:butt;stroke-linejoin:miter;stroke-miterlimit:4;stroke-dasharray:none;stroke-opacity:1"
       d="M 168.04282,427.20108 437.39434,662.4221"
       id="path7806-2-1"
       sodipodi:nodetypes="cc" />
    <rect
       style="fill:#ffffff;stroke:none;stroke-width:6.48945"
       id="rect6262-3"
       width="146.41805"
       height="26.609449"
       x="363.8605"
       y="641.72571" />
    <text
       xml:space="preserve"
       style="font-style:normal;font-weight:normal;font-size:21.3333px;line-height:1.25;font-family:sans-serif;fill:#800000;fill-opacity:1;stroke:none"
       x="392.5123"
       y="661.9104"
       id="text2848-6"><tspan
         sodipodi:role="line"
         id="tspan2846-7"
         x="392.5123"
         y="661.9104"
         style="font-size:21.3333px;fill:#800000">backups</tspan></text>
    <rect
       style="fill:#ffffff;stroke:none;stroke-width:6.48945"
       id="rect6262"
       width="146.41805"
       height="26.609449"
       x="307.76639"
       y="258.56342" />
    <text
       xml:space="preserve"
       style="font-style:normal;font-weight:normal;font-size:21.3333px;line-height:1.25;font-family:sans-serif;fill:#008000;fill-opacity:1;stroke:none"
       x="323.70987"
       y="278.74805"
       id="text2848"><tspan
         sodipodi:role="line"
         id="tspan2846"
         x="323.70987"
         y="278.74805"
         style="font-size:21.3333px;fill:#008000">productive</tspan></text>
    <ellipse
       style="fill:#ffffff;fill-opacity:1;stroke:#00ffff;stroke-width:2.6;stroke-miterlimit:4;stroke-dasharray:none;stroke-opacity:1"
       id="path20579"
       cx="494.86166"
       cy="399.55655"
       rx="6.9141717"
       ry="6.3580532" />
    <ellipse
       style="fill:#ffffff;fill-opacity:1;stroke:#00ffff;stroke-width:2.6;stroke-miterlimit:4;stroke-dasharray:none;stroke-opacity:1"
       id="path20579-2"
       cx="521.31592"
       cy="372.55334"
       rx="6.9141717"
       ry="6.3580532" />
    <path
       style="fill:#00ffff;stroke:#00ffff;stroke-width:2.6;stroke-linecap:butt;stroke-linejoin:miter;stroke-miterlimit:4;stroke-dasharray:none;stroke-opacity:1"
       d="m 496.3435,373.26353 17.23464,20.2672"
       id="path7806-3-8"
       sodipodi:nodetypes="cc" />
    <ellipse
       style="fill:#ffffff;fill-opacity:1;stroke:#00ffff;stroke-width:2.6;stroke-miterlimit:4;stroke-dasharray:none;stroke-opacity:1"
       id="path20579-7"
       cx="497.37003"
       cy="373.17499"
       rx="6.9141717"
       ry="6.3580532" />
    <ellipse
       style="fill:#ffffff;fill-opacity:1;stroke:#00ffff;stroke-width:2.6;stroke-miterlimit:4;stroke-dasharray:none;stroke-opacity:1"
       id="path20579-0"
       cx="533.51733"
       cy="402.48703"
       rx="6.9141717"
       ry="6.3580532" />
    <ellipse
       style="fill:#dda1a1;fill-opacity:1;stroke:#00ffff;stroke-width:2.6;stroke-miterlimit:4;stroke-dasharray:none;stroke-opacity:1"
       id="path20579-9"
       cx="513.31592"
       cy="392.55334"
       rx="6.9141717"
       ry="6.3580532" />
    <g
       id="g24950"
       transform="translate(-350.79777,159.45644)">
      <path
         style="fill:#00ffff;stroke:#00ffff;stroke-width:2.6;stroke-linecap:butt;stroke-linejoin:miter;stroke-miterlimit:4;stroke-dasharray:none;stroke-opacity:1"
         d="m 528.90647,367.36775 20.5913,0.86832 m 0.52325,-0.0836"
         id="path7806-3-1"
         sodipodi:nodetypes="cc" />
      <path
         style="fill:#00ffff;stroke:#00ffff;stroke-width:2.6;stroke-linecap:butt;stroke-linejoin:miter;stroke-miterlimit:4;stroke-dasharray:none;stroke-opacity:1"
         d="m 553.94299,366.78803 -7.27863,20.76332"
         id="path7806-3-62-2"
         sodipodi:nodetypes="cc" />
      <path
         style="fill:#00ffff;stroke:#00ffff;stroke-width:2.6;stroke-linecap:butt;stroke-linejoin:miter;stroke-miterlimit:4;stroke-dasharray:none;stroke-opacity:1"
         d="m 553.94299,366.78803 12.70148,30.70599"
         id="path7806-3-61-9"
         sodipodi:nodetypes="cc" />
      <path
         style="fill:#00ffff;stroke:#00ffff;stroke-width:2.6;stroke-linecap:butt;stroke-linejoin:miter;stroke-miterlimit:4;stroke-dasharray:none;stroke-opacity:1"
         d="m 527.47175,393.52139 18.66936,-5.88644"
         id="path7806-3-6-3"
         sodipodi:nodetypes="cc" />
      <path
         style="fill:#00ffff;stroke:#00ffff;stroke-width:2.6;stroke-linecap:butt;stroke-linejoin:miter;stroke-miterlimit:4;stroke-dasharray:none;stroke-opacity:1"
         d="m 546.14111,387.63495 20.50336,9.85907"
         id="path7806-3-0-1"
         sodipodi:nodetypes="cc" />
      <ellipse
         style="fill:#ffffff;fill-opacity:1;stroke:#00ffff;stroke-width:2.6;stroke-miterlimit:4;stroke-dasharray:none;stroke-opacity:1"
         id="path20579-94"
         cx="527.42462"
         cy="393.66077"
         rx="6.9141717"
         ry="6.3580532" />
      <ellipse
         style="fill:#ffffff;fill-opacity:1;stroke:#00ffff;stroke-width:2.6;stroke-miterlimit:4;stroke-dasharray:none;stroke-opacity:1"
         id="path20579-2-7"
         cx="553.87891"
         cy="366.65756"
         rx="6.9141717"
         ry="6.3580532" />
      <path
         style="fill:#00ffff;stroke:#00ffff;stroke-width:2.6;stroke-linecap:butt;stroke-linejoin:miter;stroke-miterlimit:4;stroke-dasharray:none;stroke-opacity:1"
         d="m 528.90647,367.36775 17.23464,20.2672"
         id="path7806-3-8-8"
         sodipodi:nodetypes="cc" />
      <ellipse
         style="fill:#ffffff;fill-opacity:1;stroke:#00ffff;stroke-width:2.6;stroke-miterlimit:4;stroke-dasharray:none;stroke-opacity:1"
         id="path20579-7-4"
         cx="529.93298"
         cy="367.27921"
         rx="6.9141717"
         ry="6.3580532" />
      <ellipse
         style="fill:#ffffff;fill-opacity:1;stroke:#00ffff;stroke-width:2.6;stroke-miterlimit:4;stroke-dasharray:none;stroke-opacity:1"
         id="path20579-0-5"
         cx="566.08032"
         cy="396.59125"
         rx="6.9141717"
         ry="6.3580532" />
      <ellipse
         style="fill:#dda1a1;fill-opacity:1;stroke:#00ffff;stroke-width:2.6;stroke-miterlimit:4;stroke-dasharray:none;stroke-opacity:1"
         id="path20579-9-0"
         cx="545.87891"
         cy="386.65756"
         rx="6.9141717"
         ry="6.3580532" />
    </g>
    <path
       style="fill:#00ffff;stroke:#00ffff;stroke-width:2.6;stroke-linecap:butt;stroke-linejoin:miter;stroke-miterlimit:4;stroke-dasharray:none;stroke-opacity:1"
       d="m 620.00638,577.78464 20.5913,0.86832 m 0.52325,-0.0836"
       id="path7806-3-3"
       sodipodi:nodetypes="cc" />
    <path
       style="fill:#00ffff;stroke:#00ffff;stroke-width:2.6;stroke-linecap:butt;stroke-linejoin:miter;stroke-miterlimit:4;stroke-dasharray:none;stroke-opacity:1"
       d="m 645.0429,577.20492 -7.27863,20.76332"
       id="path7806-3-62-6"
       sodipodi:nodetypes="cc" />
    <path
       style="fill:#00ffff;stroke:#00ffff;stroke-width:2.6;stroke-linecap:butt;stroke-linejoin:miter;stroke-miterlimit:4;stroke-dasharray:none;stroke-opacity:1"
       d="m 645.0429,577.20492 12.70148,30.70599"
       id="path7806-3-61-1"
       sodipodi:nodetypes="cc" />
    <path
       style="fill:#00ffff;stroke:#00ffff;stroke-width:2.6;stroke-linecap:butt;stroke-linejoin:miter;stroke-miterlimit:4;stroke-dasharray:none;stroke-opacity:1"
       d="m 618.57166,603.93828 18.66936,-5.88644"
       id="path7806-3-6-0"
       sodipodi:nodetypes="cc" />
    <path
       style="fill:#00ffff;stroke:#00ffff;stroke-width:2.6;stroke-linecap:butt;stroke-linejoin:miter;stroke-miterlimit:4;stroke-dasharray:none;stroke-opacity:1"
       d="m 637.24102,598.05184 20.50336,9.85907"
       id="path7806-3-0-6"
       sodipodi:nodetypes="cc" />
    <ellipse
       style="fill:#ffffff;fill-opacity:1;stroke:#00ffff;stroke-width:2.6;stroke-miterlimit:4;stroke-dasharray:none;stroke-opacity:1"
       id="path20579-3"
       cx="618.52454"
       cy="604.07764"
       rx="6.9141717"
       ry="6.3580532" />
    <ellipse
       style="fill:#ffffff;fill-opacity:1;stroke:#00ffff;stroke-width:2.6;stroke-miterlimit:4;stroke-dasharray:none;stroke-opacity:1"
       id="path20579-2-2"
       cx="644.97882"
       cy="577.07446"
       rx="6.9141717"
       ry="6.3580532" />
    <path
       style="fill:#00ffff;stroke:#00ffff;stroke-width:2.6;stroke-linecap:butt;stroke-linejoin:miter;stroke-miterlimit:4;stroke-dasharray:none;stroke-opacity:1"
       d="m 620.00638,577.78464 17.23464,20.2672"
       id="path7806-3-8-0"
       sodipodi:nodetypes="cc" />
    <ellipse
       style="fill:#ffffff;fill-opacity:1;stroke:#00ffff;stroke-width:2.6;stroke-miterlimit:4;stroke-dasharray:none;stroke-opacity:1"
       id="path20579-7-6"
       cx="621.0329"
       cy="577.69611"
       rx="6.9141717"
       ry="6.3580532" />
    <ellipse
       style="fill:#ffffff;fill-opacity:1;stroke:#00ffff;stroke-width:2.6;stroke-miterlimit:4;stroke-dasharray:none;stroke-opacity:1"
       id="path20579-0-1"
       cx="657.18024"
       cy="607.00812"
       rx="6.9141717"
       ry="6.3580532" />
    <ellipse
       style="fill:#dda1a1;fill-opacity:1;stroke:#00ffff;stroke-width:2.6;stroke-miterlimit:4;stroke-dasharray:none;stroke-opacity:1"
       id="path20579-9-5"
       cx="636.97882"
       cy="597.07446"
       rx="6.9141717"
       ry="6.3580532" />
    <path
       style="fill:#00ffff;stroke:#00ffff;stroke-width:2.6;stroke-linecap:butt;stroke-linejoin:miter;stroke-miterlimit:4;stroke-dasharray:none;stroke-opacity:1"
       d="m 337.82703,456.7248 20.5913,0.86832 m 0.52325,-0.0836"
       id="path7806-3-5"
       sodipodi:nodetypes="cc" />
    <path
       style="fill:#00ffff;stroke:#00ffff;stroke-width:2.6;stroke-linecap:butt;stroke-linejoin:miter;stroke-miterlimit:4;stroke-dasharray:none;stroke-opacity:1"
       d="m 362.86355,456.14508 -7.27863,20.76332"
       id="path7806-3-62-4"
       sodipodi:nodetypes="cc" />
    <path
       style="fill:#00ffff;stroke:#00ffff;stroke-width:2.6;stroke-linecap:butt;stroke-linejoin:miter;stroke-miterlimit:4;stroke-dasharray:none;stroke-opacity:1"
       d="m 362.86355,456.14508 12.70148,30.70599"
       id="path7806-3-61-7"
       sodipodi:nodetypes="cc" />
    <path
       style="fill:#00ffff;stroke:#00ffff;stroke-width:2.6;stroke-linecap:butt;stroke-linejoin:miter;stroke-miterlimit:4;stroke-dasharray:none;stroke-opacity:1"
       d="M 336.39231,482.87844 355.06167,476.992"
       id="path7806-3-6-6"
       sodipodi:nodetypes="cc" />
    <path
       style="fill:#00ffff;stroke:#00ffff;stroke-width:2.6;stroke-linecap:butt;stroke-linejoin:miter;stroke-miterlimit:4;stroke-dasharray:none;stroke-opacity:1"
       d="m 355.06167,476.992 20.50336,9.85907"
       id="path7806-3-0-5"
       sodipodi:nodetypes="cc" />
    <ellipse
       style="fill:#ffffff;fill-opacity:1;stroke:#00ffff;stroke-width:2.6;stroke-miterlimit:4;stroke-dasharray:none;stroke-opacity:1"
       id="path20579-6"
       cx="336.34521"
       cy="483.01782"
       rx="6.9141717"
       ry="6.3580532" />
    <ellipse
       style="fill:#ffffff;fill-opacity:1;stroke:#00ffff;stroke-width:2.6;stroke-miterlimit:4;stroke-dasharray:none;stroke-opacity:1"
       id="path20579-2-9"
       cx="362.79947"
       cy="456.01462"
       rx="6.9141717"
       ry="6.3580532" />
    <path
       style="fill:#00ffff;stroke:#00ffff;stroke-width:2.6;stroke-linecap:butt;stroke-linejoin:miter;stroke-miterlimit:4;stroke-dasharray:none;stroke-opacity:1"
       d="m 337.82703,456.7248 17.23464,20.2672"
       id="path7806-3-8-3"
       sodipodi:nodetypes="cc" />
    <ellipse
       style="fill:#ffffff;fill-opacity:1;stroke:#00ffff;stroke-width:2.6;stroke-miterlimit:4;stroke-dasharray:none;stroke-opacity:1"
       id="path20579-7-7"
       cx="338.85358"
       cy="456.63626"
       rx="6.9141717"
       ry="6.3580532" />
    <ellipse
       style="fill:#ffffff;fill-opacity:1;stroke:#00ffff;stroke-width:2.6;stroke-miterlimit:4;stroke-dasharray:none;stroke-opacity:1"
       id="path20579-0-4"
       cx="375.00089"
       cy="485.9483"
       rx="6.9141717"
       ry="6.3580532" />
    <ellipse
       style="fill:#dda1a1;fill-opacity:1;stroke:#00ffff;stroke-width:2.6;stroke-miterlimit:4;stroke-dasharray:none;stroke-opacity:1"
       id="path20579-9-52"
       cx="354.79947"
       cy="476.01462"
       rx="6.9141717"
       ry="6.3580532" />
    <path
       style="fill:#00ffff;stroke:#00ffff;stroke-width:2.6;stroke-linecap:butt;stroke-linejoin:miter;stroke-miterlimit:4;stroke-dasharray:none;stroke-opacity:1"
       d="m 113.23138,363.74554 20.5913,0.86832 m 0.52325,-0.0836"
       id="path7806-3-54"
       sodipodi:nodetypes="cc" />
    <path
       style="fill:#00ffff;stroke:#00ffff;stroke-width:2.6;stroke-linecap:butt;stroke-linejoin:miter;stroke-miterlimit:4;stroke-dasharray:none;stroke-opacity:1"
       d="m 138.2679,363.16582 -7.27863,20.76332"
       id="path7806-3-62-7"
       sodipodi:nodetypes="cc" />
    <path
       style="fill:#00ffff;stroke:#00ffff;stroke-width:2.6;stroke-linecap:butt;stroke-linejoin:miter;stroke-miterlimit:4;stroke-dasharray:none;stroke-opacity:1"
       d="m 138.2679,363.16582 12.70148,30.70599"
       id="path7806-3-61-4"
       sodipodi:nodetypes="cc" />
    <path
       style="fill:#00ffff;stroke:#00ffff;stroke-width:2.6;stroke-linecap:butt;stroke-linejoin:miter;stroke-miterlimit:4;stroke-dasharray:none;stroke-opacity:1"
       d="m 111.79666,389.89918 18.66936,-5.88644"
       id="path7806-3-6-4"
       sodipodi:nodetypes="cc" />
    <path
       style="fill:#00ffff;stroke:#00ffff;stroke-width:2.6;stroke-linecap:butt;stroke-linejoin:miter;stroke-miterlimit:4;stroke-dasharray:none;stroke-opacity:1"
       d="m 130.46602,384.01274 20.50336,9.85907"
       id="path7806-3-0-3"
       sodipodi:nodetypes="cc" />
    <ellipse
       style="fill:#ffffff;fill-opacity:1;stroke:#00ffff;stroke-width:2.6;stroke-miterlimit:4;stroke-dasharray:none;stroke-opacity:1"
       id="path20579-07"
       cx="111.74953"
       cy="390.03854"
       rx="6.9141717"
       ry="6.3580532" />
    <ellipse
       style="fill:#ffffff;fill-opacity:1;stroke:#00ffff;stroke-width:2.6;stroke-miterlimit:4;stroke-dasharray:none;stroke-opacity:1"
       id="path20579-2-8"
       cx="138.20381"
       cy="363.03534"
       rx="6.9141717"
       ry="6.3580532" />
    <path
       style="fill:#00ffff;stroke:#00ffff;stroke-width:2.6;stroke-linecap:butt;stroke-linejoin:miter;stroke-miterlimit:4;stroke-dasharray:none;stroke-opacity:1"
       d="m 113.23138,363.74554 17.23464,20.2672"
       id="path7806-3-8-6"
       sodipodi:nodetypes="cc" />
    <ellipse
       style="fill:#ffffff;fill-opacity:1;stroke:#00ffff;stroke-width:2.6;stroke-miterlimit:4;stroke-dasharray:none;stroke-opacity:1"
       id="path20579-7-8"
       cx="114.25789"
       cy="363.65698"
       rx="6.9141717"
       ry="6.3580532" />
    <ellipse
       style="fill:#ffffff;fill-opacity:1;stroke:#00ffff;stroke-width:2.6;stroke-miterlimit:4;stroke-dasharray:none;stroke-opacity:1"
       id="path20579-0-8"
       cx="150.40523"
       cy="392.96902"
       rx="6.9141717"
       ry="6.3580532" />
    <ellipse
       style="fill:#dda1a1;fill-opacity:1;stroke:#00ffff;stroke-width:2.6;stroke-miterlimit:4;stroke-dasharray:none;stroke-opacity:1"
       id="path20579-9-4"
       cx="130.20381"
       cy="383.03534"
       rx="6.9141717"
       ry="6.3580532" />
  </g>
  <metadata
     id="metadata26">
    <rdf:RDF />
  </metadata>
</svg>
