<?xml version="1.0" encoding="UTF-8" standalone="no"?>
<!-- Created with Inkscape (http://www.inkscape.org/) -->

<svg
   width="97.643639mm"
   height="17.973083mm"
   viewBox="0 0 97.643639 17.973083"
   version="1.1"
   id="svg5"
   inkscape:version="1.1.1 (3bf5ae0d25, 2021-09-20)"
   sodipodi:docname="witzig.svg"
   xmlns:inkscape="http://www.inkscape.org/namespaces/inkscape"
   xmlns:sodipodi="http://sodipodi.sourceforge.net/DTD/sodipodi-0.dtd"
   xmlns="http://www.w3.org/2000/svg"
   xmlns:svg="http://www.w3.org/2000/svg">
  <sodipodi:namedview
     id="namedview7"
     pagecolor="#ffffff"
     bordercolor="#666666"
     borderopacity="1.0"
     inkscape:pageshadow="2"
     inkscape:pageopacity="0.0"
     inkscape:pagecheckerboard="0"
     inkscape:document-units="mm"
     showgrid="false"
     fit-margin-top="0"
     fit-margin-left="0"
     fit-margin-right="0"
     fit-margin-bottom="0"
     inkscape:zoom="1.4574355"
     inkscape:cx="190.74601"
     inkscape:cy="249.06763"
     inkscape:window-width="1574"
     inkscape:window-height="996"
     inkscape:window-x="200"
     inkscape:window-y="116"
     inkscape:window-maximized="0"
     inkscape:current-layer="g836" />
  <defs
     id="defs2" />
  <g
     inkscape:label="Ebene 1"
     inkscape:groupmode="layer"
     id="layer1"
     transform="translate(-51.997638,-82.651006)">
    <g
       id="g836"
       transform="translate(-15.201854,69.594649)">
      <path
         style="fill:#fb0001;stroke-width:0.999998"
         d="m 163.56564,30.893378 c -0.0372,-0.142338 -0.14253,-0.177607 -0.6742,-0.225784 -0.34654,-0.0314 -0.66057,-0.03825 -0.69783,-0.01522 -0.0373,0.02303 -0.41913,0.0138 -0.8486,-0.02051 -0.42945,-0.03431 -0.79868,-0.04453 -0.82052,-0.0227 -0.0218,0.02183 -1.1916,0.053 -2.5995,0.06927 -1.40791,0.01627 -2.71222,0.03237 -2.89849,0.03579 -0.57467,0.01053 -2.72939,0.0136 -4.064,0.0058 -0.6985,-0.0041 -2.01295,-0.0049 -2.921,-0.0019 -0.90805,0.0031 -1.7653,-0.0019 -1.905,-0.01099 -0.37206,-0.02425 -12.17693,-0.161805 -15.24,-0.177584 -1.13091,-0.0058 -1.33019,-0.02512 -1.2065,-0.116821 0.0815,-0.06041 0.14817,-0.134219 0.14817,-0.164009 0,-0.10456 -0.16424,-0.05264 -0.3142,0.09933 -0.11976,0.121365 -0.26666,0.149811 -0.7018,0.135904 -0.30268,-0.0097 -2.16958,-0.04256 -4.14867,-0.07309 -1.97908,-0.03053 -3.96028,-0.07574 -4.40266,-0.100478 -1.04955,-0.05869 -0.76171,-0.05577 -3.81461,-0.0387 -1.46938,0.0082 -2.72668,-0.0038 -2.794,-0.02676 -0.0673,-0.02293 -1.55114,-0.06196 -3.29739,-0.08673 -1.74625,-0.02477 -4.10845,-0.06451 -5.24933,-0.08831 -1.14088,-0.0238 -3.61738,-0.06794 -5.503326,-0.09809 -3.695232,-0.05907 -4.419365,-0.07632 -6.434666,-0.153227 -0.721783,-0.02755 -2.531533,-0.06723 -4.021666,-0.08819 -1.490134,-0.02096 -4.023784,-0.06251 -5.630334,-0.09235 -1.606549,-0.02983 -3.549649,-0.06354 -4.317999,-0.07491 -0.76835,-0.01136 -2.44475,-0.06837 -3.725333,-0.126673 -1.280584,-0.05831 -2.728384,-0.11863 -3.217334,-0.134054 -1.148257,-0.03622 -3.372067,-0.189675 -3.451897,-0.238199 -0.03397,-0.02065 -0.365069,-0.0076 -0.735768,0.02891 -0.370701,0.03655 -0.713601,0.05126 -0.762,0.0327 -0.05569,-0.02136 -0.09131,-0.569701 -0.097,-1.493333 -0.02363,-3.83037 -0.02526,-10.832165 -0.0026,-11.323247 0.01394,-0.302683 0.03179,-1.01512 0.03967,-1.583192 l 0.01432,-1.032858 0.299212,-0.228219 c 0.28306,-0.2159 0.305218,-0.220008 0.410451,-0.07609 0.09052,0.123797 0.178985,0.141293 0.475041,0.09395 0.200091,-0.032 0.473942,-0.1366 0.608555,-0.232454 0.157212,-0.111944 0.296671,-0.151502 0.389913,-0.110598 0.07984,0.03502 0.183261,0.05429 0.229828,0.04281 0.04657,-0.01148 0.287532,-0.03229 0.535479,-0.04625 0.324546,-0.01828 0.463437,0.0075 0.495891,0.09209 0.04578,0.119307 0.54333,0.170468 0.524937,0.05398 -0.02873,-0.181957 0.02694,-0.201439 0.179942,-0.06297 0.133482,0.120799 0.283256,0.148631 0.6985,0.129802 0.290722,-0.01318 0.705921,-0.02885 0.922666,-0.03481 0.216745,-0.006 0.379865,-0.03385 0.362489,-0.06197 -0.01738,-0.02812 0.06063,-0.09314 0.173353,-0.1445 0.156253,-0.07119 0.196635,-0.06911 0.16996,0.0088 -0.01924,0.05619 0.09442,0.184503 0.252595,0.285137 0.259016,0.164795 0.344895,0.175583 0.864552,0.108604 0.868237,-0.111909 0.967862,-0.102702 1.019356,0.09421 0.02917,0.111551 0.09103,0.156664 0.172138,0.125539 0.06963,-0.02672 0.175493,-0.008 0.235245,0.04158 0.08058,0.06688 0.142015,0.04251 0.237869,-0.09434 0.08619,-0.123046 0.177889,-0.165827 0.275317,-0.128441 0.08035,0.03083 0.892402,0.07845 1.804565,0.105813 0.912163,0.02736 1.671179,0.08335 1.686701,0.124405 0.04471,0.118263 0.422033,0.08697 0.702954,-0.0583 0.220117,-0.113826 0.319993,-0.117728 0.694296,-0.02712 0.240457,0.05821 0.48482,0.163415 0.543028,0.233801 0.05821,0.07039 0.106417,0.09212 0.107129,0.04829 6.78e-4,-0.04383 0.03536,-0.133486 0.07698,-0.199247 0.0644,-0.101738 0.09544,-0.09981 0.20817,0.01292 0.172922,0.172922 0.94945,0.28268 1.102322,0.155807 0.134646,-0.111746 0.389228,-0.03438 0.389228,0.118277 0,0.07653 0.192154,0.109477 0.674934,0.115726 0.374459,0.0049 0.749741,0.05546 0.842967,0.113676 0.137111,0.08563 0.242724,0.07817 0.573899,-0.04054 0.503172,-0.180352 1.079059,-0.196953 1.014706,-0.02925 -0.05572,0.145215 0.446807,0.120726 0.850297,-0.04144 0.241811,-0.09718 0.286589,-0.09256 0.383233,0.03961 0.108687,0.148638 0.401297,0.120964 0.401297,-0.03795 0,-0.04158 0.149635,-0.07561 0.332522,-0.07561 0.253846,0 0.371915,0.05008 0.499018,0.211667 0.174697,0.222091 0.474134,0.273661 0.69246,0.119258 0.09557,-0.06759 0.100811,-0.100442 0.02117,-0.132759 -0.273383,-0.110928 -0.04049,-0.17558 0.656166,-0.182153 0.968249,-0.0091 1.038056,0.127475 0.145963,0.285643 -0.259835,0.04607 -0.301494,0.07862 -0.222466,0.173847 0.125254,0.150922 0.320282,0.14817 0.698498,-0.0099 0.196725,-0.0822 0.288113,-0.168443 0.258967,-0.244395 -0.03592,-0.09361 0.145568,-0.129826 0.896226,-0.178863 0.517696,-0.03382 0.962078,-0.04068 0.987517,-0.01524 0.127838,0.127838 -0.114813,0.223327 -0.546416,0.215028 -0.693578,-0.01334 -1.212245,0.231083 -0.814364,0.383764 0.207699,0.0797 0.514426,0.06097 0.748584,-0.04572 0.148946,-0.06786 0.245775,-0.07048 0.321484,-0.0087 0.05959,0.04864 0.413141,0.09387 0.785674,0.100526 0.372533,0.0067 0.772583,0.01392 0.889,0.01616 0.116417,0.0022 0.258496,0.0428 0.315731,0.09015 0.07032,0.05818 0.183705,0.05833 0.3497,4.23e-4 0.297694,-0.103776 1.553513,-0.05868 1.782779,0.06402 0.124879,0.06683 0.196822,0.05602 0.297576,-0.04474 0.20445,-0.204449 0.16621,-0.225925 -0.290453,-0.163118 -0.41416,0.05696 -0.423333,0.05347 -0.423333,-0.161388 0,-0.219894 -0.190279,-0.306544 -0.296334,-0.134945 -0.0642,0.10387 -0.438579,0.112326 -0.501006,0.01132 -0.02493,-0.04034 0.02044,-0.131863 0.100836,-0.203376 0.138335,-0.123054 0.394576,-0.134504 1.60667,-0.0718 0.142836,0.0074 0.1905,0.06157 0.1905,0.216526 0,0.113668 -0.0381,0.230217 -0.08467,0.258997 -0.04657,0.02878 -0.08467,0.107228 -0.08467,0.17433 0,0.09128 0.116015,0.122003 0.46067,0.122003 0.253368,0 0.484217,-0.0381 0.512997,-0.08467 0.125246,-0.202652 0.261336,-0.07616 0.227736,0.211667 l -0.0346,0.296333 h -0.767893 c -0.704062,0 -1.010867,-0.05238 -1.576574,-0.26916 -0.112196,-0.04299 -0.226496,-0.04765 -0.254,-0.01034 -0.04832,0.06554 -1.237231,0.127134 -2.547674,0.131985 -1.277579,0.0047 -3.43891,4.24e-4 -3.80317,-0.0076 -0.205794,-0.0045 -0.402266,-0.05371 -0.436604,-0.109266 -0.0536,-0.08673 -0.327468,-0.117421 -1.432892,-0.16058 -0.06985,-0.0027 -0.37904,-0.0025 -0.687089,5.93e-4 -0.588883,0.0059 -1.006245,-0.100709 -1.006245,-0.256941 0,-0.0511 -0.103125,-0.01179 -0.229169,0.08736 -0.147475,0.116005 -0.296836,0.163281 -0.418991,0.132622 -0.104403,-0.0262 -0.544201,-0.04881 -0.977331,-0.05023 -0.43313,-0.0014 -1.159542,-0.02519 -1.614251,-0.05281 -0.658731,-0.04001 -0.808448,-0.07226 -0.736721,-0.158683 0.06471,-0.07798 0.05911,-0.128437 -0.01993,-0.179505 -0.166898,-0.107837 -1.40615,-0.06282 -1.54967,0.05629 -0.100256,0.0832 -0.134843,0.07673 -0.176998,-0.03312 -0.03832,-0.09986 -0.163669,-0.136536 -0.466669,-0.136536 -0.383249,0 -0.555829,0.107017 -0.308441,0.191264 0.05821,0.01982 -0.284328,0.03455 -0.761191,0.03272 -0.476863,-0.0018 -0.820867,-0.03185 -0.764452,-0.06672 0.05642,-0.03487 0.07466,-0.0913 0.04055,-0.125413 -0.08825,-0.08825 -0.978733,-0.115752 -1.192111,-0.03682 -0.114049,0.04219 -0.209738,0.02748 -0.264218,-0.04062 -0.05758,-0.07198 -0.499254,-0.126566 -1.355413,-0.167526 -0.6985,-0.03342 -1.44145,-0.07308 -1.651,-0.08814 -0.553154,-0.03976 -1.809314,-0.105626 -3.239389,-0.169865 -0.937585,-0.04212 -1.28122,-0.03 -1.375833,0.04853 -0.09681,0.08034 -0.153928,0.08158 -0.245815,0.0053 -0.0845,-0.07013 -0.202778,-0.07542 -0.402166,-0.018 -0.265956,0.07659 -0.269148,0.08179 -0.05463,0.08898 0.12531,0.0042 0.251392,0.04575 0.280183,0.09233 0.03385,0.05477 -0.187276,0.07324 -0.625879,0.05228 -0.728095,-0.03481 -0.852394,0.02097 -0.980188,0.439851 -0.0975,0.319583 -0.07281,3.299696 0.04468,5.393959 0.08374,1.492583 0.08652,2.067687 0.01187,2.455334 -0.06576,0.341473 -0.07124,0.616431 -0.01685,0.844882 0.04435,0.186267 0.08534,1.195917 0.09109,2.243667 0.0057,1.04775 0.03688,2.00025 0.06917,2.116667 0.05076,0.183008 0.121264,0.218922 0.520727,0.265256 0.25411,0.02947 0.57552,0.09852 0.714244,0.153444 0.260996,0.103327 0.975815,0.05167 1.245469,-0.09001 0.08792,-0.0462 0.16338,-0.04222 0.195853,0.01032 0.03065,0.0496 0.308227,0.07245 0.661305,0.05444 0.720339,-0.03673 1.960477,0.0785 2.25948,0.20995 0.198947,0.08746 1.338683,0.225055 3.386667,0.408847 0.48895,0.04388 1.7272,0.10177 2.751666,0.128644 1.024467,0.02687 1.938867,0.05266 2.032,0.05731 1.118253,0.0558 5.220661,0.200558 7.704666,0.271879 1.164167,0.03343 2.573867,0.09754 3.132667,0.142477 0.5588,0.04494 1.980461,0.0998 3.159246,0.121918 1.178785,0.02212 2.169554,0.05647 2.201711,0.07635 0.03216,0.01987 1.620393,0.05921 3.529419,0.08742 1.90902,0.02821 4.42345,0.0745 5.58761,0.10288 1.16417,0.02838 4.79129,0.05645 8.06026,0.0624 4.611,0.0084 5.967,-0.01261 6.04802,-0.09362 0.16896,-0.168944 0.0117,-0.232084 -0.54603,-0.2192 -0.6367,0.01471 -1.38909,-0.265361 -1.11898,-0.416527 0.0854,-0.04776 0.31138,-0.08176 0.50229,-0.07554 0.19091,0.0062 0.72005,0.0098 1.17588,0.0079 0.73138,-0.003 0.86073,0.01939 1.10067,0.190532 l 0.27189,0.193939 -0.41677,0.04233 c -0.25215,0.02561 -0.4322,0.08921 -0.45583,0.161006 -0.0286,0.08694 0.0121,0.105284 0.15237,0.06861 0.11345,-0.02967 0.28051,0.0082 0.41006,0.09299 0.26982,0.176565 -0.11559,0.158449 5.55951,0.261321 7.85157,0.142326 10.58026,0.17946 12.446,0.169377 2.22687,-0.01204 8.45632,-0.0082 10.20233,0.0063 0.72178,0.006 1.69333,-0.02278 2.159,-0.06392 0.46567,-0.04115 0.93595,-0.04264 1.04509,-0.0033 0.10914,0.03932 0.66159,0.05123 1.22767,0.02647 1.99589,-0.08729 3.58604,-0.137399 5.13557,-0.161835 0.92003,-0.01451 1.66468,-0.06465 1.80468,-0.12151 0.13109,-0.05325 0.63685,-0.09681 1.12393,-0.09681 0.87271,0 0.88678,-0.0032 0.96816,-0.217179 0.0454,-0.119448 0.0826,-0.817948 0.0826,-1.552222 0,-0.734274 0.0187,-1.353714 0.0415,-1.376533 0.0325,-0.0325 0.14198,-2.622403 0.13543,-3.204067 -0.0199,-1.774726 0.005,-4.26971 0.0432,-4.331608 0.0279,-0.0451 0.0233,-0.593895 -0.0102,-1.219533 -0.0459,-0.856204 -0.0886,-1.137521 -0.17291,-1.137521 -0.0616,0 -0.16177,-0.06836 -0.22262,-0.15191 -0.13346,-0.18325 -0.76261,-0.230641 -2.65064,-0.199658 -1.47027,0.02413 -1.48039,0.02398 -2.70933,-0.04007 -1.24364,-0.06482 -1.83305,-0.06522 -5.48553,-0.0037 -2.678,0.04507 -3.16873,0.03414 -3.49895,-0.07797 -0.26248,-0.08911 -0.6362,-0.123679 -1.1804,-0.10917 -0.71714,0.01912 -0.9852,-0.02195 -0.87333,-0.133809 0.0702,-0.07017 0.66365,-0.07158 4.13788,-0.0098 1.88595,0.03355 5.2959,0.07002 7.57766,0.08105 3.20359,0.01548 4.19452,0.04502 4.34994,0.129639 0.15458,0.08417 0.21575,0.08615 0.26373,0.0085 0.0343,-0.05559 0.14959,-0.145244 0.25609,-0.199241 0.35039,-0.177665 0.40403,-0.367709 0.1669,-0.591433 -0.20325,-0.191758 -0.24343,-0.196793 -1.14199,-0.143091 -0.94779,0.05665 -1.52563,0.04422 -2.28929,-0.04922 -0.33404,-0.04087 -0.45112,-0.02268 -0.53954,0.08385 -0.0621,0.07483 -0.19397,0.135186 -0.29303,0.134126 -0.14768,-0.0016 -0.13203,-0.02566 0.0869,-0.133633 0.14686,-0.07244 0.28389,-0.19622 0.30451,-0.275072 0.0423,-0.161815 0.80836,-0.393669 1.0546,-0.319187 0.0835,0.02526 0.79645,0.06818 1.58429,0.09536 0.78783,0.02719 1.46411,0.06901 1.50283,0.09294 0.0387,0.02393 0.0704,0.108985 0.0704,0.189009 0,0.08002 0.0631,0.235546 0.14016,0.345605 0.21274,0.303727 0.29864,0.906651 0.18676,1.310832 -0.0528,0.19089 -0.10784,0.594722 -0.12223,0.897405 -0.0739,1.555661 -0.10817,2.752024 -0.10066,3.513667 0.0175,1.77346 0.007,2.487102 -0.051,3.471334 -0.0698,1.185735 -0.15285,3.256033 -0.14768,3.683 0.0258,2.133074 0.0186,2.564866 -0.0439,2.625383 -0.0402,0.03892 -0.21834,0.09747 -0.39583,0.130094 -0.27825,0.05115 -0.32878,0.03608 -0.36682,-0.109366 z m -42.78521,-0.867129 c -0.0663,-0.04096 -0.1579,-0.05137 -0.2036,-0.02312 -0.0457,0.02824 -0.009,0.0781 0.0806,0.110786 0.20244,0.07349 0.28662,0.01348 0.12297,-0.08766 z M 68.285519,28.585933 c 0,-0.04657 -0.0168,-0.08467 -0.03734,-0.08467 -0.02054,0 -0.06088,0.0381 -0.08966,0.08467 -0.02878,0.04657 -0.01198,0.08467 0.03734,0.08467 0.04931,0 0.08966,-0.0381 0.08966,-0.08467 z M 93.600851,15.046321 c 0,-0.09917 -0.180175,-0.163026 -0.3175,-0.112524 -0.183261,0.06739 -0.11494,0.190135 0.105834,0.190135 0.116416,0 0.211666,-0.03492 0.211666,-0.07761 z m 44.555819,13.222574 c -0.31428,-0.156495 -0.32719,-0.202193 -0.13843,-0.490274 0.13404,-0.204577 0.15903,-0.208688 1.26839,-0.208688 1.30727,0 1.24242,0.0503 1.20063,-0.931333 l -0.0234,-0.550334 0.23495,0.0247 c 0.26049,0.02739 0.73871,-0.215459 0.73871,-0.375128 0,-0.05624 0.0914,-0.210869 0.20311,-0.343626 0.38181,-0.453765 0.31167,-0.826305 -0.13164,-0.699164 -0.14569,0.04179 -0.30069,0.05387 -0.34441,0.02684 -0.0437,-0.02702 -0.0724,0.0217 -0.0637,0.108286 0.0246,0.245025 -0.0946,0.538422 -0.21875,0.538422 -0.0618,0 -0.16902,0.08094 -0.23831,0.179871 -0.12221,0.174474 -0.12754,0.170026 -0.17735,-0.148166 -0.0843,-0.538181 -0.22902,-0.738122 -0.69726,-0.963039 -0.40118,-0.192707 -0.441,-0.23744 -0.4445,-0.499409 l -0.004,-0.287742 0.71721,0.05061 c 0.39446,0.02784 0.79933,0.09457 0.8997,0.148286 0.13426,0.07185 0.23655,0.07305 0.38696,0.0045 0.31131,-0.141846 1.55432,-0.211105 1.83292,-0.102128 0.19012,0.07437 0.23302,0.138352 0.21166,0.315671 -0.0207,0.171499 -0.1065,0.253841 -0.3751,0.359792 -0.62164,0.245213 -0.60883,0.210204 -0.61129,1.670358 -0.002,1.451551 -0.006,1.461414 -0.55873,1.748387 -0.41355,0.214551 -0.87439,0.298837 -2.16466,0.395904 -0.53552,0.04029 -1.03082,0.09376 -1.10067,0.118821 -0.0699,0.02506 -0.25083,-0.01609 -0.40217,-0.09145 z m -14.13443,-0.20335 c -0.0842,-0.03321 -0.696,-0.06305 -1.35957,-0.06633 l -1.2065,-0.006 v -0.254 c 0,-0.1397 0.0286,-0.256756 0.0635,-0.260124 0.0349,-0.0034 0.2159,-0.02327 0.40217,-0.04423 0.18626,-0.02096 1.02446,-0.05763 1.86266,-0.0815 0.8382,-0.02387 1.56917,-0.05897 1.62437,-0.07801 0.16789,-0.05791 0.71859,-1.292884 0.68883,-1.544742 -0.034,-0.287462 0.26949,-0.425894 0.62897,-0.286922 0.26534,0.102576 0.27709,0.216911 0.17729,1.724035 l -0.0547,0.8255 -0.72807,0.0052 c -0.40043,0.0029 -1.00208,0.03273 -1.33699,0.06633 -0.33491,0.0336 -0.67781,0.03392 -0.762,6.77e-4 z m 4.73508,0.004 c -0.29179,-0.02791 -0.55205,-0.07227 -0.57836,-0.09858 -0.108,-0.107994 0.14781,-0.382364 0.40433,-0.433667 0.15133,-0.03027 0.39691,-0.138468 0.54575,-0.240451 0.25987,-0.178068 0.27294,-0.214977 0.32957,-0.930411 0.0324,-0.409744 0.0943,-0.766798 0.13738,-0.793453 0.0431,-0.02666 0.21269,0.03076 0.37681,0.127586 0.33172,0.195726 0.71221,0.233265 0.71172,0.07022 -8.4e-4,-0.194774 -0.3246,-0.640391 -0.50795,-0.698586 -0.26552,-0.08427 -0.59219,0.02148 -0.5937,0.192198 -9.7e-4,0.11002 -0.0188,0.119019 -0.0714,0.0361 -0.0385,-0.06075 -0.0547,-0.632248 -0.0359,-1.27 0.0188,-0.637751 0.0343,-1.578648 0.0343,-2.090881 8e-5,-0.512234 0.002,-1.159934 0.004,-1.439334 0.011,-1.429099 -0.0776,-1.73488 -0.50332,-1.736599 -0.12699,-5.08e-4 -0.37376,-0.02455 -0.54838,-0.05341 -0.28093,-0.04643 -0.3175,-0.08046 -0.3175,-0.295401 0,-0.133607 0.0476,-0.246637 0.10583,-0.251178 0.47926,-0.03739 3.19947,3.39e-4 3.27233,0.04534 0.0512,0.03167 0.0934,0.160108 0.0936,0.285418 v 0.227836 l 0.19833,-0.24787 c 0.16894,-0.211129 0.25987,-0.248779 0.61342,-0.254 0.40612,-0.006 0.41508,-6.77e-4 0.41508,0.24787 0,0.266198 0.009,0.261761 -0.84667,0.430722 -0.39502,0.07803 -0.42324,0.151769 -0.42517,1.111398 -0.002,1.197414 -0.11667,1.397924 -0.46253,0.811736 l -0.18476,-0.313145 -0.27959,0.333023 c -0.24393,0.290553 -0.3186,0.329659 -0.5856,0.306657 -0.17049,-0.01469 -0.30601,0.01224 -0.30601,0.06081 0,0.07559 0.16192,0.500448 0.22617,0.59344 0.0124,0.01795 0.11764,-0.02968 0.23387,-0.105833 0.11623,-0.07616 0.25785,-0.138469 0.31469,-0.138469 0.0568,0 0.19042,-0.08179 0.29683,-0.18176 0.16391,-0.15399 0.21411,-0.164634 0.32854,-0.06967 0.3356,0.278521 0.48188,0.972696 0.30606,1.452415 -0.0395,0.107807 -0.0444,0.786562 -0.0109,1.508345 0.066,1.420304 0.0103,1.710752 -0.34577,1.803874 -0.21332,0.05579 -0.14293,0.228126 0.0932,0.228126 0.1666,0 0.18387,0.04182 0.3134,0.758659 0.0745,0.412209 0.19253,0.486477 0.79934,0.502902 0.23821,0.0065 0.32512,0.05041 0.36824,0.186295 0.10742,0.338415 -0.0539,0.372478 -1.76391,0.372478 -0.89401,0 -1.86419,-0.02283 -2.15598,-0.05074 z m 1.96985,-4.563591 c 0,-0.261976 -0.0234,-0.293763 -0.20179,-0.274165 -0.11098,0.01219 -0.24745,-0.01574 -0.30327,-0.06207 -0.19735,-0.163787 -0.4372,0.170015 -0.39369,0.547898 0.005,0.04657 0.20977,0.08467 0.45425,0.08467 h 0.4445 z m 0.51714,-3.788834 c 0.15183,-0.200006 0.14533,-0.358471 -0.0223,-0.543666 -0.16759,-0.185188 -0.45255,-0.204906 -0.45255,-0.03131 0,0.126484 0.26985,0.717308 0.32934,0.721063 0.0181,0.0011 0.0836,-0.06459 0.14547,-0.146084 z m -12.05297,8.192414 c -0.22372,-0.09409 -0.26494,-0.511068 -0.0668,-0.675525 0.068,-0.05647 0.14864,-0.184964 0.17909,-0.285535 0.0305,-0.100569 0.23196,-0.445475 0.44778,-0.766458 0.21582,-0.320983 0.62649,-0.947188 0.91259,-1.391568 0.2861,-0.44438 0.57245,-0.848508 0.63633,-0.898062 0.0639,-0.04955 0.2108,-0.280599 0.32648,-0.513432 0.11569,-0.232834 0.34863,-0.594784 0.51765,-0.804334 0.16902,-0.20955 0.42693,-0.62865 0.57313,-0.931333 0.50543,-1.046431 0.85523,-1.518591 0.85523,-1.154418 0,0.06357 0.0825,0.220458 0.18332,0.348639 0.16696,0.212257 0.17074,0.240098 0.0423,0.311958 -0.18807,0.105249 -0.17931,0.382688 0.0154,0.486879 0.16177,0.08658 0.34887,-0.0193 0.3543,-0.200491 0.001,-0.0489 0.10032,-0.16008 0.21969,-0.247076 0.18907,-0.137794 0.24418,-0.143652 0.42765,-0.04546 0.16928,0.0906 0.20147,0.158446 0.16401,0.345738 -0.0648,0.323938 -0.39531,0.806148 -0.62416,0.910607 -0.17185,0.07844 -0.34643,0.367439 -0.47882,0.792614 -0.026,0.08359 -0.18121,0.207931 -0.34484,0.276302 -0.19614,0.08195 -0.29753,0.180614 -0.29753,0.289533 0,0.09087 -0.0794,0.207682 -0.17632,0.259583 -0.16926,0.09058 -0.17011,0.09891 -0.0213,0.207724 0.20799,0.152084 0.0677,0.27724 -0.15488,0.138212 -0.13097,-0.08179 -0.19977,-0.08519 -0.27131,-0.01339 -0.0714,0.07167 -0.0439,0.13546 0.10803,0.250246 l 0.20389,0.154058 -0.18835,0.264512 -0.18835,0.264512 -0.21872,-0.259938 -0.21872,-0.259938 -0.17782,0.180347 c -0.1677,0.170093 -0.16939,0.186616 -0.0296,0.29063 0.0815,0.06066 0.14817,0.195886 0.14817,0.300509 0,0.134305 0.0373,0.175899 0.127,0.14149 0.15181,-0.05826 0.17491,0.160349 0.0266,0.251993 -0.0552,0.03412 -0.29938,0.05282 -0.54262,0.04155 -0.32459,-0.01504 -0.48934,0.01984 -0.61929,0.131112 -0.25096,0.214881 -0.21994,0.299967 0.0993,0.272459 0.53644,-0.04622 0.62585,0.20389 0.26369,0.737574 -0.12207,0.179868 -0.22791,0.366159 -0.23522,0.413981 -0.0325,0.212553 -0.1648,0.278608 -0.66241,0.33067 -0.29229,0.03058 -0.66479,0.07316 -0.82778,0.09463 -0.16298,0.02146 -0.38205,0.003 -0.48683,-0.0411 z m 2.2764,-2.525567 c 0.0868,-0.202428 0.15776,-0.383943 0.15776,-0.403366 0,-0.08732 -0.2064,-0.02044 -0.43143,0.139785 -0.18547,0.132067 -0.2459,0.24304 -0.2459,0.451556 0,0.152051 0.0251,0.301526 0.0557,0.332166 0.0944,0.09444 0.29849,-0.134365 0.46386,-0.520141 z m 15.27076,2.520336 c -0.1397,-0.04222 -0.46999,-0.247163 -0.73399,-0.455424 -0.52339,-0.412902 -0.57078,-0.620575 -0.20782,-0.910838 0.16473,-0.131741 0.16705,-0.147384 0.0297,-0.2001 -0.14367,-0.05513 -0.31282,-0.03344 -0.7177,0.09205 -0.1376,0.04265 -0.1905,0.02468 -0.1905,-0.06471 0,-0.06806 -0.0727,-0.189557 -0.16159,-0.269986 -0.19925,-0.180319 -0.43203,-0.87136 -0.49321,-1.464171 -0.0373,-0.361161 -0.0199,-0.454155 0.0928,-0.497416 0.1911,-0.07333 0.17363,-0.275958 -0.0386,-0.447811 -0.15259,-0.123552 -0.16903,-0.19838 -0.11816,-0.537621 0.0706,-0.470908 0.20991,-0.613463 0.73721,-0.754496 0.35704,-0.09549 0.41482,-0.09039 0.57033,0.05034 0.169,0.152947 0.17698,0.152044 0.34245,-0.03874 0.0932,-0.107435 0.16942,-0.274174 0.16942,-0.37053 0,-0.174264 10e-4,-0.174214 0.18462,0.0094 0.16299,0.162991 0.17385,0.219717 0.0927,0.484178 -0.0506,0.164756 -0.0761,0.518768 -0.0567,0.786693 0.0194,0.267926 0.0506,0.791937 0.0694,1.164471 0.0274,0.543308 0.0954,0.819735 0.34349,1.397 0.17012,0.395816 0.38187,0.797179 0.47054,0.891917 0.11357,0.121339 0.16819,0.321542 0.18478,0.677334 0.0262,0.56118 -0.0435,0.617293 -0.56912,0.458431 z m -0.31256,-2.118699 c -0.0167,-0.05006 -0.058,-0.08816 -0.0917,-0.08467 -0.0338,0.0035 -0.11853,0.0063 -0.18838,0.0063 -0.0699,0 -0.127,0.0381 -0.127,0.08467 0,0.04657 0.0984,0.08467 0.21872,0.08467 0.1203,0 0.20507,-0.04096 0.18838,-0.09102 z m -0.59337,-0.433917 c 0.19351,-0.193506 0.10636,-0.38635 -0.2555,-0.565383 -0.38597,-0.190961 -0.43941,-0.17283 -0.52179,0.177013 -0.0451,0.191446 -0.0152,0.250804 0.17956,0.356443 0.28684,0.155596 0.46457,0.165089 0.59773,0.03193 z m -0.066,-0.95878 c 0.0589,-0.07097 0.0828,-0.153364 0.053,-0.183086 -0.0831,-0.08313 -0.49466,0.132147 -0.43553,0.227826 0.0767,0.124095 0.26017,0.102634 0.38248,-0.04474 z m -0.64769,-0.14379 c 0.0598,-0.09497 0.063,-0.174583 0.009,-0.228261 -0.1132,-0.11274 -0.50934,0.189527 -0.42571,0.324835 0.0834,0.134911 0.30291,0.08403 0.41663,-0.09657 z m -0.20068,-0.870163 c 0,-0.216167 -0.11556,-0.282504 -0.21417,-0.122945 -0.0704,0.113959 0.0132,0.334612 0.12684,0.334612 0.048,0 0.0873,-0.09525 0.0873,-0.211667 z m 1.05241,0.136593 c 0.0712,-0.115241 -0.16685,-0.273205 -0.32202,-0.213662 -0.24567,0.09427 -0.1499,0.2173 0.21711,0.278914 0.0322,0.0054 0.0794,-0.02396 0.10491,-0.06525 z m -21.6264,4.306107 c -0.11642,-0.03256 -0.77809,-0.04347 -1.47039,-0.02427 -1.09047,0.03026 -1.27966,0.01597 -1.41544,-0.106912 -0.11788,-0.106683 -0.13621,-0.180165 -0.074,-0.296493 0.0635,-0.118717 0.20254,-0.160511 0.59816,-0.179844 l 0.51538,-0.02519 0.11253,-0.328311 c 0.13283,-0.387564 0.27016,-2.314732 0.22397,-3.143022 -0.0255,-0.456275 0.036,-2.661209 0.0749,-2.68558 0.0208,-0.01307 0.10968,-0.06324 0.19744,-0.111495 0.0878,-0.04826 0.15896,-0.124458 0.15819,-0.169333 -7.6e-4,-0.04488 0.0512,-0.156745 0.11559,-0.248598 0.15543,-0.221906 0.14813,-0.437924 -0.0169,-0.501269 -0.18851,-0.07234 -0.22279,-0.06442 -0.16011,0.03698 0.0579,0.09372 -0.10128,0.334958 -0.22106,0.334958 -0.0391,0 -0.0671,-0.361099 -0.0624,-0.802443 0.006,-0.533594 -0.0272,-0.845627 -0.0983,-0.931333 -0.159,-0.191589 -1.29405,-0.172717 -1.73723,0.02888 -0.46353,0.210852 -0.51921,0.299 -0.64919,1.027559 l -0.11328,0.635 -0.35615,0.02587 -0.35615,0.02587 0.031,-0.914866 c 0.0559,-1.648912 0.11728,-1.764639 0.89343,-1.68402 0.25612,0.0266 1.30387,0.07298 2.32833,0.10305 2.18399,0.06411 1.8428,0.06323 3.23557,0.0083 0.83915,-0.03308 1.20571,-0.0142 1.46612,0.07552 0.19097,0.06579 0.38005,0.09934 0.42017,0.07454 0.11052,-0.06831 0.15234,0.164794 0.21474,1.196938 0.0726,1.200499 0.0388,1.317972 -0.36963,1.283953 l -0.31031,-0.02585 -0.11466,-0.635 c -0.0631,-0.34925 -0.14222,-0.690238 -0.17588,-0.757751 -0.1453,-0.291362 -0.50439,-0.446178 -1.2315,-0.530927 -0.68621,-0.07999 -0.75492,-0.07387 -0.96311,0.08572 -0.1233,0.09452 -0.20599,0.222873 -0.18376,0.285238 0.0222,0.06236 0.0364,0.303889 0.0314,0.536722 -0.005,0.232833 -0.0327,1.413933 -0.0617,2.624667 -0.0636,2.660413 -0.0619,2.383234 -0.024,3.725333 0.049,1.734545 -0.0101,1.547839 0.47486,1.501241 0.23031,-0.02213 0.51279,-0.01663 0.62773,0.01222 0.17942,0.04503 0.20034,0.0848 0.14785,0.28109 -0.06,0.224245 -0.0749,0.228861 -0.7759,0.240323 -0.39312,0.0064 -0.81,-0.01495 -0.92642,-0.0475 z m -0.85558,-0.367968 c 0.11288,-0.136015 0.0319,-0.41327 -0.10736,-0.367615 -0.11694,0.03834 -0.18053,0.483883 -0.0691,0.483883 0.044,0 0.12335,-0.05232 0.17642,-0.116268 z m 0.60158,-1.498214 c 0,-0.177469 -0.21603,-0.366313 -0.33496,-0.29281 -0.12212,0.07547 -0.1111,0.496032 0.0163,0.62346 0.0832,0.08316 0.12671,0.0746 0.21166,-0.04158 0.0588,-0.08046 0.10697,-0.210537 0.10697,-0.289068 z m -0.63967,-1.970039 c 0.0546,-0.154461 0.0497,-0.256674 -0.0155,-0.321824 -0.15662,-0.156614 -0.36086,-0.01573 -0.36086,0.24891 0,0.424871 0.2358,0.470556 0.37633,0.07291 z m 1.063,0.02432 c 0,-0.175272 -0.26286,-0.59298 -0.34227,-0.5439 -0.10587,0.06543 -0.10308,0.264098 0.007,0.469004 0.0923,0.172417 0.33568,0.226726 0.33568,0.0749 z m -10.45711,3.623705 c -0.12299,-0.344377 0.10065,-0.554203 0.6028,-0.565549 0.14484,-0.0033 0.41009,-0.105536 0.58945,-0.227251 0.19828,-0.134558 0.33842,-0.184338 0.35754,-0.127 0.047,0.141078 0.40385,0.113656 0.53212,-0.04089 0.0952,-0.114741 0.0872,-0.149964 -0.0531,-0.232833 -0.0909,-0.0537 -0.26058,-0.09764 -0.377,-0.09764 h -0.21167 l 0.0237,-2.54 c 0.013,-1.397 0.0454,-2.610436 0.0719,-2.696525 0.0832,-0.270494 0.32452,-0.454999 0.50342,-0.384909 0.24473,0.09588 0.29001,0.08788 0.29001,-0.05123 0,-0.13292 -0.0691,-0.153978 -0.43009,-0.131102 -0.38269,0.02425 -0.44699,-0.159751 -0.38258,-1.09487 0.0535,-0.776746 0.0447,-0.854343 -0.11503,-1.014068 -0.0951,-0.09513 -0.27774,-0.179477 -0.4058,-0.187441 -0.24421,-0.01519 -0.50559,-0.03798 -0.66745,-0.0582 -0.14026,-0.01752 -0.21231,-0.375081 -0.0914,-0.453379 0.0565,-0.03655 0.54079,-0.04399 1.07631,-0.01654 0.60447,0.03099 1.0611,0.01603 1.20424,-0.03946 0.17423,-0.06753 0.31805,-0.0585 0.58866,0.03698 0.26877,0.09483 0.42032,0.104651 0.60756,0.03938 0.34678,-0.120888 0.5776,-0.108877 0.88853,0.04624 0.29645,0.147886 0.35453,0.407547 0.11884,0.531321 -0.0815,0.0428 -0.30593,0.103934 -0.49876,0.135861 -0.56076,0.09284 -0.69089,0.301611 -0.71492,1.14695 -0.0113,0.395817 0.0246,0.957328 0.0797,1.247801 0.0817,0.430458 0.0763,0.689208 -0.0291,1.399042 -0.0711,0.478999 -0.128,0.965238 -0.12638,1.080532 0.002,0.115294 -0.007,0.285825 -0.0203,0.378959 -0.0128,0.09313 0.009,0.538702 0.0476,0.990154 0.0619,0.716864 0.0518,0.853148 -0.0799,1.076069 -0.13689,0.231725 -0.13864,0.269218 -0.019,0.406845 0.0725,0.08338 0.15435,0.299194 0.18194,0.479589 0.0276,0.180395 0.0645,0.342276 0.0819,0.359736 0.0175,0.01746 0.21358,0.06572 0.43582,0.107236 0.46259,0.08642 0.68976,0.266455 0.60732,0.481303 -0.0505,0.131494 -0.1529,0.140682 -1.00641,0.09027 -0.52263,-0.03087 -1.08359,-0.08723 -1.24657,-0.125247 -0.19564,-0.04563 -0.40784,-0.03092 -0.62448,0.04329 -0.42962,0.147181 -1.73736,0.151992 -1.78929,0.0066 z m 2.75056,-4.487334 c -0.001,-0.05821 -0.0677,-0.18784 -0.14817,-0.288072 -0.11422,-0.142292 -0.18804,-0.166088 -0.33678,-0.108561 -0.25371,0.09812 -0.24027,0.213013 0.0423,0.361866 0.29771,0.156813 0.44499,0.168382 0.44262,0.03477 z m -0.76012,-0.333613 c 0,-0.111285 -0.19243,-0.0416 -0.23461,0.08496 -0.0206,0.06187 0.0181,0.08079 0.10054,0.04915 0.0737,-0.0283 0.13407,-0.08865 0.13407,-0.134113 z m 0,-1.507887 c 0,-0.04657 -0.0381,-0.08467 -0.0847,-0.08467 -0.0466,0 -0.0847,0.0381 -0.0847,0.08467 0,0.04657 0.0381,0.08467 0.0847,0.08467 0.0466,0 0.0847,-0.0381 0.0847,-0.08467 z m -6.206786,6.210983 c -0.0299,-0.02989 -0.28333,-0.0511 -0.5632,-0.04714 -0.559772,0.0079 -0.731384,-0.09241 -0.813908,-0.475934 -0.02685,-0.124802 -0.117504,-0.360262 -0.201444,-0.523246 -0.08394,-0.162983 -0.179736,-0.448733 -0.212878,-0.635 -0.03314,-0.186266 -0.08998,-0.376766 -0.126315,-0.423333 -0.06895,-0.08838 -0.205529,-0.51148 -0.2938,-0.910167 -0.04341,-0.196076 -0.02366,-0.232833 0.125102,-0.232833 0.1441,0 0.165861,-0.0351 0.118094,-0.1905 -0.0806,-0.262214 -0.09908,-0.272744 -0.253594,-0.144509 -0.113221,0.09396 -0.148145,0.09247 -0.212416,-0.0091 -0.0423,-0.06686 -0.0775,-0.191258 -0.07821,-0.27645 -0.0011,-0.126992 0.0429,-0.145187 0.244032,-0.10101 0.193782,0.04256 0.290997,0.0082 0.462679,-0.163468 0.242267,-0.242266 0.226498,-0.370504 -0.09323,-0.7582 -0.137642,-0.166901 -0.187458,-0.308447 -0.154613,-0.439311 0.06298,-0.250925 -0.09888,-0.347621 -0.277788,-0.165961 -0.13035,0.132351 -0.128725,0.150583 0.02346,0.263402 0.160105,0.118688 0.159358,0.125621 -0.03593,0.333492 -0.230156,0.244989 -0.359064,0.265439 -0.511955,0.08122 -0.08927,-0.107559 -0.0846,-0.181768 0.02603,-0.413747 0.126707,-0.265706 0.12499,-0.293209 -0.02859,-0.458059 -0.08987,-0.09646 -0.163392,-0.19809 -0.163392,-0.225846 0,-0.02776 -0.110319,-0.168506 -0.245152,-0.312778 l -0.245153,-0.262313 -0.135809,0.262625 c -0.07469,0.144444 -0.190287,0.464577 -0.256872,0.711405 -0.211151,0.782721 -0.402114,1.377326 -0.47043,1.46478 -0.03638,0.04657 -0.109231,0.289096 -0.1619,0.538956 -0.05267,0.24986 -0.166773,0.55466 -0.253566,0.677334 -0.08679,0.122673 -0.186184,0.392881 -0.220873,0.60046 -0.0641,0.383612 -0.306869,1.075891 -0.632177,1.80275 -0.161333,0.360477 -0.208105,0.401779 -0.451196,0.39843 -0.149163,-0.0021 -0.461705,-0.05344 -0.694538,-0.11418 l -0.423367,-0.110468 -0.107358,-0.499654 c -0.122014,-0.567872 -0.241248,-1.042652 -0.370002,-1.473321 -0.04873,-0.162983 -0.13885,-0.543983 -0.200277,-0.846667 -0.06142,-0.302683 -0.251326,-0.969433 -0.422001,-1.481667 -0.280783,-0.842688 -0.502081,-1.718322 -0.594289,-2.351483 -0.01881,-0.129148 -0.06416,-0.281548 -0.100783,-0.338666 -0.143087,-0.223165 -0.277134,-0.711497 -0.278348,-1.014017 -6.78e-4,-0.174625 -0.03765,-0.3175 -0.08211,-0.3175 -0.04446,0 -0.106461,-0.136625 -0.137787,-0.303612 -0.08896,-0.474173 -0.548543,-0.881722 -0.994304,-0.881722 -0.225261,0 -0.358428,-0.286093 -0.256639,-0.551352 0.04718,-0.122934 0.144258,-0.133938 0.740758,-0.08396 0.377559,0.03163 0.851214,0.111823 1.052569,0.178203 0.201356,0.06638 0.397963,0.101002 0.436903,0.07693 0.03894,-0.02407 0.516007,-0.06072 1.060147,-0.08146 1.029914,-0.03925 1.31185,0.02572 1.31185,0.302305 0,0.193007 -0.155389,0.29658 -0.550333,0.366818 -0.492406,0.08757 -0.719667,0.333273 -0.719667,0.778069 0,0.199853 0.05308,0.488486 0.117964,0.641408 0.258798,0.609983 0.42186,1.324246 0.434786,1.904509 0.0075,0.335758 0.05516,0.660542 0.105948,0.721743 0.199711,0.240637 0.428652,1.147189 0.583712,2.311365 0.02502,0.187867 0.09713,0.412183 0.160226,0.498479 0.100975,0.138092 0.145578,0.144124 0.372047,0.05032 0.232196,-0.09618 0.257317,-0.143413 0.257317,-0.483825 0,-0.309676 0.04742,-0.424662 0.264762,-0.642004 0.244162,-0.244163 0.257266,-0.285491 0.168419,-0.531194 -0.08136,-0.224996 -0.06127,-0.383609 0.129168,-1.019891 0.124032,-0.414404 0.248268,-0.924911 0.276081,-1.134461 0.04443,-0.334729 0.07371,-0.377782 0.24107,-0.354511 0.224569,0.03123 0.252948,-0.110127 0.04543,-0.226261 -0.135038,-0.07557 -0.132254,-0.109537 0.04024,-0.491041 0.234088,-0.517715 0.508841,-1.303191 0.644997,-1.843947 0.136402,-0.54173 0.413774,-0.767768 0.814662,-0.663887 0.314111,0.08139 0.339759,0.118585 0.550573,0.798366 0.102298,0.329868 0.130782,0.595579 0.09175,0.855872 -0.05122,0.341564 -0.03614,0.390896 0.158452,0.5184 0.18214,0.119342 0.215061,0.204774 0.215061,0.558087 0,0.256062 0.04337,0.443323 0.112294,0.484882 0.24204,0.145937 0.96699,2.571269 0.864806,2.893222 -0.02896,0.09125 -0.01246,0.190743 0.03667,0.221104 0.154605,0.09555 0.435855,0.724227 0.391005,0.87403 -0.0445,0.148512 0.2107,0.524351 0.35599,0.524351 0.0454,0 0.151356,-0.142875 0.235386,-0.3175 0.1471,-0.305684 0.19209,-0.513035 0.37196,-1.7145 0.11039,-0.737365 0.22509,-1.220353 0.51275,-2.159 0.0856,-0.2794 0.18204,-0.71755 0.21426,-0.973667 0.0322,-0.256116 0.0947,-0.560916 0.13894,-0.677333 0.0442,-0.116417 0.0569,-0.368515 0.0283,-0.560217 -0.0451,-0.302325 -0.0937,-0.366078 -0.36604,-0.480695 -0.1727,-0.07268 -0.41878,-0.15468 -0.54684,-0.182228 -0.24185,-0.05203 -0.28715,-0.168439 -0.15001,-0.385527 0.0591,-0.09357 0.28165,-0.134789 0.84537,-0.156591 l 0.76514,-0.02959 v -0.238848 c 0,-0.197781 0.0447,-0.248669 0.26006,-0.295967 0.32606,-0.07161 0.35925,-0.03743 0.24794,0.255331 -0.0492,0.129333 -0.07,0.254596 -0.0462,0.278362 0.0238,0.02377 0.32947,0.06158 0.67934,0.08404 0.62671,0.04022 0.63556,0.04401 0.59717,0.255689 -0.046,0.253659 -0.17382,0.350316 -0.38891,0.29407 -0.31182,-0.08154 -0.87069,0.762433 -1.02187,1.543177 -0.0711,0.367204 -0.53435,2.245229 -0.68919,2.794 -0.0526,0.186267 -0.19527,0.567267 -0.31714,0.846667 -0.12188,0.2794 -0.268,0.79375 -0.32473,1.143 -0.0567,0.34925 -0.16257,0.80645 -0.2352,1.016 -0.0726,0.20955 -0.15963,0.55245 -0.19333,0.762 -0.0515,0.320436 -0.45898,1.27 -0.544926,1.27 -0.0147,0 -0.0512,-0.02446 -0.0812,-0.05435 z m -0.681576,-2.189953 c 0.02694,-0.0702 0.02357,-0.263077 -0.0075,-0.428613 -0.04151,-0.22129 -0.09441,-0.293743 -0.199803,-0.273663 -0.175645,0.03346 -0.222646,0.298311 -0.106944,0.602629 0.09551,0.251207 0.238653,0.296599 0.314231,0.09965 z m 43.252662,-2.412388 c -0.0288,-0.04657 0.0284,-0.08467 0.127,-0.08467 0.0986,0 0.15578,0.0381 0.127,0.08467 -0.0288,0.04657 -0.0859,0.08467 -0.127,0.08467 -0.0411,0 -0.0982,-0.0381 -0.127,-0.08467 z m -8.001,-0.752941 c 0,-0.133676 0.23835,-0.171961 0.28667,-0.04605 0.0308,0.08037 -0.01,0.121654 -0.12,0.121654 -0.0917,0 -0.16667,-0.03402 -0.16667,-0.07561 z m 0.80433,-0.239288 c -0.0931,-0.02269 -0.22648,-0.08996 -0.29633,-0.149498 -0.0698,-0.05953 -0.21273,-0.134368 -0.3175,-0.166298 -0.28503,-0.08686 -0.23485,-0.230597 0.23623,-0.676617 l 0.42673,-0.40403 0.3141,0.200411 c 0.32315,0.206179 0.77977,0.232331 0.77977,0.04466 0,-0.10486 -0.64401,-0.481708 -0.82252,-0.4813 -0.0566,1.69e-4 -0.1442,-0.07703 -0.19475,-0.171469 -0.0505,-0.09444 -0.12808,-0.14934 -0.17231,-0.122003 -0.23307,0.144046 -0.0152,-0.174766 0.49108,-0.718543 0.43265,-0.4647 0.58179,-0.688871 0.61384,-0.92263 0.0327,-0.238231 0.081,-0.308786 0.21166,-0.308786 0.13215,0 0.16584,0.05113 0.15339,0.232833 -0.0121,0.177057 0.0222,0.232833 0.14317,0.232833 0.0875,0 0.18266,-0.0381 0.21144,-0.08467 0.0288,-0.04657 0.16689,-0.08467 0.3069,-0.08467 0.14002,0 0.32041,-0.03524 0.40087,-0.0783 0.2249,-0.12036 2.0098,-0.132665 2.71844,-0.01874 0.34771,0.0559 0.71784,0.157753 0.82252,0.226338 0.10467,0.06859 0.30769,0.124701 0.45113,0.124701 0.25015,0 0.25864,-0.01163 0.20744,-0.284511 -0.065,-0.346632 0.14559,-0.481912 0.39661,-0.254741 0.2227,0.20154 0.19766,0.426045 -0.0546,0.489353 -0.23267,0.05839 -0.27984,0.198387 -0.0913,0.270757 0.15238,0.05847 0.38758,0.637884 0.38758,0.954771 0,0.470807 -0.56577,0.941038 -1.13223,0.941038 -0.30711,0 -0.34847,-0.06179 -0.51008,-0.762 -0.0269,-0.116417 -0.19221,-0.366029 -0.36744,-0.554693 -0.34652,-0.373106 -0.70822,-0.515707 -1.46158,-0.576237 -0.39768,-0.03195 -0.5522,0.0037 -1.05834,0.244399 -0.35744,0.169967 -0.68191,0.396054 -0.81753,0.569661 -0.39041,0.499772 -0.92425,1.423815 -0.87169,1.508861 0.0553,0.08953 -0.71406,0.837256 -0.85078,0.826825 -0.0466,-0.0036 -0.16086,-0.02502 -0.254,-0.04771 z m -10.09828,-0.801588 c 0.0422,-0.126563 0.23462,-0.196248 0.23462,-0.08496 0,0.04547 -0.0603,0.105815 -0.13408,0.134112 -0.0825,0.03164 -0.12116,0.01272 -0.10054,-0.04915 z m -5.73374,-0.827027 c -0.0311,-0.184164 -0.0128,-0.545567 0.0406,-0.803115 0.0535,-0.257549 0.0716,-0.509625 0.0404,-0.560167 -0.0312,-0.05054 -0.0327,-0.252404 -0.003,-0.448578 l 0.0535,-0.356682 0.65373,-0.09079 c 0.7932,-0.110164 2.99612,-0.07423 3.23337,0.05274 0.11168,0.05977 0.4738,0.07193 1.04391,0.03508 0.4801,-0.03104 1.20423,-0.02884 1.60917,0.0049 0.70822,0.05899 0.73627,0.06923 0.73627,0.26877 0,0.269663 -0.25831,0.771899 -0.78905,1.534193 -0.43428,0.623762 -0.57523,0.705274 -0.90985,0.526188 -0.11345,-0.06072 -0.21526,-0.06009 -0.33136,0.002 -0.25929,0.138769 -0.57335,0.01266 -0.77302,-0.310413 -0.19389,-0.313731 -0.16933,-0.386516 0.19265,-0.570973 0.15075,-0.07682 0.1918,-0.159849 0.17305,-0.350028 -0.0483,-0.490226 -0.20349,-0.534919 -1.74584,-0.502836 -1.84913,0.03846 -2.12219,0.183193 -2.25987,1.197795 -0.0786,0.579509 -0.1843,0.706718 -0.58697,0.706718 -0.30774,0 -0.32317,-0.01369 -0.37743,-0.334844 z m 21.56282,-2.564296 c 0.0318,-0.329146 0.19838,-0.380738 0.4922,-0.152452 0.20946,0.162738 0.2099,0.165801 0.0423,0.292999 -0.0931,0.0707 -0.25748,0.129752 -0.36521,0.131234 -0.17031,0.0023 -0.19239,-0.03311 -0.16933,-0.271781 z m -27.44779,-0.318193 c 0,-0.109126 0.0429,-0.169153 0.10583,-0.148167 0.0582,0.0194 0.10584,0.08608 0.10584,0.148167 0,0.06209 -0.0476,0.128763 -0.10584,0.148166 -0.063,0.02099 -0.10583,-0.03904 -0.10583,-0.148166 z m 9.44166,-0.08252 c -0.0684,-0.110706 0.12644,-0.204576 0.2234,-0.107617 0.0542,0.0542 0.0379,0.100282 -0.047,0.132858 -0.0715,0.02743 -0.15087,0.01607 -0.1764,-0.02524 z m 15.23867,-1.191185 c -0.23284,-0.03616 -0.54763,-0.04579 -0.69954,-0.0214 -0.22911,0.03678 -0.26726,0.02105 -0.22377,-0.09228 0.066,-0.172023 -0.28632,-0.180998 -0.7402,-0.01885 -0.20911,0.0747 -0.3563,0.08377 -0.45582,0.02808 -0.19218,-0.107551 -2.32567,-0.157631 -2.32567,-0.05459 0,0.04295 -0.0594,0.07809 -0.132,0.07809 -0.0726,0 -0.10845,-0.0381 -0.0797,-0.08467 0.0813,-0.131579 -1.95186,-0.103994 -2.46821,0.03349 -0.37502,0.09985 -0.45325,0.0991 -0.5577,-0.0054 -0.14983,-0.149826 -1.47027,-0.180163 -1.61336,-0.03707 -0.13708,0.137074 -0.71164,0.114156 -0.94329,-0.03762 -0.11015,-0.07217 -0.47325,-0.154107 -0.8069,-0.182079 -0.37349,-0.03131 -0.56382,-0.078 -0.49525,-0.121483 0.11386,-0.0722 0.77415,-0.101887 0.83835,-0.03769 0.0195,0.01954 1.78801,0.05864 3.92994,0.08688 2.14193,0.02824 4.35162,0.07302 4.91042,0.09951 1.38228,0.06552 1.2956,0.06438 4.064,0.05347 3.472,-0.01368 5.52325,0.01264 5.58222,0.07161 0.0279,0.02787 -0.34829,0.07326 -0.83591,0.100878 -0.48763,0.02761 -0.96195,0.09054 -1.05405,0.139829 -0.36373,0.194664 -1.67797,0.0325 -1.36106,-0.167942 0.0983,-0.06219 0.0856,-0.07878 -0.0614,-0.07981 -0.10203,-6.77e-4 -0.20943,0.03742 -0.23869,0.08475 -0.0292,0.04733 -0.0881,0.06444 -0.13086,0.03804 -0.0427,-0.0264 -0.21953,-0.0088 -0.3929,0.03903 -0.22256,0.06145 -0.40875,0.05902 -0.63335,-0.0083 -0.25922,-0.07766 -0.38579,-0.06947 -0.68357,0.04425 -0.39184,0.149644 -1.5924,0.175343 -2.39179,0.0512 z m 8.38918,-0.06934 c -0.061,-0.09867 -0.005,-0.137877 0.30148,-0.210981 0.15735,-0.03753 0.23845,-0.01582 0.27252,0.07296 0.0324,0.08456 -0.004,0.126397 -0.11125,0.126397 -0.0879,0 -0.21616,0.02165 -0.28512,0.04811 -0.0689,0.02646 -0.14888,0.01004 -0.17763,-0.03648 z M 120.6095,15.953515 c -0.25611,-0.0351 -1.20861,-0.0522 -2.11666,-0.038 -1.99219,0.03115 -3.06227,-0.02998 -3.11151,-0.177754 -0.0194,-0.05821 -0.11237,-0.105834 -0.20661,-0.105834 -0.11138,0 -0.15555,0.04113 -0.12623,0.117538 0.0364,0.09493 -0.0718,0.112591 -0.56244,0.09182 -0.33415,-0.01415 -0.85519,-0.0683 -1.15787,-0.120344 -0.94434,-0.16237 -1.6228,-0.203148 -1.68573,-0.101318 -0.032,0.05175 -0.32594,0.09884 -0.65986,0.1057 -0.50732,0.01043 -0.63259,-0.01595 -0.79526,-0.167508 -0.1967,-0.183258 -0.58449,-0.247503 -0.58449,-0.09683 0,0.04568 0.10478,0.106162 0.23284,0.134406 0.12805,0.02824 0.27093,0.06635 0.3175,0.08467 0.11965,0.04709 -4.01089,-0.02075 -5.334,-0.08761 -0.60537,-0.03059 -1.25307,-0.06279 -1.43933,-0.07157 -0.18627,-0.0088 -0.35144,-0.05405 -0.36704,-0.100619 -0.0156,-0.04657 -0.0727,-0.138514 -0.127,-0.204327 -0.0843,-0.102296 0.0235,-0.111688 0.74273,-0.06473 0.7129,0.04655 0.86478,0.03373 0.99483,-0.08396 0.14229,-0.128773 0.16476,-0.128683 0.30831,0.0012 0.19162,0.173419 0.25883,0.174202 0.59415,0.0069 0.30543,-0.152369 0.31317,-0.171405 0.14001,-0.344561 -0.0699,-0.06985 -0.127,-0.176412 -0.127,-0.236805 0,-0.133601 0.54702,-0.218132 1.00986,-0.156053 l 0.33252,0.0446 -0.20032,0.216031 c -0.16248,0.175229 -0.22367,0.196645 -0.32398,0.113394 -0.17266,-0.143296 -0.66106,0.259929 -0.50589,0.417663 0.0989,0.100533 0.2155,0.112313 1.44964,0.146471 0.46695,0.01292 0.60417,0.0431 0.55908,0.122961 -0.0478,0.08467 -0.037,0.08467 0.0543,0 0.15548,-0.144311 0.39018,-0.133258 0.44944,0.02117 0.0268,0.06985 0.10588,0.127 0.17573,0.127 0.0699,0 0.10874,-0.04762 0.0864,-0.105833 -0.0619,-0.161483 1.92677,-0.185503 2.37412,-0.02867 0.23129,0.08109 0.35602,0.09043 0.39368,0.0295 0.0374,-0.06053 0.5272,-0.07085 1.52411,-0.03211 0.80794,0.0314 2.99298,0.07653 4.85564,0.100303 6.61615,0.08443 7.07986,0.09763 7.1831,0.204468 0.0762,0.07889 -0.0203,0.09014 -0.43093,0.05024 -0.3207,-0.03116 -0.52917,-0.01906 -0.52917,0.0307 0,0.214285 -1.51112,0.356636 -1.96298,0.184918 -0.10781,-0.04097 -0.36747,-0.0495 -0.57702,-0.01897 -0.20955,0.03054 -0.59055,0.0268 -0.84666,-0.0083 z m -9.77899,-0.406249 c 0.0288,-0.04657 -0.009,-0.08467 -0.0847,-0.08467 -0.0754,0 -0.11345,0.0381 -0.0847,0.08467 0.0288,0.04657 0.0669,0.08467 0.0847,0.08467 0.0178,0 0.0559,-0.0381 0.0847,-0.08467 z m 14.36357,0.111582 c -0.11847,-0.09014 -0.082,-0.106408 0.24142,-0.107593 0.5268,-0.0019 0.72191,0.135233 0.25562,0.179701 -0.2078,0.01982 -0.41589,-0.01037 -0.49704,-0.07211 z m -23.30032,-0.273205 c 0.16114,-0.106135 -0.0381,-0.154946 -1.05391,-0.25825 -0.0466,-0.0047 -0.0275,-0.04042 0.0423,-0.0793 0.13208,-0.07352 0.79416,-0.0551 1.42258,0.03959 0.27555,0.04152 0.35783,0.08869 0.3379,0.193735 -0.0195,0.102693 -0.13638,0.144858 -0.44891,0.161913 -0.29081,0.01587 -0.38435,-0.0021 -0.29999,-0.05768 z m 53.34441,-0.0035 c 0,-0.04425 0.062,-0.115181 0.13787,-0.157618 0.0872,-0.04881 0.10493,-0.09752 0.0482,-0.132588 -0.0493,-0.03049 -0.11362,-0.01671 -0.14286,0.03062 -0.0938,0.151751 -0.80072,0.05018 -1.56719,-0.225171 -0.32332,-0.11615 0.30294,-0.167533 1.60671,-0.131826 0.76942,0.02107 1.49421,0.02999 1.61062,0.01981 0.36983,-0.03234 0.8663,-0.03787 1.67779,-0.01872 l 0.78879,0.01862 -0.0268,0.232833 c -0.0286,0.24891 -0.28561,0.350787 -0.56211,0.22285 -0.0781,-0.03614 -0.23726,-0.07572 -0.35368,-0.08794 -0.11641,-0.01223 -0.33549,-0.04715 -0.48683,-0.0776 -0.18098,-0.03641 -0.27517,-0.02256 -0.27517,0.04047 0,0.129251 -0.82182,0.09767 -0.93263,-0.03584 -0.0621,-0.07487 -0.17901,-0.07949 -0.44369,-0.01751 -0.52597,0.123156 -0.82501,0.241206 -0.82501,0.325673 0,0.04092 -0.0571,0.07439 -0.127,0.07439 -0.0699,0 -0.127,-0.03621 -0.127,-0.08046 z M 99.442854,15.208599 c 0,-0.144302 0.0564,-0.169333 0.38183,-0.169333 0.277046,0 0.421606,-0.04646 0.526806,-0.169334 0.0797,-0.09313 0.20002,-0.169333 0.26728,-0.169333 0.21098,0 0.007,-0.126218 -0.23048,-0.142439 -0.12418,-0.0085 -0.503496,-0.04229 -0.842946,-0.07512 -0.547499,-0.05294 -0.630489,-0.04164 -0.735132,0.100105 -0.09104,0.123318 -0.141163,0.136915 -0.219632,0.05958 -0.07879,-0.07765 -0.0372,-0.140069 0.184801,-0.277335 0.27232,-0.16838 0.383499,-0.175978 2.250819,-0.153796 1.33464,0.01585 1.99542,0.05444 2.06128,0.120354 0.11914,0.119239 -0.20895,0.177934 -1.35598,0.242581 -0.70422,0.03969 -0.82829,0.07068 -1.02063,0.254958 -0.12043,0.115376 -0.26417,0.209775 -0.31944,0.209775 -0.0553,0 -0.14807,0.0762 -0.20623,0.169333 -0.0753,0.120553 -0.197446,0.169333 -0.424046,0.169333 -0.26186,0 -0.3183,-0.03003 -0.3183,-0.169333 z m 48.648736,-0.04068 c -0.23925,-0.08525 -0.67312,-0.111321 -1.56633,-0.0941 -0.67949,0.0131 -1.29834,-0.0077 -1.37523,-0.04621 -0.0796,-0.03988 -0.25609,-0.02949 -0.40993,0.02414 -0.20397,0.0711 -0.34878,0.06821 -0.59126,-0.01182 -0.25818,-0.08521 -0.4039,-0.08477 -0.74338,0.0022 -0.252,0.06459 -0.48637,0.07942 -0.58127,0.0368 -0.15585,-0.07 -0.75607,-0.126901 -1.25969,-0.119425 -1.43693,0.02133 -1.6811,-0.0031 -1.53103,-0.153103 0.0349,-0.03493 1.04141,-0.07127 2.2366,-0.08076 1.19521,-0.0095 3.0494,-0.02418 4.12043,-0.03263 2.46351,-0.01943 6.03911,0.04945 6.10732,0.117654 0.0286,0.02856 0.0303,0.108248 0.004,0.177077 -0.0394,0.102754 -0.10568,0.109016 -0.3703,0.035 -0.41223,-0.115308 -2.25868,-0.02555 -2.94693,0.143253 -0.61577,0.151023 -0.67412,0.151124 -1.09292,0.0019 z M 131.4045,15.038848 c -0.32596,-0.08208 -0.63076,-0.159812 -0.67733,-0.172744 -0.0466,-0.01293 -0.17992,0.01538 -0.29633,0.06291 -0.13153,0.0537 -0.53297,0.06355 -1.06036,0.02601 -0.46678,-0.03323 -1.22878,-0.04087 -1.69334,-0.01698 -1.45479,0.07481 -1.78496,0.06515 -1.93147,-0.05653 -0.0764,-0.06349 -0.1158,-0.152918 -0.0875,-0.198741 0.0335,-0.05419 1.80136,-0.06282 5.05791,-0.02469 2.75352,0.03224 5.13975,0.04969 5.30274,0.03878 0.70505,-0.04721 2.08736,-0.03016 2.23203,0.02753 0.12881,0.05137 0.13855,0.08597 0.0531,0.188885 -0.0702,0.08456 -0.26313,0.125999 -0.58666,0.125999 -0.26514,0 -0.6978,0.03988 -0.96147,0.08862 -0.34628,0.06401 -0.52869,0.06224 -0.65691,-0.0064 -0.0976,-0.05225 -0.54612,-0.110563 -0.99665,-0.129584 -1.13265,-0.04782 -1.20222,-0.04645 -1.31354,0.02585 -0.0541,0.0351 -0.40308,0.06608 -0.77561,0.06884 -0.37253,0.0028 -0.75353,0.02672 -0.84667,0.05324 -0.0931,0.02652 -0.43603,-0.01893 -0.762,-0.101008 z m -19.46976,0.0062 c -0.031,-0.05012 0.006,-0.09044 0.0832,-0.09044 0.19324,0 0.10737,-0.206014 -0.0986,-0.236639 -0.0924,-0.01374 -0.35207,0.05394 -0.57708,0.150394 -0.28473,0.12205 -0.37843,0.138394 -0.30819,0.05376 0.0829,-0.09988 0.0586,-0.129553 -0.13595,-0.166053 -0.3874,-0.07268 -1.46862,-0.04848 -2.03681,0.0456 -0.37379,0.06189 -0.56219,0.06097 -0.6394,-0.0031 -0.0602,-0.04997 -0.18636,-0.07075 -0.28032,-0.04618 -0.0962,0.02516 -0.21626,-0.01005 -0.2748,-0.08058 -0.085,-0.102358 -0.0688,-0.149872 0.0882,-0.259886 0.1886,-0.132096 0.66938,-0.184228 0.77011,-0.0835 0.0281,0.02812 1.14889,0.06726 2.49061,0.08699 1.34171,0.01973 2.85276,0.04733 3.35788,0.06134 0.70383,0.01953 0.92848,-7.62e-4 0.96156,-0.08699 0.0734,-0.191373 0.17823,-0.124683 0.23903,0.15211 0.0687,0.31261 -0.0649,0.439712 -0.38293,0.36444 -0.3739,-0.08849 -1.17961,-0.114742 -1.22584,-0.03994 -0.0247,0.03989 -0.26384,0.06192 -0.53152,0.04896 -0.4764,-0.02307 -1.02538,0.045 -1.30363,0.161651 -0.0768,0.03219 -0.16476,0.01782 -0.1955,-0.03192 z m 26.7031,-0.05493 c -0.14914,-0.1797 -0.03,-0.262148 0.38786,-0.268466 0.45919,-0.0069 0.46777,0.11924 0.0186,0.273648 -0.25689,0.08831 -0.32967,0.08738 -0.40649,-0.0052 z m -18.31469,-0.01144 c -0.0615,-0.06153 -0.74867,-0.108678 -1.55515,-0.106707 -0.44577,0.0011 -0.54199,-0.06973 -0.33178,-0.244194 0.10585,-0.08784 2.68128,-0.125342 2.68128,-0.03904 0,0.01942 -0.10477,0.12753 -0.23283,0.240241 -0.23354,0.205552 -0.44839,0.262832 -0.56152,0.149702 z m 3.694,-0.0079 c -0.21222,-0.03115 -0.41111,-0.313025 -0.27864,-0.394901 0.12829,-0.07928 1.62239,0.01628 1.71586,0.109744 0.0555,0.05552 0.0307,0.111852 -0.0733,0.166251 -0.16862,0.08822 -1.04968,0.165031 -1.36394,0.118906 z m -8.05737,-0.17252 c -0.14606,-0.27291 0.0541,-0.351638 0.89399,-0.351638 0.79215,0 0.97982,0.0705 0.79155,0.297355 -0.0717,0.08642 -0.21098,0.107561 -0.49134,0.07459 -0.21519,-0.02531 -0.42101,-0.06441 -0.45738,-0.08688 -0.0364,-0.02248 -0.15088,0.01849 -0.25445,0.09104 -0.24737,0.173262 -0.38016,0.166529 -0.48237,-0.02446 z m 5.35076,0.04106 c -0.0755,-0.121396 0.16719,-0.220699 0.5428,-0.222071 0.40112,-0.0015 0.53637,0.115586 0.28747,0.248793 -0.18988,0.10162 -0.76187,0.08321 -0.83027,-0.02672 z m 31.68396,0.03063 c -0.0288,-0.04657 0.005,-0.08467 0.0747,-0.08467 0.0699,0 0.15054,0.0381 0.17932,0.08467 0.0288,0.04657 -0.005,0.08467 -0.0747,0.08467 -0.0699,0 -0.15055,-0.0381 -0.17933,-0.08467 z m -57.372677,-0.28306 c 0.07338,-0.08842 0.04513,-0.136149 -0.127034,-0.21459 -0.182667,-0.08323 -0.259087,-0.07619 -0.436785,0.04024 -0.201162,0.131806 -0.222237,0.131744 -0.319265,-9.48e-4 -0.07538,-0.103082 -0.167474,-0.126112 -0.335591,-0.08392 -0.177124,0.04445 -0.222447,0.03041 -0.192396,-0.05963 0.02907,-0.0871 0.235971,-0.122106 0.794204,-0.13438 0.838378,-0.01843 1.135895,0.02015 1.135895,0.147306 0,0.04683 -0.09525,0.121364 -0.211666,0.165625 -0.116417,0.04426 -0.211667,0.119519 -0.211667,0.167238 0,0.04772 -0.04276,0.08676 -0.09503,0.08676 -0.06994,0 -0.07012,-0.03003 -6.78e-4,-0.113712 z M 76.117185,14.446599 c -0.02878,-0.04657 0.0048,-0.08467 0.07467,-0.08467 0.06985,0 0.150547,0.0381 0.179326,0.08467 0.02878,0.04657 -0.0048,0.08467 -0.07467,0.08467 -0.06985,0 -0.150547,-0.0381 -0.179326,-0.08467 z m 27.486915,0.0096 c -0.0811,-0.05143 -0.0381,-0.0837 0.14817,-0.111041 0.33511,-0.04918 0.77058,0.01359 0.77058,0.111078 0,0.096 -0.76724,0.09597 -0.91875,-3.7e-5 z M 72.095519,14.278908 c -0.156496,-0.05133 -0.06401,-0.07163 0.354836,-0.07787 0.311577,-0.0046 0.585896,0.02294 0.609599,0.06129 0.057,0.09223 -0.694417,0.105151 -0.964435,0.01658 z m -1.947333,-0.08631 c -0.377198,-0.05864 -0.375719,-0.05936 0.148166,-0.07195 0.304811,-0.0073 0.529167,0.02318 0.529167,0.07195 0,0.09128 -0.09022,0.09128 -0.677333,0 z"
         id="path838" />
    </g>
  </g>
</svg>
