<?xml version="1.0" encoding="UTF-8" standalone="no"?>
<!DOCTYPE svg PUBLIC "-//W3C//DTD SVG 1.1//EN"
 "http://www.w3.org/Graphics/SVG/1.1/DTD/svg11.dtd">
<!-- Generated by graphviz version 2.43.0 (0)
 -->
<!-- Title: G Pages: 1 -->
<svg width="570pt" height="440pt"
 viewBox="0.00 0.00 569.91 440.33" xmlns="http://www.w3.org/2000/svg" xmlns:xlink="http://www.w3.org/1999/xlink">
<g id="graph0" class="graph" transform="scale(1 1) rotate(0) translate(4 436.33)">
<title>G</title>
<!-- g -->
<g id="node1" class="node">
<title>g</title>
<ellipse fill="none" stroke="black" cx="457.64" cy="-85.84" rx="90.98" ry="18"/>
<text text-anchor="middle" x="457.64" y="-82.14" font-family="Handlee" font-size="14.00">Gleichstrommotor</text>
</g>
<!-- w -->
<g id="node2" class="node">
<title>w</title>
<ellipse fill="none" stroke="black" cx="189.35" cy="-148.1" rx="100.98" ry="18"/>
<text text-anchor="middle" x="189.35" y="-144.4" font-family="Handlee" font-size="14.00">Wechselstrommotor</text>
</g>
<!-- s -->
<g id="node3" class="node">
<title>s</title>
<ellipse fill="none" stroke="black" cx="402.44" cy="-346.84" rx="112.38" ry="18"/>
<text text-anchor="middle" x="402.44" y="-343.14" font-family="Handlee" font-size="14.00">Schrittmotor (Stepper)</text>
</g>
<!-- Justin -->
<g id="node4" class="node">
<title>Justin</title>
<ellipse fill="none" stroke="black" cx="525.51" cy="-41.84" rx="36.29" ry="18"/>
<text text-anchor="middle" x="525.51" y="-38.14" font-family="Handlee" font-size="14.00">Justin</text>
</g>
<!-- Justin&#45;&gt;g -->
<g id="edge1" class="edge">
<title>Justin&#45;&gt;g</title>
<path fill="none" stroke="black" d="M503.29,-56.25C499.99,-58.38 496.52,-60.63 493.04,-62.89"/>
<polygon fill="black" stroke="black" points="490.9,-60.11 484.41,-68.48 494.71,-65.98 490.9,-60.11"/>
</g>
<!-- Dat -->
<g id="node5" class="node">
<title>Dat</title>
<ellipse fill="none" stroke="black" cx="413.71" cy="-18" rx="27" ry="18"/>
<text text-anchor="middle" x="413.71" y="-14.3" font-family="Handlee" font-size="14.00">Dat</text>
</g>
<!-- Dat&#45;&gt;g -->
<g id="edge2" class="edge">
<title>Dat&#45;&gt;g</title>
<path fill="none" stroke="black" d="M424.57,-34.77C429.35,-42.15 435.08,-50.99 440.41,-59.23"/>
<polygon fill="black" stroke="black" points="437.61,-61.35 445.99,-67.84 443.49,-57.54 437.61,-61.35"/>
</g>
<!-- Jeremy -->
<g id="node6" class="node">
<title>Jeremy</title>
<ellipse fill="none" stroke="black" cx="390.25" cy="-130.47" rx="42.49" ry="18"/>
<text text-anchor="middle" x="390.25" y="-126.77" font-family="Handlee" font-size="14.00">Jeremy</text>
</g>
<!-- Jeremy&#45;&gt;g -->
<g id="edge3" class="edge">
<title>Jeremy&#45;&gt;g</title>
<path fill="none" stroke="black" d="M413.44,-115.11C416.51,-113.08 419.72,-110.95 422.94,-108.82"/>
<polygon fill="black" stroke="black" points="424.99,-111.66 431.4,-103.22 421.13,-105.82 424.99,-111.66"/>
</g>
<!-- Oskar -->
<g id="node7" class="node">
<title>Oskar</title>
<ellipse fill="none" stroke="black" cx="502.26" cy="-153.33" rx="37.09" ry="18"/>
<text text-anchor="middle" x="502.26" y="-149.63" font-family="Handlee" font-size="14.00">Oskar</text>
</g>
<!-- Oskar&#45;&gt;g -->
<g id="edge4" class="edge">
<title>Oskar&#45;&gt;g</title>
<path fill="none" stroke="black" d="M490.77,-135.95C486.05,-128.8 480.46,-120.36 475.24,-112.46"/>
<polygon fill="black" stroke="black" points="478,-110.28 469.56,-103.87 472.16,-114.14 478,-110.28"/>
</g>
<!-- Nina -->
<g id="node8" class="node">
<title>Nina</title>
<ellipse fill="none" stroke="black" cx="288.02" cy="-29.1" rx="31.4" ry="18"/>
<text text-anchor="middle" x="288.02" y="-25.4" font-family="Handlee" font-size="14.00">Nina</text>
</g>
<!-- Nina&#45;&gt;w -->
<g id="edge5" class="edge">
<title>Nina&#45;&gt;w</title>
<path fill="none" stroke="black" d="M274.3,-45.64C257.82,-65.52 229.97,-99.11 210.68,-122.38"/>
<polygon fill="black" stroke="black" points="207.93,-120.21 204.24,-130.14 213.32,-124.68 207.93,-120.21"/>
</g>
<!-- Ayami -->
<g id="node9" class="node">
<title>Ayami</title>
<ellipse fill="none" stroke="black" cx="106.1" cy="-18" rx="38.19" ry="18"/>
<text text-anchor="middle" x="106.1" y="-14.3" font-family="Handlee" font-size="14.00">Ayami</text>
</g>
<!-- Ayami&#45;&gt;w -->
<g id="edge6" class="edge">
<title>Ayami&#45;&gt;w</title>
<path fill="none" stroke="black" d="M117.15,-35.28C131.24,-57.29 155.73,-95.57 172.24,-121.36"/>
<polygon fill="black" stroke="black" points="169.37,-123.38 177.71,-129.91 175.27,-119.61 169.37,-123.38"/>
</g>
<!-- Leonie -->
<g id="node10" class="node">
<title>Leonie</title>
<ellipse fill="none" stroke="black" cx="40.3" cy="-188.71" rx="40.09" ry="18"/>
<text text-anchor="middle" x="40.3" y="-185.01" font-family="Handlee" font-size="14.00">Leonie</text>
</g>
<!-- Leonie&#45;&gt;w -->
<g id="edge7" class="edge">
<title>Leonie&#45;&gt;w</title>
<path fill="none" stroke="black" d="M74.87,-179.29C89.53,-175.3 107.13,-170.5 124.08,-165.89"/>
<polygon fill="black" stroke="black" points="125.22,-169.2 133.95,-163.19 123.38,-162.45 125.22,-169.2"/>
</g>
<!-- Elina -->
<g id="node11" class="node">
<title>Elina</title>
<ellipse fill="none" stroke="black" cx="333.55" cy="-204.15" rx="32.49" ry="18"/>
<text text-anchor="middle" x="333.55" y="-200.45" font-family="Handlee" font-size="14.00">Elina</text>
</g>
<!-- Elina&#45;&gt;w -->
<g id="edge8" class="edge">
<title>Elina&#45;&gt;w</title>
<path fill="none" stroke="black" d="M306.76,-193.74C288.31,-186.56 263.18,-176.8 240.91,-168.14"/>
<polygon fill="black" stroke="black" points="242.16,-164.87 231.57,-164.51 239.62,-171.4 242.16,-164.87"/>
</g>
<!-- Vincent -->
<g id="node12" class="node">
<title>Vincent</title>
<ellipse fill="none" stroke="black" cx="182.06" cy="-302.57" rx="44.39" ry="18"/>
<text text-anchor="middle" x="182.06" y="-298.87" font-family="Handlee" font-size="14.00">Vincent</text>
</g>
<!-- Vincent&#45;&gt;w -->
<g id="edge9" class="edge">
<title>Vincent&#45;&gt;w</title>
<path fill="none" stroke="black" d="M182.91,-284.55C184.16,-258.06 186.51,-208.37 187.99,-176.82"/>
<polygon fill="black" stroke="black" points="191.51,-176.64 188.48,-166.49 184.51,-176.31 191.51,-176.64"/>
</g>
<!-- Niklas -->
<g id="node13" class="node">
<title>Niklas</title>
<ellipse fill="none" stroke="black" cx="470.31" cy="-302.84" rx="38.19" ry="18"/>
<text text-anchor="middle" x="470.31" y="-299.14" font-family="Handlee" font-size="14.00">Niklas</text>
</g>
<!-- Niklas&#45;&gt;s -->
<g id="edge10" class="edge">
<title>Niklas&#45;&gt;s</title>
<path fill="none" stroke="black" d="M447.71,-317.49C444.6,-319.51 441.34,-321.62 438.06,-323.75"/>
<polygon fill="black" stroke="black" points="435.9,-320.97 429.42,-329.35 439.71,-326.85 435.9,-320.97"/>
</g>
<!-- Nikolas -->
<g id="node14" class="node">
<title>Nikolas</title>
<ellipse fill="none" stroke="black" cx="358.51" cy="-279" rx="42.79" ry="18"/>
<text text-anchor="middle" x="358.51" y="-275.3" font-family="Handlee" font-size="14.00">Nikolas</text>
</g>
<!-- Nikolas&#45;&gt;s -->
<g id="edge11" class="edge">
<title>Nikolas&#45;&gt;s</title>
<path fill="none" stroke="black" d="M369.82,-296.47C374.48,-303.66 379.98,-312.15 385.12,-320.09"/>
<polygon fill="black" stroke="black" points="382.33,-322.23 390.71,-328.72 388.21,-318.42 382.33,-322.23"/>
</g>
<!-- Frida -->
<g id="node15" class="node">
<title>Frida</title>
<ellipse fill="none" stroke="black" cx="335.04" cy="-391.47" rx="32.49" ry="18"/>
<text text-anchor="middle" x="335.04" y="-387.77" font-family="Handlee" font-size="14.00">Frida</text>
</g>
<!-- Frida&#45;&gt;s -->
<g id="edge12" class="edge">
<title>Frida&#45;&gt;s</title>
<path fill="none" stroke="black" d="M356,-377.6C359.57,-375.23 363.37,-372.71 367.2,-370.18"/>
<polygon fill="black" stroke="black" points="369.13,-373.1 375.54,-364.66 365.27,-367.26 369.13,-373.1"/>
</g>
<!-- Fine -->
<g id="node16" class="node">
<title>Fine</title>
<ellipse fill="none" stroke="black" cx="447.06" cy="-414.33" rx="28.7" ry="18"/>
<text text-anchor="middle" x="447.06" y="-410.63" font-family="Handlee" font-size="14.00">Fine</text>
</g>
<!-- Fine&#45;&gt;s -->
<g id="edge13" class="edge">
<title>Fine&#45;&gt;s</title>
<path fill="none" stroke="black" d="M436.03,-397.65C431.18,-390.31 425.36,-381.51 419.94,-373.31"/>
<polygon fill="black" stroke="black" points="422.72,-371.16 414.28,-364.75 416.88,-375.02 422.72,-371.16"/>
</g>
</g>
</svg>
