<?xml version="1.0" encoding="UTF-8" standalone="no"?>
<!DOCTYPE svg PUBLIC "-//W3C//DTD SVG 1.1//EN"
 "http://www.w3.org/Graphics/SVG/1.1/DTD/svg11.dtd">
<!-- Generated by graphviz version 2.43.0 (0)
 -->
<!-- Title: G Pages: 1 -->
<svg width="912pt" height="945pt"
 viewBox="0.00 0.00 911.51 945.01" xmlns="http://www.w3.org/2000/svg" xmlns:xlink="http://www.w3.org/1999/xlink">
<g id="graph0" class="graph" transform="scale(1 1) rotate(0) translate(4 941.01)">
<title>G</title>
<!-- Alltag -->
<g id="node1" class="node">
<title>Alltag</title>
<ellipse fill="none" stroke="black" cx="571.56" cy="-272.82" rx="36.29" ry="18"/>
<text text-anchor="middle" x="571.56" y="-269.12" font-family="Handlee" font-size="14.00">Alltag</text>
</g>
<!-- Beispiel -->
<g id="node2" class="node">
<title>Beispiel</title>
<ellipse fill="none" stroke="black" cx="814.9" cy="-182.62" rx="46.29" ry="18"/>
<text text-anchor="middle" x="814.9" y="-178.92" font-family="Handlee" font-size="14.00">Beispiel</text>
</g>
<!-- Alltag&#45;&gt;Beispiel -->
<g id="edge1" class="edge">
<title>Alltag&#45;&gt;Beispiel</title>
<path fill="none" stroke="black" d="M600.91,-261.94C643.46,-246.17 722.53,-216.86 771.73,-198.62"/>
<polygon fill="black" stroke="black" points="772.99,-201.89 781.15,-195.13 770.56,-195.33 772.99,-201.89"/>
</g>
<!-- Waschmachine -->
<g id="node3" class="node">
<title>Waschmachine</title>
<ellipse fill="none" stroke="black" cx="551.15" cy="-18" rx="78.79" ry="18"/>
<text text-anchor="middle" x="551.15" y="-14.3" font-family="Handlee" font-size="14.00">Waschmachine</text>
</g>
<!-- Alltag&#45;&gt;Waschmachine -->
<g id="edge2" class="edge">
<title>Alltag&#45;&gt;Waschmachine</title>
<path fill="none" stroke="black" d="M570.09,-254.5C566.57,-210.51 557.62,-98.72 553.41,-46.14"/>
<polygon fill="black" stroke="black" points="556.89,-45.85 552.61,-36.16 549.92,-46.41 556.89,-45.85"/>
</g>
<!-- Kühlschrank -->
<g id="node4" class="node">
<title>Kühlschrank</title>
<ellipse fill="none" stroke="black" cx="729.05" cy="-389.72" rx="66.09" ry="18"/>
<text text-anchor="middle" x="729.05" y="-386.02" font-family="Handlee" font-size="14.00">Kühlschrank</text>
</g>
<!-- Alltag&#45;&gt;Kühlschrank -->
<g id="edge3" class="edge">
<title>Alltag&#45;&gt;Kühlschrank</title>
<path fill="none" stroke="black" d="M591.83,-287.87C618.63,-307.76 666.15,-343.03 697.63,-366.4"/>
<polygon fill="black" stroke="black" points="695.93,-369.5 706.05,-372.65 700.11,-363.88 695.93,-369.5"/>
</g>
<!-- Garagentor -->
<g id="node5" class="node">
<title>Garagentor</title>
<ellipse fill="none" stroke="black" cx="841.77" cy="-291.48" rx="61.99" ry="18"/>
<text text-anchor="middle" x="841.77" y="-287.78" font-family="Handlee" font-size="14.00">Garagentor</text>
</g>
<!-- Alltag&#45;&gt;Garagentor -->
<g id="edge4" class="edge">
<title>Alltag&#45;&gt;Garagentor</title>
<path fill="none" stroke="black" d="M607.72,-275.32C649.38,-278.2 718.82,-282.99 771.27,-286.61"/>
<polygon fill="black" stroke="black" points="771.3,-290.12 781.52,-287.32 771.79,-283.14 771.3,-290.12"/>
</g>
<!-- Rolltreppen -->
<g id="node6" class="node">
<title>Rolltreppen</title>
<ellipse fill="none" stroke="black" cx="347.5" cy="-197.07" rx="61.99" ry="18"/>
<text text-anchor="middle" x="347.5" y="-193.37" font-family="Handlee" font-size="14.00">Rolltreppen</text>
</g>
<!-- Alltag&#45;&gt;Rolltreppen -->
<g id="edge5" class="edge">
<title>Alltag&#45;&gt;Rolltreppen</title>
<path fill="none" stroke="black" d="M541.34,-262.61C504.47,-250.14 441.61,-228.89 397.5,-213.97"/>
<polygon fill="black" stroke="black" points="398.42,-210.59 387.83,-210.7 396.18,-217.22 398.42,-210.59"/>
</g>
<!-- Föhn -->
<g id="node7" class="node">
<title>Föhn</title>
<ellipse fill="none" stroke="black" cx="431.92" cy="-48.28" rx="32.49" ry="18"/>
<text text-anchor="middle" x="431.92" y="-44.58" font-family="Handlee" font-size="14.00">Föhn</text>
</g>
<!-- Alltag&#45;&gt;Föhn -->
<g id="edge6" class="edge">
<title>Alltag&#45;&gt;Föhn</title>
<path fill="none" stroke="black" d="M560.84,-255.58C536.47,-216.39 476.82,-120.48 448.01,-74.16"/>
<polygon fill="black" stroke="black" points="450.93,-72.23 442.68,-65.59 444.99,-75.93 450.93,-72.23"/>
</g>
<!-- elektrische Zahnbürste -->
<g id="node8" class="node">
<title>elektrische Zahnbürste</title>
<ellipse fill="none" stroke="black" cx="753.71" cy="-97" rx="115.88" ry="18"/>
<text text-anchor="middle" x="753.71" y="-93.3" font-family="Handlee" font-size="14.00">elektrische Zahnbürste</text>
</g>
<!-- Alltag&#45;&gt;elektrische Zahnbürste -->
<g id="edge7" class="edge">
<title>Alltag&#45;&gt;elektrische Zahnbürste</title>
<path fill="none" stroke="black" d="M588.37,-256.6C620.19,-225.88 689.44,-159.05 727.44,-122.36"/>
<polygon fill="black" stroke="black" points="730.29,-124.48 735.05,-115.01 725.43,-119.44 730.29,-124.48"/>
</g>
<!-- Aufzug -->
<g id="node9" class="node">
<title>Aufzug</title>
<ellipse fill="none" stroke="black" cx="329.92" cy="-410.25" rx="42.79" ry="18"/>
<text text-anchor="middle" x="329.92" y="-406.55" font-family="Handlee" font-size="14.00">Aufzug</text>
</g>
<!-- Alltag&#45;&gt;Aufzug -->
<g id="edge8" class="edge">
<title>Alltag&#45;&gt;Aufzug</title>
<path fill="none" stroke="black" d="M547.51,-286.5C504.47,-310.98 414.14,-362.36 364.48,-390.6"/>
<polygon fill="black" stroke="black" points="362.66,-387.61 355.69,-395.6 366.12,-393.7 362.66,-387.61"/>
</g>
<!-- Straßenbahn -->
<g id="node10" class="node">
<title>Straßenbahn</title>
<ellipse fill="none" stroke="black" cx="414.04" cy="-454.27" rx="69.59" ry="18"/>
<text text-anchor="middle" x="414.04" y="-450.57" font-family="Handlee" font-size="14.00">Straßenbahn</text>
</g>
<!-- Alltag&#45;&gt;Straßenbahn -->
<g id="edge9" class="edge">
<title>Alltag&#45;&gt;Straßenbahn</title>
<path fill="none" stroke="black" d="M557.02,-289.57C529.41,-321.38 469.2,-390.73 436.41,-428.5"/>
<polygon fill="black" stroke="black" points="433.38,-426.66 429.47,-436.5 438.67,-431.24 433.38,-426.66"/>
</g>
<!-- eRoller -->
<g id="node11" class="node">
<title>eRoller</title>
<ellipse fill="none" stroke="black" cx="679.49" cy="-40.12" rx="41.69" ry="18"/>
<text text-anchor="middle" x="679.49" y="-36.42" font-family="Handlee" font-size="14.00">eRoller</text>
</g>
<!-- Alltag&#45;&gt;eRoller -->
<g id="edge10" class="edge">
<title>Alltag&#45;&gt;eRoller</title>
<path fill="none" stroke="black" d="M579.85,-254.95C598.65,-214.43 644.6,-115.36 666.92,-67.24"/>
<polygon fill="black" stroke="black" points="670.14,-68.6 671.18,-58.06 663.79,-65.66 670.14,-68.6"/>
</g>
<!-- Computerlaufwerke -->
<g id="node12" class="node">
<title>Computerlaufwerke</title>
<ellipse fill="none" stroke="black" cx="343.82" cy="-99.14" rx="98.58" ry="18"/>
<text text-anchor="middle" x="343.82" y="-95.44" font-family="Handlee" font-size="14.00">Computerlaufwerke</text>
</g>
<!-- Alltag&#45;&gt;Computerlaufwerke -->
<g id="edge11" class="edge">
<title>Alltag&#45;&gt;Computerlaufwerke</title>
<path fill="none" stroke="black" d="M551.75,-257.71C512.14,-227.51 422.9,-159.45 375.23,-123.1"/>
<polygon fill="black" stroke="black" points="377.19,-120.19 367.11,-116.91 372.94,-125.75 377.19,-120.19"/>
</g>
<!-- Bohrmaschine -->
<g id="node13" class="node">
<title>Bohrmaschine</title>
<ellipse fill="none" stroke="black" cx="565.18" cy="-550.14" rx="75.29" ry="18"/>
<text text-anchor="middle" x="565.18" y="-546.44" font-family="Handlee" font-size="14.00">Bohrmaschine</text>
</g>
<!-- Alltag&#45;&gt;Bohrmaschine -->
<g id="edge12" class="edge">
<title>Alltag&#45;&gt;Bohrmaschine</title>
<path fill="none" stroke="black" d="M571.14,-291.02C570.06,-338.22 567.14,-464.89 565.83,-521.78"/>
<polygon fill="black" stroke="black" points="562.33,-521.8 565.6,-531.87 569.33,-521.96 562.33,-521.8"/>
</g>
<!-- Anlasser -->
<g id="node14" class="node">
<title>Anlasser</title>
<ellipse fill="none" stroke="black" cx="826.59" cy="-433.73" rx="50.09" ry="18"/>
<text text-anchor="middle" x="826.59" y="-430.03" font-family="Handlee" font-size="14.00">Anlasser</text>
</g>
<!-- Alltag&#45;&gt;Anlasser -->
<g id="edge13" class="edge">
<title>Alltag&#45;&gt;Anlasser</title>
<path fill="none" stroke="black" d="M594.19,-287.1C639.25,-315.53 740.37,-379.33 793.12,-412.61"/>
<polygon fill="black" stroke="black" points="791.45,-415.69 801.77,-418.07 795.18,-409.77 791.45,-415.69"/>
</g>
<!-- Servomotor -->
<g id="node15" class="node">
<title>Servomotor</title>
<ellipse fill="none" stroke="black" cx="487.67" cy="-506.11" rx="63.89" ry="18"/>
<text text-anchor="middle" x="487.67" y="-502.41" font-family="Handlee" font-size="14.00">Servomotor</text>
</g>
<!-- Alltag&#45;&gt;Servomotor -->
<g id="edge14" class="edge">
<title>Alltag&#45;&gt;Servomotor</title>
<path fill="none" stroke="black" d="M565.12,-290.74C550.54,-331.28 514.94,-430.27 497.55,-478.62"/>
<polygon fill="black" stroke="black" points="494.22,-477.54 494.13,-488.13 500.81,-479.9 494.22,-477.54"/>
</g>
<!-- i -->
<g id="node16" class="node">
<title>i</title>
<ellipse fill="none" stroke="black" cx="330.91" cy="-672.44" rx="101.65" ry="26.74"/>
<text text-anchor="middle" x="330.91" y="-676.24" font-family="Handlee" font-size="14.00">Industrie </text>
<text text-anchor="middle" x="330.91" y="-661.24" font-family="Handlee" font-size="14.00"> und Wissenschaft</text>
</g>
<!-- i&#45;&gt;Aufzug -->
<g id="edge17" class="edge">
<title>i&#45;&gt;Aufzug</title>
<path fill="none" stroke="black" d="M330.81,-645.37C330.62,-595.51 330.22,-489.64 330.03,-438.75"/>
<polygon fill="black" stroke="black" points="333.53,-438.46 329.99,-428.47 326.53,-438.49 333.53,-438.46"/>
</g>
<!-- i&#45;&gt;Straßenbahn -->
<g id="edge18" class="edge">
<title>i&#45;&gt;Straßenbahn</title>
<path fill="none" stroke="black" d="M341.1,-645.69C357,-603.97 387.53,-523.86 403.58,-481.72"/>
<polygon fill="black" stroke="black" points="406.86,-482.95 407.15,-472.36 400.32,-480.46 406.86,-482.95"/>
</g>
<!-- i&#45;&gt;Bohrmaschine -->
<g id="edge21" class="edge">
<title>i&#45;&gt;Bohrmaschine</title>
<path fill="none" stroke="black" d="M376.92,-648.42C419.9,-625.98 483.46,-592.8 524.6,-571.32"/>
<polygon fill="black" stroke="black" points="526.29,-574.39 533.53,-566.66 523.05,-568.18 526.29,-574.39"/>
</g>
<!-- i&#45;&gt;Servomotor -->
<g id="edge22" class="edge">
<title>i&#45;&gt;Servomotor</title>
<path fill="none" stroke="black" d="M355.75,-646.08C385.51,-614.5 435.01,-561.98 464.17,-531.04"/>
<polygon fill="black" stroke="black" points="466.81,-533.34 471.12,-523.67 461.72,-528.54 466.81,-533.34"/>
</g>
<!-- noch ein Beispiel -->
<g id="node17" class="node">
<title>noch ein Beispiel</title>
<ellipse fill="none" stroke="black" cx="520.01" cy="-879.8" rx="87.18" ry="18"/>
<text text-anchor="middle" x="520.01" y="-876.1" font-family="Handlee" font-size="14.00">noch ein Beispiel</text>
</g>
<!-- i&#45;&gt;noch ein Beispiel -->
<g id="edge15" class="edge">
<title>i&#45;&gt;noch ein Beispiel</title>
<path fill="none" stroke="black" d="M354.86,-698.7C391.48,-738.85 460.91,-814.99 496.97,-854.54"/>
<polygon fill="black" stroke="black" points="494.4,-856.91 503.72,-861.94 499.57,-852.19 494.4,-856.91"/>
</g>
<!-- Eismaschine -->
<g id="node18" class="node">
<title>Eismaschine</title>
<ellipse fill="none" stroke="black" cx="357.31" cy="-919.01" rx="67.69" ry="18"/>
<text text-anchor="middle" x="357.31" y="-915.31" font-family="Handlee" font-size="14.00">Eismaschine</text>
</g>
<!-- i&#45;&gt;Eismaschine -->
<g id="edge16" class="edge">
<title>i&#45;&gt;Eismaschine</title>
<path fill="none" stroke="black" d="M333.84,-699.77C338.88,-746.88 349.16,-842.92 354.28,-890.7"/>
<polygon fill="black" stroke="black" points="350.83,-891.37 355.37,-900.94 357.79,-890.63 350.83,-891.37"/>
</g>
<!-- Leuchtturm -->
<g id="node19" class="node">
<title>Leuchtturm</title>
<ellipse fill="none" stroke="black" cx="62.39" cy="-609.42" rx="62.29" ry="18"/>
<text text-anchor="middle" x="62.39" y="-605.72" font-family="Handlee" font-size="14.00">Leuchtturm</text>
</g>
<!-- i&#45;&gt;Leuchtturm -->
<g id="edge19" class="edge">
<title>i&#45;&gt;Leuchtturm</title>
<path fill="none" stroke="black" d="M254.68,-654.55C212.18,-644.57 160.06,-632.34 120.82,-623.13"/>
<polygon fill="black" stroke="black" points="121.41,-619.68 110.87,-620.8 119.81,-626.49 121.41,-619.68"/>
</g>
<!-- Lüftungen -->
<g id="node20" class="node">
<title>Lüftungen</title>
<ellipse fill="none" stroke="black" cx="206.19" cy="-872.48" rx="56.59" ry="18"/>
<text text-anchor="middle" x="206.19" y="-868.78" font-family="Handlee" font-size="14.00">Lüftungen</text>
</g>
<!-- i&#45;&gt;Lüftungen -->
<g id="edge20" class="edge">
<title>i&#45;&gt;Lüftungen</title>
<path fill="none" stroke="black" d="M314.35,-699C290.43,-737.38 246.46,-807.9 222.61,-846.14"/>
<polygon fill="black" stroke="black" points="219.61,-844.35 217.29,-854.69 225.55,-848.05 219.61,-844.35"/>
</g>
<!-- Pumpen -->
<g id="node21" class="node">
<title>Pumpen</title>
<ellipse fill="none" stroke="black" cx="98.36" cy="-753.64" rx="48.19" ry="18"/>
<text text-anchor="middle" x="98.36" y="-749.94" font-family="Handlee" font-size="14.00">Pumpen</text>
</g>
<!-- i&#45;&gt;Pumpen -->
<g id="edge23" class="edge">
<title>i&#45;&gt;Pumpen</title>
<path fill="none" stroke="black" d="M269.51,-693.88C229.9,-707.71 179.27,-725.39 143.38,-737.92"/>
<polygon fill="black" stroke="black" points="141.96,-734.71 133.67,-741.31 144.27,-741.32 141.96,-734.71"/>
</g>
</g>
</svg>
