<?xml version="1.0" encoding="UTF-8" standalone="no"?>
<!DOCTYPE svg PUBLIC "-//W3C//DTD SVG 1.1//EN"
 "http://www.w3.org/Graphics/SVG/1.1/DTD/svg11.dtd">
<!-- Generated by graphviz version 2.43.0 (0)
 -->
<!-- Title: G Pages: 1 -->
<svg width="289pt" height="225pt"
 viewBox="0.00 0.00 289.22 225.11" xmlns="http://www.w3.org/2000/svg" xmlns:xlink="http://www.w3.org/1999/xlink">
<g id="graph0" class="graph" transform="scale(1 1) rotate(0) translate(4 221.11)">
<title>G</title>
<polygon fill="white" stroke="transparent" points="-4,4 -4,-221.11 285.22,-221.11 285.22,4 -4,4"/>
<!-- Physik -->
<g id="node1" class="node">
<title>Physik</title>
<ellipse fill="none" stroke="black" cx="146.35" cy="-108.53" rx="41.69" ry="18"/>
<text text-anchor="middle" x="146.35" y="-104.83" font-family="Times,serif" font-size="14.00">Physik</text>
</g>
<!-- Akustik -->
<g id="node2" class="node">
<title>Akustik</title>
<ellipse fill="none" stroke="black" cx="224.69" cy="-62.99" rx="45.49" ry="18"/>
<text text-anchor="middle" x="224.69" y="-59.29" font-family="Times,serif" font-size="14.00">Akustik</text>
</g>
<!-- Physik&#45;&gt;Akustik -->
<g id="edge1" class="edge">
<title>Physik&#45;&gt;Akustik</title>
<path fill="none" stroke="black" d="M171.57,-93.87C177.46,-90.45 183.83,-86.74 190.05,-83.13"/>
<polygon fill="black" stroke="black" points="192.09,-85.99 198.98,-77.94 188.58,-79.94 192.09,-85.99"/>
</g>
<!-- Atom&#45; und Kernphysik -->
<g id="node3" class="node">
<title>Atom&#45; und Kernphysik</title>
<ellipse fill="none" stroke="black" cx="146.17" cy="-18" rx="113.98" ry="18"/>
<text text-anchor="middle" x="146.17" y="-14.3" font-family="Times,serif" font-size="14.00">Atom&#45; und Kernphysik</text>
</g>
<!-- Physik&#45;&gt;Atom&#45; und Kernphysik -->
<g id="edge2" class="edge">
<title>Physik&#45;&gt;Atom&#45; und Kernphysik</title>
<path fill="none" stroke="black" d="M146.32,-90.21C146.29,-77.7 146.26,-60.86 146.23,-46.59"/>
<polygon fill="black" stroke="black" points="149.73,-46.29 146.21,-36.29 142.73,-46.3 149.73,-46.29"/>
</g>
<!-- Optik -->
<g id="node4" class="node">
<title>Optik</title>
<ellipse fill="none" stroke="black" cx="68.73" cy="-155.11" rx="36.29" ry="18"/>
<text text-anchor="middle" x="68.73" y="-151.41" font-family="Times,serif" font-size="14.00">Optik</text>
</g>
<!-- Physik&#45;&gt;Optik -->
<g id="edge3" class="edge">
<title>Physik&#45;&gt;Optik</title>
<path fill="none" stroke="black" d="M121.79,-123.27C115.11,-127.28 107.77,-131.68 100.74,-135.9"/>
<polygon fill="black" stroke="black" points="98.85,-132.96 92.07,-141.1 102.45,-138.96 98.85,-132.96"/>
</g>
<!-- Mechanik -->
<g id="node5" class="node">
<title>Mechanik</title>
<ellipse fill="none" stroke="black" cx="225.33" cy="-153.01" rx="55.79" ry="18"/>
<text text-anchor="middle" x="225.33" y="-149.31" font-family="Times,serif" font-size="14.00">Mechanik</text>
</g>
<!-- Physik&#45;&gt;Mechanik -->
<g id="edge4" class="edge">
<title>Physik&#45;&gt;Mechanik</title>
<path fill="none" stroke="black" d="M171.78,-122.85C177.16,-125.88 182.95,-129.14 188.66,-132.36"/>
<polygon fill="black" stroke="black" points="187.06,-135.48 197.49,-137.33 190.5,-129.38 187.06,-135.48"/>
</g>
<!-- Elektrizitätslehre -->
<g id="node6" class="node">
<title>Elektrizitätslehre</title>
<ellipse fill="none" stroke="black" cx="147.93" cy="-199.11" rx="92.08" ry="18"/>
<text text-anchor="middle" x="147.93" y="-195.41" font-family="Times,serif" font-size="14.00">Elektrizitätslehre</text>
</g>
<!-- Physik&#45;&gt;Elektrizitätslehre -->
<g id="edge5" class="edge">
<title>Physik&#45;&gt;Elektrizitätslehre</title>
<path fill="none" stroke="black" d="M146.67,-126.86C146.89,-139.39 147.18,-156.23 147.43,-170.51"/>
<polygon fill="black" stroke="black" points="143.94,-170.87 147.61,-180.81 150.94,-170.75 143.94,-170.87"/>
</g>
<!-- Wärmelehre -->
<g id="node7" class="node">
<title>Wärmelehre</title>
<ellipse fill="none" stroke="black" cx="67.59" cy="-63.97" rx="67.69" ry="18"/>
<text text-anchor="middle" x="67.59" y="-60.27" font-family="Times,serif" font-size="14.00">Wärmelehre</text>
</g>
<!-- Physik&#45;&gt;Wärmelehre -->
<g id="edge6" class="edge">
<title>Physik&#45;&gt;Wärmelehre</title>
<path fill="none" stroke="black" d="M121,-94.19C115.99,-91.35 110.63,-88.32 105.31,-85.31"/>
<polygon fill="black" stroke="black" points="106.89,-82.18 96.46,-80.3 103.44,-88.27 106.89,-82.18"/>
</g>
</g>
</svg>
