<?xml version="1.0" encoding="UTF-8" standalone="no"?>
<!DOCTYPE svg PUBLIC "-//W3C//DTD SVG 1.1//EN"
 "http://www.w3.org/Graphics/SVG/1.1/DTD/svg11.dtd">
<!-- Generated by graphviz version 2.43.0 (0)
 -->
<!-- Title: G Pages: 1 -->
<svg width="426pt" height="306pt"
 viewBox="0.00 0.00 425.78 305.61" xmlns="http://www.w3.org/2000/svg" xmlns:xlink="http://www.w3.org/1999/xlink">
<g id="graph0" class="graph" transform="scale(1 1) rotate(0) translate(4 301.61)">
<title>G</title>
<polygon fill="white" stroke="transparent" points="-4,4 -4,-301.61 421.78,-301.61 421.78,4 -4,4"/>
<!-- Physik -->
<g id="node1" class="node">
<title>Physik</title>
<ellipse fill="none" stroke="black" cx="192.92" cy="-137.61" rx="41.69" ry="18"/>
<text text-anchor="middle" x="192.92" y="-133.91" font-family="Times,serif" font-size="14.00">Physik</text>
</g>
<!-- Akustik -->
<g id="node2" class="node">
<title>Akustik</title>
<ellipse fill="none" stroke="black" cx="283.64" cy="-28.2" rx="45.49" ry="18"/>
<text text-anchor="middle" x="283.64" y="-24.5" font-family="Times,serif" font-size="14.00">Akustik</text>
</g>
<!-- Physik&#45;&gt;Akustik -->
<g id="edge1" class="edge">
<title>Physik&#45;&gt;Akustik</title>
<path fill="none" stroke="black" d="M207.1,-120.51C222.05,-102.47 245.78,-73.86 262.85,-53.27"/>
<polygon fill="black" stroke="black" points="265.58,-55.47 269.26,-45.54 260.19,-51 265.58,-55.47"/>
</g>
<!-- Atom&#45; und Kernphysik -->
<g id="node3" class="node">
<title>Atom&#45; und Kernphysik</title>
<ellipse fill="none" stroke="black" cx="116.39" cy="-18" rx="113.98" ry="18"/>
<text text-anchor="middle" x="116.39" y="-14.3" font-family="Times,serif" font-size="14.00">Atom&#45; und Kernphysik</text>
</g>
<!-- Physik&#45;&gt;Atom&#45; und Kernphysik -->
<g id="edge2" class="edge">
<title>Physik&#45;&gt;Atom&#45; und Kernphysik</title>
<path fill="none" stroke="black" d="M181.79,-120.21C169.13,-100.42 148.3,-67.87 133.55,-44.82"/>
<polygon fill="black" stroke="black" points="136.37,-42.73 128.03,-36.2 130.47,-46.51 136.37,-42.73"/>
</g>
<!-- Mechanik -->
<g id="node4" class="node">
<title>Mechanik</title>
<ellipse fill="none" stroke="black" cx="55.9" cy="-174.94" rx="55.79" ry="18"/>
<text text-anchor="middle" x="55.9" y="-171.24" font-family="Times,serif" font-size="14.00">Mechanik</text>
</g>
<!-- Physik&#45;&gt;Mechanik -->
<g id="edge3" class="edge">
<title>Physik&#45;&gt;Mechanik</title>
<path fill="none" stroke="black" d="M157.63,-147.22C142.73,-151.28 125.05,-156.1 108.65,-160.57"/>
<polygon fill="black" stroke="black" points="107.37,-157.29 98.64,-163.29 109.21,-164.04 107.37,-157.29"/>
</g>
<!-- Elektrizitätslehre -->
<g id="node5" class="node">
<title>Elektrizitätslehre</title>
<ellipse fill="none" stroke="black" cx="325.49" cy="-189.13" rx="92.08" ry="18"/>
<text text-anchor="middle" x="325.49" y="-185.43" font-family="Times,serif" font-size="14.00">Elektrizitätslehre</text>
</g>
<!-- Physik&#45;&gt;Elektrizitätslehre -->
<g id="edge4" class="edge">
<title>Physik&#45;&gt;Elektrizitätslehre</title>
<path fill="none" stroke="black" d="M224,-149.69C238.97,-155.5 257.32,-162.63 274.27,-169.23"/>
<polygon fill="black" stroke="black" points="273.47,-172.67 284.06,-173.03 276.01,-166.14 273.47,-172.67"/>
</g>
<!-- Wärmelehre -->
<g id="node6" class="node">
<title>Wärmelehre</title>
<ellipse fill="none" stroke="black" cx="186.22" cy="-279.61" rx="67.69" ry="18"/>
<text text-anchor="middle" x="186.22" y="-275.91" font-family="Times,serif" font-size="14.00">Wärmelehre</text>
</g>
<!-- Physik&#45;&gt;Wärmelehre -->
<g id="edge5" class="edge">
<title>Physik&#45;&gt;Wärmelehre</title>
<path fill="none" stroke="black" d="M192.06,-155.88C190.92,-180.06 188.9,-222.92 187.56,-251.31"/>
<polygon fill="black" stroke="black" points="184.06,-251.25 187.08,-261.41 191.05,-251.58 184.06,-251.25"/>
</g>
</g>
</svg>
