<?xml version="1.0" encoding="UTF-8" standalone="no"?>
<!DOCTYPE svg PUBLIC "-//W3C//DTD SVG 1.1//EN"
 "http://www.w3.org/Graphics/SVG/1.1/DTD/svg11.dtd">
<!-- Generated by graphviz version 2.43.0 (0)
 -->
<!-- Title: G Pages: 1 -->
<svg width="387pt" height="306pt"
 viewBox="0.00 0.00 386.74 305.61" xmlns="http://www.w3.org/2000/svg" xmlns:xlink="http://www.w3.org/1999/xlink">
<g id="graph0" class="graph" transform="scale(1 1) rotate(0) translate(4 301.61)">
<title>G</title>
<polygon fill="white" stroke="transparent" points="-4,4 -4,-301.61 382.74,-301.61 382.74,4 -4,4"/>
<!-- Physik -->
<g id="node1" class="node">
<title>Physik</title>
<ellipse fill="none" stroke="black" cx="190.28" cy="-137.61" rx="41.69" ry="18"/>
<text text-anchor="middle" x="190.28" y="-133.91" font-family="Times,serif" font-size="14.00">Physik</text>
</g>
<!-- Akustik -->
<g id="node2" class="node">
<title>Akustik</title>
<ellipse fill="none" stroke="black" cx="280.99" cy="-28.2" rx="45.49" ry="18"/>
<text text-anchor="middle" x="280.99" y="-24.5" font-family="Times,serif" font-size="14.00">Akustik</text>
</g>
<!-- Physik&#45;&gt;Akustik -->
<g id="edge1" class="edge">
<title>Physik&#45;&gt;Akustik</title>
<path fill="none" stroke="black" d="M204.45,-120.51C219.41,-102.47 243.13,-73.86 260.21,-53.27"/>
<polygon fill="black" stroke="black" points="262.93,-55.47 266.62,-45.54 257.54,-51 262.93,-55.47"/>
</g>
<!-- Atom&#45; und Kernphysik -->
<g id="node3" class="node">
<title>Atom&#45; und Kernphysik</title>
<ellipse fill="none" stroke="black" cx="113.74" cy="-18" rx="113.98" ry="18"/>
<text text-anchor="middle" x="113.74" y="-14.3" font-family="Times,serif" font-size="14.00">Atom&#45; und Kernphysik</text>
</g>
<!-- Physik&#45;&gt;Atom&#45; und Kernphysik -->
<g id="edge2" class="edge">
<title>Physik&#45;&gt;Atom&#45; und Kernphysik</title>
<path fill="none" stroke="black" d="M179.15,-120.21C166.48,-100.42 145.65,-67.87 130.9,-44.82"/>
<polygon fill="black" stroke="black" points="133.72,-42.73 125.38,-36.2 127.83,-46.51 133.72,-42.73"/>
</g>
<!-- Optik -->
<g id="node4" class="node">
<title>Optik</title>
<ellipse fill="none" stroke="black" cx="53.25" cy="-174.94" rx="36.29" ry="18"/>
<text text-anchor="middle" x="53.25" y="-171.24" font-family="Times,serif" font-size="14.00">Optik</text>
</g>
<!-- Physik&#45;&gt;Optik -->
<g id="edge3" class="edge">
<title>Physik&#45;&gt;Optik</title>
<path fill="none" stroke="black" d="M154.99,-147.22C136.62,-152.22 114.05,-158.37 94.84,-163.61"/>
<polygon fill="black" stroke="black" points="93.87,-160.25 85.14,-166.25 95.71,-167 93.87,-160.25"/>
</g>
<!-- Mechanik -->
<g id="node5" class="node">
<title>Mechanik</title>
<ellipse fill="none" stroke="black" cx="322.84" cy="-189.13" rx="55.79" ry="18"/>
<text text-anchor="middle" x="322.84" y="-185.43" font-family="Times,serif" font-size="14.00">Mechanik</text>
</g>
<!-- Physik&#45;&gt;Mechanik -->
<g id="edge4" class="edge">
<title>Physik&#45;&gt;Mechanik</title>
<path fill="none" stroke="black" d="M221.36,-149.69C238.04,-156.17 258.92,-164.28 277.39,-171.46"/>
<polygon fill="black" stroke="black" points="276.21,-174.76 286.8,-175.12 278.74,-168.24 276.21,-174.76"/>
</g>
<!-- Wärmelehre -->
<g id="node6" class="node">
<title>Wärmelehre</title>
<ellipse fill="none" stroke="black" cx="183.58" cy="-279.61" rx="67.69" ry="18"/>
<text text-anchor="middle" x="183.58" y="-275.91" font-family="Times,serif" font-size="14.00">Wärmelehre</text>
</g>
<!-- Physik&#45;&gt;Wärmelehre -->
<g id="edge5" class="edge">
<title>Physik&#45;&gt;Wärmelehre</title>
<path fill="none" stroke="black" d="M189.41,-155.88C188.27,-180.06 186.25,-222.92 184.91,-251.31"/>
<polygon fill="black" stroke="black" points="181.41,-251.25 184.44,-261.41 188.4,-251.58 181.41,-251.25"/>
</g>
</g>
</svg>
