<?xml version="1.0" encoding="UTF-8" standalone="no"?>
<!DOCTYPE svg PUBLIC "-//W3C//DTD SVG 1.1//EN"
 "http://www.w3.org/Graphics/SVG/1.1/DTD/svg11.dtd">
<!-- Generated by graphviz version 2.43.0 (0)
 -->
<!-- Title: G Pages: 1 -->
<svg width="386pt" height="267pt"
 viewBox="0.00 0.00 386.43 267.42" xmlns="http://www.w3.org/2000/svg" xmlns:xlink="http://www.w3.org/1999/xlink">
<g id="graph0" class="graph" transform="scale(1 1) rotate(0) translate(4 263.42)">
<title>G</title>
<polygon fill="white" stroke="transparent" points="-4,4 -4,-263.42 382.43,-263.42 382.43,4 -4,4"/>
<!-- Physik -->
<g id="node1" class="node">
<title>Physik</title>
<ellipse fill="none" stroke="black" cx="172.92" cy="-120.14" rx="41.69" ry="18"/>
<text text-anchor="middle" x="172.92" y="-116.44" font-family="Times,serif" font-size="14.00">Physik</text>
</g>
<!-- Akustik -->
<g id="node2" class="node">
<title>Akustik</title>
<ellipse fill="none" stroke="black" cx="250.39" cy="-26.71" rx="45.49" ry="18"/>
<text text-anchor="middle" x="250.39" y="-23.01" font-family="Times,serif" font-size="14.00">Akustik</text>
</g>
<!-- Physik&#45;&gt;Akustik -->
<g id="edge1" class="edge">
<title>Physik&#45;&gt;Akustik</title>
<path fill="none" stroke="black" d="M187.13,-103.01C198.96,-88.74 215.97,-68.22 229.38,-52.06"/>
<polygon fill="black" stroke="black" points="232.32,-53.99 236.01,-44.06 226.93,-49.52 232.32,-53.99"/>
</g>
<!-- Optik -->
<g id="node3" class="node">
<title>Optik</title>
<ellipse fill="none" stroke="black" cx="107.56" cy="-18" rx="36.29" ry="18"/>
<text text-anchor="middle" x="107.56" y="-14.3" font-family="Times,serif" font-size="14.00">Optik</text>
</g>
<!-- Physik&#45;&gt;Optik -->
<g id="edge2" class="edge">
<title>Physik&#45;&gt;Optik</title>
<path fill="none" stroke="black" d="M161.53,-102.35C151.16,-86.14 135.72,-62.01 124,-43.71"/>
<polygon fill="black" stroke="black" points="126.93,-41.78 118.59,-35.25 121.03,-45.56 126.93,-41.78"/>
</g>
<!-- Mechanik -->
<g id="node4" class="node">
<title>Mechanik</title>
<ellipse fill="none" stroke="black" cx="55.9" cy="-152.03" rx="55.79" ry="18"/>
<text text-anchor="middle" x="55.9" y="-148.33" font-family="Times,serif" font-size="14.00">Mechanik</text>
</g>
<!-- Physik&#45;&gt;Mechanik -->
<g id="edge3" class="edge">
<title>Physik&#45;&gt;Mechanik</title>
<path fill="none" stroke="black" d="M137.49,-129.8C128.31,-132.3 118.22,-135.05 108.37,-137.73"/>
<polygon fill="black" stroke="black" points="107.36,-134.38 98.63,-140.38 109.2,-141.13 107.36,-134.38"/>
</g>
<!-- Elektrizitätslehre -->
<g id="node5" class="node">
<title>Elektrizitätslehre</title>
<ellipse fill="none" stroke="black" cx="286.13" cy="-164.15" rx="92.08" ry="18"/>
<text text-anchor="middle" x="286.13" y="-160.45" font-family="Times,serif" font-size="14.00">Elektrizitätslehre</text>
</g>
<!-- Physik&#45;&gt;Elektrizitätslehre -->
<g id="edge4" class="edge">
<title>Physik&#45;&gt;Elektrizitätslehre</title>
<path fill="none" stroke="black" d="M204.15,-132.29C213.68,-135.99 224.4,-140.16 234.89,-144.23"/>
<polygon fill="black" stroke="black" points="233.81,-147.57 244.4,-147.93 236.35,-141.04 233.81,-147.57"/>
</g>
<!-- Wärmelehre -->
<g id="node6" class="node">
<title>Wärmelehre</title>
<ellipse fill="none" stroke="black" cx="167.2" cy="-241.42" rx="67.69" ry="18"/>
<text text-anchor="middle" x="167.2" y="-237.72" font-family="Times,serif" font-size="14.00">Wärmelehre</text>
</g>
<!-- Physik&#45;&gt;Wärmelehre -->
<g id="edge5" class="edge">
<title>Physik&#45;&gt;Wärmelehre</title>
<path fill="none" stroke="black" d="M172.06,-138.3C171.13,-158.04 169.63,-189.84 168.54,-212.92"/>
<polygon fill="black" stroke="black" points="165.03,-212.99 168.06,-223.14 172.03,-213.32 165.03,-212.99"/>
</g>
</g>
</svg>
