<?xml version="1.0" encoding="UTF-8" standalone="no"?>
<!DOCTYPE svg PUBLIC "-//W3C//DTD SVG 1.1//EN"
 "http://www.w3.org/Graphics/SVG/1.1/DTD/svg11.dtd">
<!-- Generated by graphviz version 2.43.0 (0)
 -->
<!-- Title: G Pages: 1 -->
<svg width="334pt" height="246pt"
 viewBox="0.00 0.00 334.49 246.46" xmlns="http://www.w3.org/2000/svg" xmlns:xlink="http://www.w3.org/1999/xlink">
<g id="graph0" class="graph" transform="scale(1 1) rotate(0) translate(4 242.46)">
<title>G</title>
<polygon fill="white" stroke="transparent" points="-4,4 -4,-242.46 330.49,-242.46 330.49,4 -4,4"/>
<!-- Physik -->
<g id="node1" class="node">
<title>Physik</title>
<ellipse fill="none" stroke="black" cx="179.46" cy="-119.49" rx="41.69" ry="18"/>
<text text-anchor="middle" x="179.46" y="-115.79" font-family="Times,serif" font-size="14.00">Physik</text>
</g>
<!-- Akustik -->
<g id="node2" class="node">
<title>Akustik</title>
<ellipse fill="none" stroke="black" cx="280.99" cy="-53.66" rx="45.49" ry="18"/>
<text text-anchor="middle" x="280.99" y="-49.96" font-family="Times,serif" font-size="14.00">Akustik</text>
</g>
<!-- Physik&#45;&gt;Akustik -->
<g id="edge1" class="edge">
<title>Physik&#45;&gt;Akustik</title>
<path fill="none" stroke="black" d="M202.75,-104.39C216.36,-95.57 233.73,-84.3 248.65,-74.63"/>
<polygon fill="black" stroke="black" points="250.62,-77.53 257.1,-69.15 246.81,-71.65 250.62,-77.53"/>
</g>
<!-- Atom&#45; und Kernphysik -->
<g id="node3" class="node">
<title>Atom&#45; und Kernphysik</title>
<ellipse fill="none" stroke="black" cx="113.74" cy="-18" rx="113.98" ry="18"/>
<text text-anchor="middle" x="113.74" y="-14.3" font-family="Times,serif" font-size="14.00">Atom&#45; und Kernphysik</text>
</g>
<!-- Physik&#45;&gt;Atom&#45; und Kernphysik -->
<g id="edge2" class="edge">
<title>Physik&#45;&gt;Atom&#45; und Kernphysik</title>
<path fill="none" stroke="black" d="M168.01,-101.81C157.86,-86.14 142.89,-63.02 131.24,-45.03"/>
<polygon fill="black" stroke="black" points="133.87,-42.65 125.5,-36.16 128,-46.46 133.87,-42.65"/>
</g>
<!-- Optik -->
<g id="node4" class="node">
<title>Optik</title>
<ellipse fill="none" stroke="black" cx="78.63" cy="-186.26" rx="36.29" ry="18"/>
<text text-anchor="middle" x="78.63" y="-182.56" font-family="Times,serif" font-size="14.00">Optik</text>
</g>
<!-- Physik&#45;&gt;Optik -->
<g id="edge3" class="edge">
<title>Physik&#45;&gt;Optik</title>
<path fill="none" stroke="black" d="M156.58,-134.64C142.59,-143.9 124.52,-155.87 109.31,-165.95"/>
<polygon fill="black" stroke="black" points="107.13,-163.19 100.73,-171.63 111,-169.02 107.13,-163.19"/>
</g>
<!-- Mechanik -->
<g id="node5" class="node">
<title>Mechanik</title>
<ellipse fill="none" stroke="black" cx="246.21" cy="-220.46" rx="55.79" ry="18"/>
<text text-anchor="middle" x="246.21" y="-216.76" font-family="Times,serif" font-size="14.00">Mechanik</text>
</g>
<!-- Physik&#45;&gt;Mechanik -->
<g id="edge4" class="edge">
<title>Physik&#45;&gt;Mechanik</title>
<path fill="none" stroke="black" d="M191.09,-137.08C201.55,-152.91 217.07,-176.38 228.98,-194.39"/>
<polygon fill="black" stroke="black" points="226.06,-196.32 234.49,-202.73 231.9,-192.46 226.06,-196.32"/>
</g>
</g>
</svg>
