<?xml version="1.0" encoding="UTF-8" standalone="no"?>
<!DOCTYPE svg PUBLIC "-//W3C//DTD SVG 1.1//EN"
 "http://www.w3.org/Graphics/SVG/1.1/DTD/svg11.dtd">
<!-- Generated by graphviz version 2.43.0 (0)
 -->
<!-- Title: G Pages: 1 -->
<svg width="304pt" height="227pt"
 viewBox="0.00 0.00 303.56 227.11" xmlns="http://www.w3.org/2000/svg" xmlns:xlink="http://www.w3.org/1999/xlink">
<g id="graph0" class="graph" transform="scale(1 1) rotate(0) translate(4 223.11)">
<title>G</title>
<polygon fill="white" stroke="transparent" points="-4,4 -4,-223.11 299.56,-223.11 299.56,4 -4,4"/>
<!-- Physik -->
<g id="node1" class="node">
<title>Physik</title>
<ellipse fill="none" stroke="black" cx="134.17" cy="-117.71" rx="41.69" ry="18"/>
<text text-anchor="middle" x="134.17" y="-114.01" font-family="Times,serif" font-size="14.00">Physik</text>
</g>
<!-- Mechanik -->
<g id="node2" class="node">
<title>Mechanik</title>
<ellipse fill="none" stroke="black" cx="239.67" cy="-134.08" rx="55.79" ry="18"/>
<text text-anchor="middle" x="239.67" y="-130.38" font-family="Times,serif" font-size="14.00">Mechanik</text>
</g>
<!-- Physik&#45;&gt;Mechanik -->
<g id="edge1" class="edge">
<title>Physik&#45;&gt;Mechanik</title>
<path fill="none" stroke="black" d="M173.45,-123.8C175.39,-124.1 177.34,-124.41 179.32,-124.71"/>
<polygon fill="black" stroke="black" points="178.84,-128.18 189.25,-126.26 179.91,-121.26 178.84,-128.18"/>
</g>
<!-- Elektrizitätslehre -->
<g id="node3" class="node">
<title>Elektrizitätslehre</title>
<ellipse fill="none" stroke="black" cx="96.1" cy="-18" rx="92.08" ry="18"/>
<text text-anchor="middle" x="96.1" y="-14.3" font-family="Times,serif" font-size="14.00">Elektrizitätslehre</text>
</g>
<!-- Physik&#45;&gt;Elektrizitätslehre -->
<g id="edge2" class="edge">
<title>Physik&#45;&gt;Elektrizitätslehre</title>
<path fill="none" stroke="black" d="M127.36,-99.88C121.61,-84.8 113.26,-62.95 106.64,-45.61"/>
<polygon fill="black" stroke="black" points="109.81,-44.1 102.98,-36.01 103.27,-46.6 109.81,-44.1"/>
</g>
<!-- Wärmelehre -->
<g id="node4" class="node">
<title>Wärmelehre</title>
<ellipse fill="none" stroke="black" cx="67.59" cy="-201.11" rx="67.69" ry="18"/>
<text text-anchor="middle" x="67.59" y="-197.41" font-family="Times,serif" font-size="14.00">Wärmelehre</text>
</g>
<!-- Physik&#45;&gt;Wärmelehre -->
<g id="edge3" class="edge">
<title>Physik&#45;&gt;Wärmelehre</title>
<path fill="none" stroke="black" d="M120.37,-134.99C111.13,-146.57 98.78,-162.04 88.35,-175.1"/>
<polygon fill="black" stroke="black" points="85.33,-173.28 81.83,-183.28 90.8,-177.64 85.33,-173.28"/>
</g>
</g>
</svg>
